<svg width="32" height="32" viewBox="0 0 32 32" fill="none" xmlns="http://www.w3.org/2000/svg">
<path d="M25.3333 5.33301H6.66663C5.60576 5.33301 4.58834 5.75444 3.8382 6.50458C3.08805 7.25473 2.66663 8.27214 2.66663 9.33301V22.6663C2.66663 23.7272 3.08805 24.7446 3.8382 25.4948C4.58834 26.2449 5.60576 26.6663 6.66663 26.6663H25.3333C26.3942 26.6663 27.4116 26.2449 28.1617 25.4948C28.9119 24.7446 29.3333 23.7272 29.3333 22.6663V9.33301C29.3333 8.27214 28.9119 7.25473 28.1617 6.50458C27.4116 5.75444 26.3942 5.33301 25.3333 5.33301V5.33301ZM24.5693 7.99967L16.8 14.3997C16.5779 14.5686 16.3082 14.6631 16.0293 14.6698C15.7504 14.6765 15.4765 14.5951 15.2466 14.437L7.43063 7.99967H24.5693ZM25.3333 23.9997H6.66663C6.313 23.9997 5.97387 23.8592 5.72382 23.6092C5.47377 23.3591 5.33329 23.02 5.33329 22.6663V9.73301L13.6 16.533C14.2879 17.0481 15.1246 17.3256 15.984 17.3237C16.8734 17.3223 17.7382 17.0317 18.448 16.4957L26.6666 9.73301V22.6663C26.6666 23.02 26.5262 23.3591 26.2761 23.6092C26.0261 23.8592 25.6869 23.9997 25.3333 23.9997Z" fill="#383838"/>
</svg>
