<svg width="168" height="40" viewBox="0 0 168 40" fill="none" xmlns="http://www.w3.org/2000/svg">
<path d="M28.8997 9.10065C28.5041 9.10065 28.1174 9.21795 27.7885 9.43771C27.4596 9.65748 27.2033 9.96983 27.0519 10.3353C26.9005 10.7007 26.8609 11.1029 26.9381 11.4908C27.0153 11.8788 27.2058 12.2352 27.4855 12.5149C27.7652 12.7946 28.1215 12.9851 28.5095 13.0622C28.8975 13.1394 29.2996 13.0998 29.665 12.9484C30.0305 12.797 30.3429 12.5407 30.5626 12.2118C30.7824 11.8829 30.8997 11.4962 30.8997 11.1007C30.8997 10.5702 30.689 10.0615 30.3139 9.68644C29.9388 9.31137 29.4301 9.10065 28.8997 9.10065V9.10065ZM36.5663 13.134C36.5339 11.7511 36.2749 10.383 35.7997 9.08398C35.3759 7.97254 34.7163 6.96612 33.8663 6.13398C33.041 5.27969 32.0323 4.62428 30.9163 4.21732C29.6208 3.72759 28.2511 3.46267 26.8663 3.43398C25.0997 3.33398 24.533 3.33398 19.9997 3.33398C15.4663 3.33398 14.8997 3.33398 13.133 3.43398C11.7483 3.46267 10.3786 3.72759 9.08301 4.21732C7.96914 4.6284 6.96123 5.28325 6.13301 6.13398C5.27872 6.95928 4.6233 7.96805 4.21634 9.08398C3.72661 10.3796 3.46169 11.7492 3.43301 13.134C3.33301 14.9007 3.33301 15.4673 3.33301 20.0007C3.33301 24.534 3.33301 25.1007 3.43301 26.8673C3.46169 28.2521 3.72661 29.6217 4.21634 30.9173C4.6233 32.0333 5.27872 33.042 6.13301 33.8673C6.96123 34.7181 7.96914 35.3729 9.08301 35.784C10.3786 36.2737 11.7483 36.5386 13.133 36.5673C14.8997 36.6673 15.4663 36.6673 19.9997 36.6673C24.533 36.6673 25.0997 36.6673 26.8663 36.5673C28.2511 36.5386 29.6208 36.2737 30.9163 35.784C32.0323 35.377 33.041 34.7216 33.8663 33.8673C34.7201 33.0383 35.3802 32.031 35.7997 30.9173C36.2749 29.6183 36.5339 28.2502 36.5663 26.8673C36.5663 25.1007 36.6663 24.534 36.6663 20.0007C36.6663 15.4673 36.6663 14.9007 36.5663 13.134V13.134ZM33.5663 26.6673C33.5542 27.7253 33.3626 28.7735 32.9997 29.7673C32.7336 30.4926 32.3061 31.148 31.7497 31.684C31.2091 32.2348 30.5551 32.6614 29.833 32.934C28.8392 33.2969 27.791 33.4885 26.733 33.5007C25.0663 33.584 24.4497 33.6007 20.0663 33.6007C15.683 33.6007 15.0663 33.6007 13.3997 33.5007C12.3012 33.5212 11.2073 33.3521 10.1663 33.0007C9.47598 32.7141 8.85193 32.2886 8.33301 31.7507C7.77982 31.2152 7.35775 30.5593 7.09968 29.834C6.69277 28.8259 6.46708 27.7539 6.43301 26.6673C6.43301 25.0007 6.33301 24.384 6.33301 20.0007C6.33301 15.6173 6.33301 15.0007 6.43301 13.334C6.44048 12.2524 6.63792 11.1806 7.01634 10.1673C7.30975 9.46384 7.76012 8.83675 8.33301 8.33398C8.83936 7.76093 9.46515 7.30581 10.1663 7.00065C11.1823 6.63406 12.253 6.44245 13.333 6.43398C14.9997 6.43398 15.6163 6.33398 19.9997 6.33398C24.383 6.33398 24.9997 6.33398 26.6663 6.43398C27.7243 6.44612 28.7725 6.63773 29.7663 7.00065C30.5237 7.28174 31.2035 7.73873 31.7497 8.33398C32.2958 8.84595 32.7226 9.47187 32.9997 10.1673C33.3701 11.1822 33.5618 12.2536 33.5663 13.334C33.6497 15.0007 33.6663 15.6173 33.6663 20.0007C33.6663 24.384 33.6497 25.0007 33.5663 26.6673ZM19.9997 11.4507C18.3094 11.4539 16.6579 11.9582 15.2541 12.8997C13.8503 13.8412 12.757 15.1776 12.1124 16.7402C11.4678 18.3028 11.3009 20.0214 11.6327 21.6789C11.9644 23.3363 12.7801 24.8582 13.9765 26.0523C15.1729 27.2464 16.6964 28.059 18.3544 28.3876C20.0125 28.7161 21.7308 28.5458 23.2921 27.8982C24.8535 27.2506 26.1878 26.1547 27.1266 24.749C28.0653 23.3434 28.5663 21.691 28.5663 20.0007C28.5685 18.8758 28.3483 17.7617 27.9184 16.7222C27.4885 15.6828 26.8573 14.7387 26.0611 13.9441C25.265 13.1495 24.3196 12.5201 23.2793 12.0922C22.2391 11.6643 21.1245 11.4463 19.9997 11.4507V11.4507ZM19.9997 25.5507C18.902 25.5507 17.829 25.2252 16.9163 24.6153C16.0036 24.0055 15.2922 23.1387 14.8721 22.1245C14.4521 21.1104 14.3422 19.9945 14.5563 18.9179C14.7705 17.8413 15.2991 16.8524 16.0752 16.0762C16.8514 15.3 17.8403 14.7714 18.9169 14.5573C19.9935 14.3431 21.1094 14.4531 22.1236 14.8731C23.1377 15.2932 24.0045 16.0045 24.6143 16.9172C25.2242 17.8299 25.5497 18.903 25.5497 20.0007C25.5497 20.7295 25.4061 21.4512 25.1272 22.1245C24.8483 22.7979 24.4395 23.4097 23.9241 23.9251C23.4088 24.4405 22.7969 24.8493 22.1236 25.1282C21.4502 25.4071 20.7285 25.5507 19.9997 25.5507V25.5507Z" fill="#FAFAFA"/>
<path d="M78.183 33.3332H78.0497C75.3636 33.3097 72.7164 32.6892 70.2997 31.5165C69.8551 31.3077 69.4891 30.9621 69.2552 30.5302C69.0212 30.0984 68.9317 29.603 68.9997 29.1165C69.0736 28.6268 69.3003 28.173 69.6475 27.8198C69.9947 27.4666 70.4446 27.2321 70.933 27.1499C72.4307 26.9501 73.8715 26.4452 75.1663 25.6665C72.9183 23.9089 71.1876 21.5758 70.1577 18.9145C69.1278 16.2533 68.8371 13.3629 69.3163 10.5499C69.3813 10.1043 69.5729 9.68676 69.8684 9.34697C70.1639 9.00718 70.5508 8.75943 70.983 8.6332C71.4035 8.50114 71.8536 8.49549 72.2773 8.61697C72.701 8.73846 73.0797 8.98171 73.3663 9.31654C74.3397 10.5928 75.5628 11.6575 76.9612 12.4455C78.3595 13.2335 79.9038 13.7283 81.4997 13.8999C81.5759 11.9363 82.4197 10.0811 83.8497 8.7332C84.5637 8.04949 85.4066 7.51472 86.3294 7.16005C87.2521 6.80538 88.2362 6.6379 89.2243 6.66737C90.2125 6.69685 91.1848 6.92268 92.0848 7.33172C92.9848 7.74076 93.7943 8.32482 94.4663 9.04987C94.6414 9.20465 94.8589 9.30329 95.0907 9.33301C95.3225 9.36272 95.5579 9.32215 95.7663 9.21654C96.1637 9.02912 96.6062 8.95856 97.0422 9.01311C97.4781 9.06766 97.8896 9.24506 98.2286 9.52461C98.5675 9.80417 98.82 10.1743 98.9565 10.592C99.0931 11.0096 99.108 11.4574 98.9997 11.8832C98.6152 13.4667 97.8869 14.9462 96.8663 16.2165C96.6414 20.9578 94.5511 25.4178 91.0512 28.6242C87.5514 31.8306 82.9258 33.5233 78.183 33.3332V33.3332ZM78.183 29.9999H78.3163C80.2541 30.0665 82.1858 29.7478 83.9995 29.0623C85.8132 28.3768 87.4728 27.3381 88.8821 26.0063C90.2913 24.6746 91.4222 23.0764 92.2091 21.3044C92.996 19.5323 93.4234 17.6217 93.4663 15.6832C93.4939 15.152 93.7129 14.6487 94.083 14.2665C94.4895 13.7519 94.8362 13.1928 95.1163 12.5999C94.5159 12.601 93.922 12.4754 93.3735 12.2313C92.8249 11.9872 92.3341 11.63 91.933 11.1832C91.5473 10.8008 91.0892 10.4992 90.5856 10.296C90.0819 10.0928 89.5427 9.99212 88.9997 9.99987C88.4512 9.98569 87.9053 10.08 87.3933 10.2773C86.8813 10.4747 86.4134 10.7712 86.0163 11.1499C85.4806 11.6582 85.0878 12.2983 84.8772 13.0061C84.6666 13.714 84.6456 14.4647 84.8163 15.1832L85.2497 17.0832L83.2997 17.2165C81.3015 17.3795 79.2918 17.1061 77.4097 16.4155C75.5276 15.7248 73.8181 14.6333 72.3997 13.2165C72.3388 15.4105 72.8877 17.5784 73.9852 19.4792C75.0826 21.3799 76.6858 22.939 78.6163 23.9832L80.1997 24.8832L79.1497 26.3832C78.0142 27.8724 76.4583 28.987 74.683 29.5832C75.8219 29.8686 76.9923 30.0087 78.1663 29.9999H78.183Z" fill="#FAFAFA"/>
<path d="M162.833 3.33398H133.166C132.68 3.33398 132.214 3.52714 131.87 3.87096C131.526 4.21477 131.333 4.68109 131.333 5.16732V34.834C131.333 35.0747 131.38 35.3131 131.473 35.5356C131.565 35.758 131.7 35.9601 131.87 36.1303C132.04 36.3006 132.242 36.4356 132.465 36.5278C132.687 36.6199 132.926 36.6673 133.166 36.6673H149.133V23.7507H144.8V18.7507H149.133V15.0007C149.043 14.1202 149.147 13.2309 149.438 12.3949C149.728 11.5589 150.198 10.7966 150.814 10.1613C151.43 9.52611 152.178 9.03339 153.004 8.71771C153.831 8.40204 154.717 8.27107 155.6 8.33398C156.897 8.326 158.193 8.39278 159.483 8.53398V13.034H156.833C154.733 13.034 154.333 14.034 154.333 15.484V18.7007H159.333L158.683 23.7007H154.333V36.6673H162.833C163.074 36.6673 163.312 36.6199 163.535 36.5278C163.757 36.4356 163.959 36.3006 164.129 36.1303C164.3 35.9601 164.435 35.758 164.527 35.5356C164.619 35.3131 164.666 35.0747 164.666 34.834V5.16732C164.666 4.92656 164.619 4.68816 164.527 4.46573C164.435 4.2433 164.3 4.0412 164.129 3.87096C163.959 3.70071 163.757 3.56567 163.535 3.47354C163.312 3.38141 163.074 3.33398 162.833 3.33398V3.33398Z" fill="#FAFAFA"/>
</svg>
