<svg width="24" height="24" viewBox="0 0 24 24" fill="none" xmlns="http://www.w3.org/2000/svg">
<path d="M19.4401 13.0004C19.2201 13.0004 18.9901 12.9304 18.7701 12.8804C18.3246 12.7822 17.8868 12.6518 17.4601 12.4904C16.9962 12.3216 16.4862 12.3304 16.0284 12.515C15.5706 12.6996 15.1972 13.047 14.9801 13.4904L14.7601 13.9404C13.7861 13.3985 12.8911 12.7256 12.1001 11.9404C11.3149 11.1494 10.6419 10.2544 10.1001 9.28036L10.5201 9.00036C10.9635 8.78327 11.3109 8.40989 11.4955 7.95205C11.6801 7.49421 11.6889 6.98427 11.5201 6.52036C11.3613 6.09278 11.231 5.65515 11.1301 5.21036C11.0801 4.99036 11.0401 4.76036 11.0101 4.53036C10.8887 3.82598 10.5197 3.1881 9.96972 2.7316C9.41972 2.27509 8.7248 2.02997 8.0101 2.04036H5.0101C4.57913 2.03631 4.15235 2.12517 3.75881 2.30089C3.36527 2.4766 3.01421 2.73505 2.72953 3.05864C2.44485 3.38222 2.23324 3.76335 2.10909 4.17607C1.98494 4.58879 1.95118 5.02342 2.0101 5.45036C2.54284 9.63974 4.45613 13.5322 7.44775 16.513C10.4394 19.4938 14.3388 21.3929 18.5301 21.9104H18.9101C19.6475 21.9114 20.3595 21.6409 20.9101 21.1504C21.2265 20.8674 21.4792 20.5205 21.6516 20.1327C21.8239 19.7448 21.9121 19.3248 21.9101 18.9004V15.9004C21.8979 15.2057 21.6449 14.5369 21.1944 14.008C20.744 13.4791 20.1239 13.123 19.4401 13.0004V13.0004ZM19.9401 19.0004C19.9399 19.1423 19.9095 19.2827 19.8509 19.412C19.7923 19.5413 19.7068 19.6566 19.6001 19.7504C19.4884 19.8468 19.3577 19.9189 19.2165 19.962C19.0753 20.005 18.9267 20.0181 18.7801 20.0004C15.035 19.5202 11.5563 17.8068 8.89282 15.1306C6.2293 12.4545 4.53251 8.96769 4.0701 5.22036C4.05419 5.07387 4.06813 4.92569 4.1111 4.78475C4.15407 4.64381 4.22517 4.51304 4.3201 4.40036C4.41381 4.29369 4.52916 4.2082 4.65848 4.14957C4.7878 4.09095 4.92812 4.06054 5.0701 4.06036H8.0701C8.30265 4.05518 8.52972 4.13124 8.71224 4.27543C8.89477 4.41962 9.02131 4.62293 9.0701 4.85036C9.1101 5.12369 9.1601 5.39369 9.2201 5.66036C9.33562 6.1875 9.48936 6.70554 9.6801 7.21036L8.2801 7.86036C8.1604 7.91528 8.05272 7.9933 7.96326 8.08995C7.87379 8.1866 7.8043 8.29997 7.75877 8.42355C7.71324 8.54713 7.69257 8.67849 7.69795 8.81008C7.70332 8.94167 7.73464 9.0709 7.7901 9.19036C9.2293 12.2731 11.7073 14.7512 14.7901 16.1904C15.0336 16.2904 15.3066 16.2904 15.5501 16.1904C15.6748 16.1457 15.7894 16.0768 15.8873 15.9875C15.9851 15.8983 16.0643 15.7905 16.1201 15.6704L16.7401 14.2704C17.2571 14.4552 17.7847 14.6088 18.3201 14.7304C18.5868 14.7904 18.8568 14.8404 19.1301 14.8804C19.3575 14.9291 19.5608 15.0557 19.705 15.2382C19.8492 15.4207 19.9253 15.6478 19.9201 15.8804L19.9401 19.0004Z" fill="#F46B5B"/>
</svg>
