<svg width="216" height="56" viewBox="0 0 216 56" fill="none" xmlns="http://www.w3.org/2000/svg">
<rect opacity="0.5" width="56" height="56" rx="8" fill="#F46B5B"/>
<path d="M36.9002 17.0997C36.5046 17.0997 36.1179 17.217 35.789 17.4367C35.4601 17.6565 35.2038 17.9689 35.0524 18.3343C34.901 18.6998 34.8614 19.1019 34.9386 19.4899C35.0158 19.8778 35.2062 20.2342 35.486 20.5139C35.7657 20.7936 36.122 20.9841 36.51 21.0612C36.8979 21.1384 37.3001 21.0988 37.6655 20.9474C38.031 20.7961 38.3433 20.5397 38.5631 20.2108C38.7829 19.8819 38.9002 19.4952 38.9002 19.0997C38.9002 18.5692 38.6895 18.0605 38.3144 17.6855C37.9393 17.3104 37.4306 17.0997 36.9002 17.0997V17.0997ZM44.5668 21.133C44.5344 19.7502 44.2754 18.382 43.8002 17.083C43.3764 15.9716 42.7168 14.9651 41.8668 14.133C41.0415 13.2787 40.0328 12.6233 38.9168 12.2163C37.6213 11.7266 36.2516 11.4617 34.8668 11.433C33.1002 11.333 32.5335 11.333 28.0002 11.333C23.4668 11.333 22.9002 11.333 21.1335 11.433C19.7488 11.4617 18.3791 11.7266 17.0835 12.2163C15.9696 12.6274 14.9617 13.2823 14.1335 14.133C13.2792 14.9583 12.6238 15.9671 12.2168 17.083C11.7271 18.3786 11.4622 19.7483 11.4335 21.133C11.3335 22.8997 11.3335 23.4663 11.3335 27.9997C11.3335 32.533 11.3335 33.0997 11.4335 34.8663C11.4622 36.2511 11.7271 37.6208 12.2168 38.9163C12.6238 40.0323 13.2792 41.041 14.1335 41.8663C14.9617 42.7171 15.9696 43.3719 17.0835 43.783C18.3791 44.2727 19.7488 44.5377 21.1335 44.5663C22.9002 44.6663 23.4668 44.6663 28.0002 44.6663C32.5335 44.6663 33.1002 44.6663 34.8668 44.5663C36.2516 44.5377 37.6213 44.2727 38.9168 43.783C40.0328 43.376 41.0415 42.7206 41.8668 41.8663C42.7206 41.0373 43.3807 40.03 43.8002 38.9163C44.2754 37.6173 44.5344 36.2492 44.5668 34.8663C44.5668 33.0997 44.6668 32.533 44.6668 27.9997C44.6668 23.4663 44.6668 22.8997 44.5668 21.133V21.133ZM41.5668 34.6663C41.5547 35.7243 41.3631 36.7725 41.0002 37.7663C40.7341 38.4917 40.3066 39.147 39.7502 39.683C39.2096 40.2339 38.5555 40.6604 37.8335 40.933C36.8397 41.2959 35.7915 41.4875 34.7335 41.4997C33.0668 41.583 32.4502 41.5997 28.0668 41.5997C23.6835 41.5997 23.0668 41.5997 21.4002 41.4997C20.3016 41.5202 19.2078 41.3511 18.1668 40.9997C17.4765 40.7131 16.8524 40.2877 16.3335 39.7497C15.7803 39.2143 15.3582 38.5583 15.1002 37.833C14.6933 36.8249 14.4676 35.7529 14.4335 34.6663C14.4335 32.9997 14.3335 32.383 14.3335 27.9997C14.3335 23.6163 14.3335 22.9997 14.4335 21.333C14.441 20.2514 14.6384 19.1796 15.0168 18.1663C15.3102 17.4629 15.7606 16.8358 16.3335 16.333C16.8399 15.76 17.4656 15.3048 18.1668 14.9997C19.1827 14.6331 20.2535 14.4415 21.3335 14.433C23.0002 14.433 23.6168 14.333 28.0002 14.333C32.3835 14.333 33.0002 14.333 34.6668 14.433C35.7248 14.4451 36.773 14.6368 37.7668 14.9997C38.5242 15.2808 39.204 15.7378 39.7502 16.333C40.2963 16.845 40.7231 17.4709 41.0002 18.1663C41.3706 19.1812 41.5623 20.2526 41.5668 21.333C41.6502 22.9997 41.6668 23.6163 41.6668 27.9997C41.6668 32.383 41.6502 32.9997 41.5668 34.6663ZM28.0002 19.4497C26.3098 19.453 24.6584 19.9572 23.2546 20.8987C21.8507 21.8402 20.7575 23.1767 20.1129 24.7393C19.4683 26.3019 19.3014 28.0205 19.6332 29.6779C19.9649 31.3353 20.7806 32.8572 21.977 34.0513C23.1734 35.2454 24.6968 36.058 26.3549 36.3866C28.013 36.7151 29.7313 36.5449 31.2926 35.8972C32.8539 35.2496 34.1883 34.1537 35.127 32.7481C36.0658 31.3424 36.5668 29.69 36.5668 27.9997C36.569 26.8748 36.3488 25.7607 35.9189 24.7213C35.489 23.6819 34.8578 22.7377 34.0616 21.9431C33.2655 21.1485 32.3201 20.5191 31.2798 20.0912C30.2396 19.6633 29.125 19.4453 28.0002 19.4497V19.4497ZM28.0002 33.5497C26.9025 33.5497 25.8294 33.2242 24.9167 32.6143C24.0041 32.0045 23.2927 31.1377 22.8726 30.1236C22.4526 29.1094 22.3427 27.9935 22.5568 26.9169C22.771 25.8403 23.2995 24.8514 24.0757 24.0752C24.8519 23.2991 25.8408 22.7705 26.9174 22.5563C27.994 22.3422 29.1099 22.4521 30.1241 22.8721C31.1382 23.2922 32.005 24.0036 32.6148 24.9163C33.2247 25.829 33.5502 26.902 33.5502 27.9997C33.5502 28.7285 33.4066 29.4502 33.1277 30.1236C32.8488 30.7969 32.44 31.4088 31.9246 31.9241C31.4092 32.4395 30.7974 32.8483 30.1241 33.1272C29.4507 33.4061 28.729 33.5497 28.0002 33.5497V33.5497Z" fill="#FAFAFA"/>
<rect opacity="0.5" x="80" width="56" height="56" rx="8" fill="#F46B5B"/>
<path d="M102.183 41.3332H102.05C99.3641 41.3097 96.7169 40.6892 94.3002 39.5165C93.8556 39.3077 93.4896 38.9621 93.2557 38.5302C93.0217 38.0984 92.9322 37.603 93.0002 37.1165C93.0741 36.6268 93.3008 36.173 93.648 35.8198C93.9952 35.4666 94.4451 35.2321 94.9335 35.1499C96.4312 34.9501 97.872 34.4452 99.1668 33.6665C96.9188 31.9089 95.1881 29.5758 94.1582 26.9145C93.1283 24.2533 92.8376 21.3629 93.3168 18.5499C93.3818 18.1043 93.5734 17.6868 93.8689 17.347C94.1644 17.0072 94.5512 16.7594 94.9835 16.6332C95.404 16.5011 95.8541 16.4955 96.2778 16.617C96.7015 16.7385 97.0802 16.9817 97.3668 17.3165C98.3402 18.5928 99.5633 19.6575 100.962 20.4455C102.36 21.2335 103.904 21.7283 105.5 21.8999C105.576 19.9363 106.42 18.0811 107.85 16.7332C108.564 16.0495 109.407 15.5147 110.33 15.1601C111.253 14.8054 112.237 14.6379 113.225 14.6674C114.213 14.6968 115.185 14.9227 116.085 15.3317C116.985 15.7408 117.795 16.3248 118.467 17.0499C118.642 17.2047 118.859 17.3033 119.091 17.333C119.323 17.3627 119.558 17.3221 119.767 17.2165C120.164 17.0291 120.607 16.9586 121.043 17.0131C121.479 17.0677 121.89 17.2451 122.229 17.5246C122.568 17.8042 122.82 18.1743 122.957 18.592C123.094 19.0096 123.109 19.4574 123 19.8832C122.616 21.4667 121.887 22.9462 120.867 24.2165C120.642 28.9578 118.552 33.4178 115.052 36.6242C111.552 39.8306 106.926 41.5233 102.183 41.3332V41.3332ZM102.183 37.9999H102.317C104.255 38.0665 106.186 37.7478 108 37.0623C109.814 36.3768 111.473 35.3381 112.883 34.0063C114.292 32.6746 115.423 31.0764 116.21 29.3044C116.997 27.5323 117.424 25.6217 117.467 23.6832C117.494 23.152 117.713 22.6487 118.083 22.2665C118.49 21.7519 118.837 21.1928 119.117 20.5999C118.516 20.601 117.923 20.4754 117.374 20.2313C116.825 19.9872 116.335 19.63 115.933 19.1832C115.548 18.8008 115.09 18.4992 114.586 18.296C114.082 18.0928 113.543 17.9921 113 17.9999C112.452 17.9857 111.906 18.08 111.394 18.2773C110.882 18.4747 110.414 18.7712 110.017 19.1499C109.481 19.6582 109.088 20.2983 108.878 21.0061C108.667 21.714 108.646 22.4647 108.817 23.1832L109.25 25.0832L107.3 25.2165C105.302 25.3795 103.292 25.1061 101.41 24.4155C99.5281 23.7248 97.8186 22.6333 96.4002 21.2165C96.3393 23.4105 96.8882 25.5784 97.9856 27.4792C99.0831 29.3799 100.686 30.939 102.617 31.9832L104.2 32.8832L103.15 34.3832C102.015 35.8724 100.459 36.987 98.6835 37.5832C99.8223 37.8686 100.993 38.0087 102.167 37.9999H102.183Z" fill="#FAFAFA"/>
<rect opacity="0.5" x="160" width="56" height="56" rx="8" fill="#F46B5B"/>
<path d="M202.833 11.333H173.167C172.681 11.333 172.214 11.5262 171.87 11.87C171.527 12.2138 171.333 12.6801 171.333 13.1663V42.833C171.333 43.0738 171.381 43.3122 171.473 43.5346C171.565 43.757 171.7 43.9591 171.87 44.1294C172.041 44.2996 172.243 44.4347 172.465 44.5268C172.688 44.6189 172.926 44.6663 173.167 44.6663H189.133V31.7497H184.8V26.7497H189.133V22.9997C189.044 22.1193 189.148 21.2299 189.438 20.3939C189.728 19.5579 190.198 18.7956 190.814 18.1604C191.43 17.5251 192.178 17.0324 193.005 16.7167C193.832 16.4011 194.717 16.2701 195.6 16.333C196.897 16.325 198.194 16.3918 199.483 16.533V21.033H196.833C194.733 21.033 194.333 22.033 194.333 23.483V26.6997H199.333L198.683 31.6997H194.333V44.6663H202.833C203.074 44.6663 203.313 44.6189 203.535 44.5268C203.758 44.4347 203.96 44.2996 204.13 44.1294C204.3 43.9591 204.435 43.757 204.527 43.5346C204.619 43.3122 204.667 43.0738 204.667 42.833V13.1663C204.667 12.9256 204.619 12.6872 204.527 12.4648C204.435 12.2423 204.3 12.0402 204.13 11.87C203.96 11.6997 203.758 11.5647 203.535 11.4726C203.313 11.3804 203.074 11.333 202.833 11.333V11.333Z" fill="#FAFAFA"/>
</svg>
