<svg width="48" height="48" viewBox="0 0 48 48" fill="none" xmlns="http://www.w3.org/2000/svg">
<path d="M10.5 24.1999C10.5 23.7892 10.6581 23.3954 10.9394 23.105C11.2207 22.8146 11.6022 22.6515 12 22.6515L32.385 22.6515L30.435 20.6541C30.1526 20.3625 29.9939 19.9671 29.9939 19.5547C29.9939 19.1424 30.1526 18.7469 30.435 18.4554C30.7175 18.1638 31.1006 18 31.5 18C31.8995 18 32.2826 18.1638 32.565 18.4554L37.065 23.1005C37.2732 23.3183 37.4142 23.5948 37.4702 23.8951C37.5263 24.1955 37.4949 24.5063 37.38 24.7883C37.2675 25.071 37.0764 25.3131 36.8308 25.4839C36.5852 25.6548 36.2962 25.7467 36 25.7483L12 25.7483C11.6022 25.7483 11.2207 25.5851 10.9394 25.2948C10.6581 25.0044 10.5 24.6105 10.5 24.1999Z" fill="#F46B5B"/>
<path d="M30 28.8454C29.9988 28.6416 30.0367 28.4396 30.1113 28.251C30.186 28.0623 30.2959 27.8907 30.435 27.746L34.935 23.1009C35.2174 22.8093 35.6005 22.6455 36 22.6455C36.1978 22.6455 36.3936 22.6857 36.5763 22.7639C36.7591 22.842 36.9251 22.9565 37.065 23.1009C37.2048 23.2452 37.3158 23.4166 37.3915 23.6053C37.4671 23.7939 37.5061 23.9961 37.5061 24.2002C37.5061 24.6126 37.3474 25.008 37.065 25.2996L32.565 29.9447C32.4255 30.0899 32.2596 30.2051 32.0768 30.2837C31.894 30.3623 31.698 30.4028 31.5 30.4028C31.3019 30.4028 31.1059 30.3623 30.9231 30.2837C30.7403 30.2051 30.5744 30.0899 30.435 29.9447C30.2959 29.8001 30.186 29.6285 30.1113 29.4398C30.0367 29.2512 29.9988 29.0492 30 28.8454Z" fill="#F46B5B"/>
</svg>
