<svg width="32" height="32" viewBox="0 0 32 32" fill="none" xmlns="http://www.w3.org/2000/svg">
<path d="M19 7H17C16.7348 7 16.4804 7.10536 16.2929 7.29289C16.1054 7.48043 16 7.73478 16 8C16 8.26522 16.1054 8.51957 16.2929 8.70711C16.4804 8.89464 16.7348 9 17 9H19C19.2652 9 19.5196 8.89464 19.7071 8.70711C19.8946 8.51957 20 8.26522 20 8C20 7.73478 19.8946 7.48043 19.7071 7.29289C19.5196 7.10536 19.2652 7 19 7ZM16.92 23.62C16.898 23.5563 16.8678 23.4958 16.83 23.44L16.71 23.29C16.6143 23.1997 16.5023 23.1284 16.38 23.08C16.1365 22.98 15.8635 22.98 15.62 23.08C15.4988 23.1307 15.3872 23.2017 15.29 23.29C15.1073 23.4816 15.0037 23.7352 15 24C15.0016 24.0671 15.0083 24.1339 15.02 24.2C15.0309 24.2627 15.0511 24.3233 15.08 24.38C15.0998 24.4415 15.1303 24.499 15.17 24.55C15.21 24.61 15.25 24.66 15.29 24.71C15.3873 24.7981 15.4989 24.8692 15.62 24.92C15.7397 24.9728 15.8692 25 16 25C16.1309 25 16.2603 24.9728 16.38 24.92C16.5011 24.8691 16.6126 24.7981 16.71 24.71C16.75 24.66 16.79 24.61 16.83 24.55C16.8697 24.499 16.9002 24.4415 16.92 24.38C16.9487 24.3232 16.9689 24.2626 16.98 24.2C16.9915 24.1339 16.9982 24.0671 17 24C16.9977 23.933 16.991 23.8662 16.98 23.8C16.9689 23.7374 16.9487 23.6768 16.92 23.62V23.62ZM14.71 7.29C14.5694 7.15124 14.3908 7.05725 14.1968 7.01987C14.0028 6.9825 13.8021 7.00342 13.62 7.08C13.4976 7.12823 13.3855 7.19952 13.29 7.29C13.1017 7.4783 12.9959 7.7337 12.9959 8C12.9959 8.2663 13.1017 8.5217 13.29 8.71C13.4783 8.8983 13.7337 9.00409 14 9.00409C14.2663 9.00409 14.5217 8.8983 14.71 8.71C14.75 8.66 14.79 8.61 14.83 8.55C14.8697 8.49903 14.9002 8.44149 14.92 8.38C14.9487 8.32325 14.9689 8.2626 14.98 8.2C14.9915 8.13391 14.9982 8.06706 15 8C14.9961 7.73527 14.8926 7.48174 14.71 7.29V7.29Z" fill="#F46B5B"/>
<path d="M22 4H10C9.73478 4 9.48043 4.10536 9.29289 4.29289C9.10536 4.48043 9 4.73478 9 5V27C9 27.2652 9.10536 27.5196 9.29289 27.7071C9.48043 27.8946 9.73478 28 10 28H22C22.2652 28 22.5196 27.8946 22.7071 27.7071C22.8946 27.5196 23 27.2652 23 27V5C23 4.73478 22.8946 4.48043 22.7071 4.29289C22.5196 4.10536 22.2652 4 22 4V4ZM11 6H21V20H11V6ZM11 26V22H21V26H11Z" fill="#383838"/>
</svg>
