<svg width="128" height="32" viewBox="0 0 128 32" fill="none" xmlns="http://www.w3.org/2000/svg">
<path d="M123.25 9.47233C123.02 9.21422 122.764 8.98021 122.486 8.77393C122.6 7.88073 122.521 6.97348 122.255 6.11331C121.989 5.25314 121.541 4.46003 120.943 3.78743C119.497 2.15853 117.034 1.33301 113.62 1.33301H105.334C104.736 1.3346 104.157 1.54894 103.702 1.93773C103.247 2.32652 102.945 2.86444 102.85 3.45541L99.3969 25.3304C99.3481 25.6236 99.3638 25.9239 99.4429 26.2105C99.522 26.497 99.6626 26.7628 99.855 26.9894C100.047 27.216 100.287 27.3979 100.557 27.5225C100.827 27.647 101.12 27.7112 101.418 27.7106H104.97L104.861 28.4046C104.816 28.6838 104.833 28.9692 104.91 29.2413C104.987 29.5133 105.121 29.7655 105.305 29.9805C105.488 30.1954 105.716 30.368 105.973 30.4864C106.23 30.6049 106.509 30.6662 106.791 30.6663H111.104C111.663 30.6708 112.205 30.476 112.632 30.1168C113.06 29.7576 113.346 29.2577 113.439 28.7067L114.293 23.3317L114.307 23.2588H114.706C120.082 23.2588 123.44 20.6012 124.419 15.5752C124.718 14.5377 124.768 13.4443 124.564 12.3839C124.361 11.3235 123.911 10.326 123.25 9.47233V9.47233ZM106.457 18.2718L105.504 24.3188L105.389 25.0439H102.142L105.463 3.99967H113.62C116.2 3.99967 118.043 4.53874 118.943 5.55175C119.367 6.04555 119.663 6.63657 119.805 7.27234C119.946 7.90811 119.928 8.56896 119.753 9.19621L119.728 9.34586C119.712 9.44783 119.697 9.54745 119.67 9.67415C119.413 11.5794 118.461 13.3224 116.997 14.5682C115.353 15.7113 113.372 16.267 111.374 16.1455H108.943C108.342 16.1435 107.761 16.357 107.305 16.7473C106.849 17.1375 106.548 17.6784 106.457 18.2718V18.2718ZM121.802 15.0648C121.068 18.8356 118.812 20.5921 114.706 20.5921H114.061C113.502 20.5878 112.959 20.7832 112.531 21.1431C112.103 21.5031 111.818 22.004 111.726 22.5557L110.86 27.988L107.624 27.9997L108.261 23.9545L109.076 18.8174H111.368C111.577 18.8174 111.762 18.786 111.966 18.7788C112.444 18.7623 112.921 18.7439 113.369 18.6883C113.643 18.6542 113.894 18.592 114.156 18.5434C114.52 18.4762 114.883 18.4098 115.225 18.315C115.478 18.2444 115.715 18.1534 115.957 18.0675C116.276 17.9543 116.59 17.8355 116.887 17.696C117.111 17.5905 117.324 17.4732 117.536 17.3529C117.817 17.1936 118.089 17.0192 118.352 16.8306C118.542 16.6938 118.728 16.5535 118.905 16.4026C119.157 16.1858 119.396 15.9548 119.621 15.7108C119.772 15.55 119.926 15.394 120.066 15.2211C120.297 14.9262 120.511 14.6178 120.706 14.2976C120.808 14.1347 120.921 13.9839 121.015 13.8125C121.285 13.3183 121.517 12.8042 121.709 12.2748C121.72 12.243 121.737 12.2161 121.748 12.1841C121.754 12.1692 121.761 12.1567 121.767 12.1416C122.031 13.0966 122.043 14.1037 121.802 15.0648V15.0648Z" fill="#383838"/>
<path d="M20.353 7.03223C18.8246 7.03162 17.3218 7.42422 15.989 8.17229C14.6238 7.40924 13.0828 7.01639 11.5189 7.03273C9.95504 7.04907 8.42259 7.47401 7.07362 8.26542C5.72465 9.05682 4.60604 10.1872 3.82877 11.5443C3.0515 12.9015 2.64258 14.4383 2.64258 16.0023C2.64258 17.5663 3.0515 19.1031 3.82877 20.4602C4.60604 21.8174 5.72465 22.9478 7.07362 23.7392C8.42259 24.5306 9.95504 24.9555 11.5189 24.9719C13.0828 24.9882 14.6238 24.5953 15.989 23.8323C17.1856 24.4993 18.519 24.8832 19.887 24.9548C21.255 25.0263 22.6212 24.7834 23.8807 24.2448C25.1403 23.7063 26.2597 22.8863 27.1531 21.8478C28.0465 20.8094 28.6901 19.58 29.0345 18.2542C29.3789 16.9283 29.4149 15.5412 29.1399 14.1992C28.8648 12.8572 28.286 11.5961 27.4478 10.5126C26.6096 9.42912 25.5343 8.55208 24.3044 7.94878C23.0746 7.34548 21.7228 7.03196 20.353 7.03229V7.03223ZM13.6496 21.9423C12.9996 22.1749 12.3154 22.2977 11.6251 22.3057C9.95335 22.3057 8.35005 21.6416 7.16794 20.4595C5.98583 19.2774 5.32172 17.6741 5.32172 16.0023C5.32172 14.3306 5.98583 12.7273 7.16794 11.5452C8.35005 10.363 9.95335 9.69893 11.6251 9.69893C12.3154 9.70691 12.9996 9.82972 13.6496 10.0623C12.1898 11.6965 11.3829 13.8111 11.3829 16.0023C11.3829 18.1936 12.1898 20.3081 13.6496 21.9423V21.9423ZM15.989 20.5325C15.3761 19.9478 14.8882 19.2449 14.5548 18.4662C14.2215 17.6876 14.0496 16.8493 14.0496 16.0023C14.0496 15.1552 14.2215 14.317 14.5548 13.5383C14.8882 12.7597 15.3761 12.0567 15.989 11.4721C16.602 12.0567 17.0899 12.7597 17.4232 13.5383C17.7566 14.317 17.9285 15.1552 17.9285 16.0023C17.9285 16.8493 17.7566 17.6876 17.4232 18.4662C17.0899 19.2449 16.602 19.9478 15.989 20.5325V20.5325ZM20.353 22.3057C19.6627 22.2977 18.9785 22.1749 18.3285 21.9423C19.7883 20.3081 20.5951 18.1936 20.5951 16.0023C20.5951 13.8111 19.7883 11.6965 18.3285 10.0623C18.9785 9.82972 19.6627 9.70691 20.353 9.69893C22.0247 9.69893 23.628 10.363 24.8101 11.5452C25.9923 12.7273 26.6564 14.3306 26.6564 16.0023C26.6564 17.6741 25.9923 19.2774 24.8101 20.4595C23.628 21.6416 22.0247 22.3057 20.353 22.3057V22.3057Z" fill="#383838"/>
<path d="M60 10.667L54.0213 21.3337H50.6667V13.3337C50.6453 12.071 50.2987 11.487 49.3333 10.667H53.3333V17.3337L57.3333 10.667H60ZM61.312 10.667L57.3427 21.3337H60L64 10.667H61.312ZM76.6667 21.3337L76.708 19.2097L73.6667 19.167L72.604 21.3337H70.3227L76 10.667H78.6667L79.396 21.3337H76.6667ZM76.6667 13.375L74.6667 17.3337H76.6453L76.6667 13.375V13.375ZM67.444 12.9723C68.2453 10.971 70.6667 12.9177 71 13.1123C71.2773 12.6963 71.7507 12.0297 72 11.6683C71.056 10.5843 67.2427 9.52833 65.3053 11.919C62 16.003 68.8053 17.1977 67.6107 18.835C66.8413 19.8897 64.7773 19.723 63.2773 18.723C63.0547 19.1403 62.36 20.3897 62.36 20.3897C63.5827 21.1977 64.4987 21.335 65.7773 21.335C67.056 21.335 69.5907 21.1337 70.3227 18.6403C71.3893 15.0003 66.556 15.195 67.444 12.9723V12.9723ZM48 6.66699H80V8.00033H48V6.66699ZM48 24.0003H80V25.3337H48V24.0003Z" fill="#383838"/>
</svg>
