<svg width="56" height="56" viewBox="0 0 56 56" fill="none" xmlns="http://www.w3.org/2000/svg">
<path d="M36.75 35H35C34.5359 35 34.0908 35.1844 33.7626 35.5126C33.4344 35.8408 33.25 36.2859 33.25 36.75C33.25 37.2141 33.4344 37.6592 33.7626 37.9874C34.0908 38.3156 34.5359 38.5 35 38.5H36.75C37.2141 38.5 37.6592 38.3156 37.9874 37.9874C38.3156 37.6592 38.5 37.2141 38.5 36.75C38.5 36.2859 38.3156 35.8408 37.9874 35.5126C37.6592 35.1844 37.2141 35 36.75 35ZM36.75 40.25H35C34.5359 40.25 34.0908 40.4344 33.7626 40.7626C33.4344 41.0908 33.25 41.5359 33.25 42C33.25 42.4641 33.4344 42.9092 33.7626 43.2374C34.0908 43.5656 34.5359 43.75 35 43.75H36.75C37.2141 43.75 37.6592 43.5656 37.9874 43.2374C38.3156 42.9092 38.5 42.4641 38.5 42C38.5 41.5359 38.3156 41.0908 37.9874 40.7626C37.6592 40.4344 37.2141 40.25 36.75 40.25ZM36.75 29.75H35C34.5359 29.75 34.0908 29.9344 33.7626 30.2626C33.4344 30.5908 33.25 31.0359 33.25 31.5C33.25 31.9641 33.4344 32.4092 33.7626 32.7374C34.0908 33.0656 34.5359 33.25 35 33.25H36.75C37.2141 33.25 37.6592 33.0656 37.9874 32.7374C38.3156 32.4092 38.5 31.9641 38.5 31.5C38.5 31.0359 38.3156 30.5908 37.9874 30.2626C37.6592 29.9344 37.2141 29.75 36.75 29.75ZM43.75 35H42C41.5359 35 41.0908 35.1844 40.7626 35.5126C40.4344 35.8408 40.25 36.2859 40.25 36.75C40.25 37.2141 40.4344 37.6592 40.7626 37.9874C41.0908 38.3156 41.5359 38.5 42 38.5H43.75C44.2141 38.5 44.6592 38.3156 44.9874 37.9874C45.3156 37.6592 45.5 37.2141 45.5 36.75C45.5 36.2859 45.3156 35.8408 44.9874 35.5126C44.6592 35.1844 44.2141 35 43.75 35ZM43.75 40.25H42C41.5359 40.25 41.0908 40.4344 40.7626 40.7626C40.4344 41.0908 40.25 41.5359 40.25 42C40.25 42.4641 40.4344 42.9092 40.7626 43.2374C41.0908 43.5656 41.5359 43.75 42 43.75H43.75C44.2141 43.75 44.6592 43.5656 44.9874 43.2374C45.3156 42.9092 45.5 42.4641 45.5 42C45.5 41.5359 45.3156 41.0908 44.9874 40.7626C44.6592 40.4344 44.2141 40.25 43.75 40.25ZM40.25 31.5C40.25 31.9641 40.4344 32.4092 40.7626 32.7374C41.0908 33.0656 41.5359 33.25 42 33.25H43.75C44.2141 33.25 44.6592 33.0656 44.9874 32.7374C45.3156 32.4092 45.5 31.9641 45.5 31.5C45.5 31.0359 45.3156 30.5908 44.9874 30.2626C44.6592 29.9344 44.2141 29.75 43.75 29.75H42C41.5359 29.75 41.0908 29.9344 40.7626 30.2626C40.4344 30.5908 40.25 31.0359 40.25 31.5ZM28 36.75H21C20.5359 36.75 20.0908 36.9344 19.7626 37.2626C19.4344 37.5908 19.25 38.0359 19.25 38.5C19.25 38.9641 19.4344 39.4092 19.7626 39.7374C20.0908 40.0656 20.5359 40.25 21 40.25H28C28.4641 40.25 28.9092 40.0656 29.2374 39.7374C29.5656 39.4092 29.75 38.9641 29.75 38.5C29.75 38.0359 29.5656 37.5908 29.2374 37.2626C28.9092 36.9344 28.4641 36.75 28 36.75ZM15.75 36.75H14C13.5359 36.75 13.0908 36.9344 12.7626 37.2626C12.4344 37.5908 12.25 38.0359 12.25 38.5C12.25 38.9641 12.4344 39.4092 12.7626 39.7374C13.0908 40.0656 13.5359 40.25 14 40.25H15.75C16.2141 40.25 16.6592 40.0656 16.9874 39.7374C17.3156 39.4092 17.5 38.9641 17.5 38.5C17.5 38.0359 17.3156 37.5908 16.9874 37.2626C16.6592 36.9344 16.2141 36.75 15.75 36.75ZM42 28C42 27.5359 41.8156 27.0908 41.4874 26.7626C41.1592 26.4344 40.7141 26.25 40.25 26.25H38.5C38.0359 26.25 37.5908 26.4344 37.2626 26.7626C36.9344 27.0908 36.75 27.5359 36.75 28C36.75 28.4641 36.9344 28.9092 37.2626 29.2374C37.5908 29.5656 38.0359 29.75 38.5 29.75H40.25C40.7141 29.75 41.1592 29.5656 41.4874 29.2374C41.8156 28.9092 42 28.4641 42 28Z" fill="#F46B5B"/>
<path d="M47.25 7H8.75C8.28587 7 7.84075 7.18437 7.51256 7.51256C7.18437 7.84075 7 8.28587 7 8.75V45.5C7 45.9641 7.18437 46.4092 7.51256 46.7374C7.84075 47.0656 8.28587 47.25 8.75 47.25H47.25C47.7141 47.25 48.1592 47.0656 48.4874 46.7374C48.8156 46.4092 49 45.9641 49 45.5V8.75C49 8.28587 48.8156 7.84075 48.4874 7.51256C48.1592 7.18437 47.7141 7 47.25 7V7ZM10.5 10.5H45.5V21H33.25C32.7859 21 32.3408 21.1844 32.0126 21.5126C31.6844 21.8408 31.5 22.2859 31.5 22.75V31.5H10.5V10.5ZM10.5 35H31.5V43.75H10.5V35ZM45.5 43.75H35V24.5H45.5V43.75Z" fill="#383838"/>
</svg>
