<svg width="32" height="32" viewBox="0 0 32 32" fill="none" xmlns="http://www.w3.org/2000/svg">
<path d="M20.0001 15.9998C20.0011 16.1752 19.9675 16.3492 19.9011 16.5116C19.8348 16.6741 19.737 16.8218 19.6134 16.9464L14.2801 22.2798C14.029 22.5308 13.6885 22.6719 13.3334 22.6719C12.9783 22.6719 12.6378 22.5308 12.3868 22.2798C12.1357 22.0287 11.9946 21.6882 11.9946 21.3331C11.9946 20.978 12.1357 20.6375 12.3868 20.3864L16.7868 15.9998L12.4001 11.6131C12.1816 11.358 12.0675 11.0299 12.0805 10.6943C12.0934 10.3588 12.2325 10.0405 12.47 9.803C12.7075 9.56554 13.0258 9.42643 13.3613 9.41347C13.6969 9.40051 14.025 9.51465 14.2801 9.73309L19.6134 15.0664C19.8597 15.3148 19.9986 15.65 20.0001 15.9998Z" fill="#383838"/>
</svg>
