<svg width="72" height="24" viewBox="0 0 72 24" fill="none" xmlns="http://www.w3.org/2000/svg">
<path d="M5.32031 2.29688H1.66406V5.95312H5.32031V2.29688Z" fill="#F46B5B"/>
<path d="M5.32031 5.47264C4.25156 5.47264 3.18516 5.47264 2.11641 5.47264C1.96641 5.47264 1.81406 5.47264 1.66406 5.47264C1.82109 5.62968 1.97578 5.78436 2.13281 5.94139C2.13281 4.87265 2.13281 3.80624 2.13281 2.7375C2.13281 2.5875 2.13281 2.43515 2.13281 2.28515C1.97578 2.44219 1.82109 2.59687 1.66406 2.7539C2.73281 2.7539 3.79922 2.7539 4.86797 2.7539C5.01797 2.7539 5.17031 2.7539 5.32031 2.7539C5.16328 2.59687 5.00859 2.44219 4.85156 2.28515C4.85156 3.3539 4.85156 4.4203 4.85156 5.48905C4.85156 5.63905 4.85156 5.79139 4.85156 5.94139C4.85156 6.18749 5.06719 6.42186 5.32031 6.41014C5.57344 6.39842 5.78906 6.20389 5.78906 5.94139C5.78906 4.87265 5.78906 3.80624 5.78906 2.7375C5.78906 2.5875 5.78906 2.43515 5.78906 2.28515C5.78906 2.03203 5.57344 1.81641 5.32031 1.81641C4.25156 1.81641 3.18516 1.81641 2.11641 1.81641C1.96641 1.81641 1.81406 1.81641 1.66406 1.81641C1.41094 1.81641 1.19531 2.03203 1.19531 2.28515C1.19531 3.3539 1.19531 4.4203 1.19531 5.48905C1.19531 5.63905 1.19531 5.79139 1.19531 5.94139C1.19531 6.19452 1.41094 6.41014 1.66406 6.41014C2.73281 6.41014 3.79922 6.41014 4.86797 6.41014C5.01797 6.41014 5.17031 6.41014 5.32031 6.41014C5.56641 6.41014 5.80078 6.19452 5.78906 5.94139C5.77734 5.68827 5.58281 5.47264 5.32031 5.47264Z" fill="#F46B5B"/>
<path d="M5.32031 10.1953H1.66406V13.8516H5.32031V10.1953Z" fill="#F46B5B"/>
<path d="M5.32031 13.3711C4.25156 13.3711 3.18516 13.3711 2.11641 13.3711C1.96641 13.3711 1.81406 13.3711 1.66406 13.3711C1.82109 13.5281 1.97578 13.6828 2.13281 13.8398C2.13281 12.7711 2.13281 11.7047 2.13281 10.6359C2.13281 10.4859 2.13281 10.3336 2.13281 10.1836C1.97578 10.3406 1.82109 10.4953 1.66406 10.6523C2.73281 10.6523 3.79922 10.6523 4.86797 10.6523C5.01797 10.6523 5.17031 10.6523 5.32031 10.6523C5.16328 10.4953 5.00859 10.3406 4.85156 10.1836C4.85156 11.2523 4.85156 12.3187 4.85156 13.3875C4.85156 13.5375 4.85156 13.6898 4.85156 13.8398C4.85156 14.0859 5.06719 14.3203 5.32031 14.3086C5.57344 14.2969 5.78906 14.1023 5.78906 13.8398C5.78906 12.7711 5.78906 11.7047 5.78906 10.6359C5.78906 10.4859 5.78906 10.3336 5.78906 10.1836C5.78906 9.93047 5.57344 9.71484 5.32031 9.71484C4.25156 9.71484 3.18516 9.71484 2.11641 9.71484C1.96641 9.71484 1.81406 9.71484 1.66406 9.71484C1.41094 9.71484 1.19531 9.93047 1.19531 10.1836C1.19531 11.2523 1.19531 12.3187 1.19531 13.3875C1.19531 13.5375 1.19531 13.6898 1.19531 13.8398C1.19531 14.093 1.41094 14.3086 1.66406 14.3086C2.73281 14.3086 3.79922 14.3086 4.86797 14.3086C5.01797 14.3086 5.17031 14.3086 5.32031 14.3086C5.56641 14.3086 5.80078 14.093 5.78906 13.8398C5.77734 13.5867 5.58281 13.3711 5.32031 13.3711Z" fill="#F46B5B"/>
<path d="M5.32031 18.0703H1.66406V21.7266H5.32031V18.0703Z" fill="#F46B5B"/>
<path d="M5.32031 21.2461C4.25156 21.2461 3.18516 21.2461 2.11641 21.2461C1.96641 21.2461 1.81406 21.2461 1.66406 21.2461C1.82109 21.4031 1.97578 21.5578 2.13281 21.7148C2.13281 20.6461 2.13281 19.5797 2.13281 18.5109C2.13281 18.3609 2.13281 18.2086 2.13281 18.0586C1.97578 18.2156 1.82109 18.3703 1.66406 18.5273C2.73281 18.5273 3.79922 18.5273 4.86797 18.5273C5.01797 18.5273 5.17031 18.5273 5.32031 18.5273C5.16328 18.3703 5.00859 18.2156 4.85156 18.0586C4.85156 19.1273 4.85156 20.1937 4.85156 21.2625C4.85156 21.4125 4.85156 21.5648 4.85156 21.7148C4.85156 21.9609 5.06719 22.1953 5.32031 22.1836C5.57344 22.1719 5.78906 21.9773 5.78906 21.7148C5.78906 20.6461 5.78906 19.5797 5.78906 18.5109C5.78906 18.3609 5.78906 18.2086 5.78906 18.0586C5.78906 17.8055 5.57344 17.5898 5.32031 17.5898C4.25156 17.5898 3.18516 17.5898 2.11641 17.5898C1.96641 17.5898 1.81406 17.5898 1.66406 17.5898C1.41094 17.5898 1.19531 17.8055 1.19531 18.0586C1.19531 19.1273 1.19531 20.1937 1.19531 21.2625C1.19531 21.4125 1.19531 21.5648 1.19531 21.7148C1.19531 21.968 1.41094 22.1836 1.66406 22.1836C2.73281 22.1836 3.79922 22.1836 4.86797 22.1836C5.01797 22.1836 5.17031 22.1836 5.32031 22.1836C5.56641 22.1836 5.80078 21.968 5.78906 21.7148C5.77734 21.4617 5.58281 21.2461 5.32031 21.2461Z" fill="#F46B5B"/>
<path d="M22.3359 2.29688H7.61719V5.95312H22.3359V2.29688Z" fill="#F46B5B"/>
<path d="M22.3359 5.47395C21.8484 5.47395 21.3586 5.47395 20.8711 5.47395C19.6992 5.47395 18.525 5.47395 17.3531 5.47395C15.9352 5.47395 14.5172 5.47395 13.0969 5.47395C11.8711 5.47395 10.6453 5.47395 9.42188 5.47395C8.83125 5.47395 8.23594 5.4552 7.64297 5.47395C7.63359 5.47395 7.62656 5.47395 7.61719 5.47395C7.77422 5.63098 7.92891 5.78566 8.08594 5.9427C8.08594 4.87395 8.08594 3.80755 8.08594 2.7388C8.08594 2.5888 8.08594 2.43646 8.08594 2.28646C7.92891 2.44349 7.77422 2.59817 7.61719 2.75521C8.10469 2.75521 8.59453 2.75521 9.08203 2.75521C10.2539 2.75521 11.4281 2.75521 12.6 2.75521C14.018 2.75521 15.4359 2.75521 16.8563 2.75521C18.082 2.75521 19.3078 2.75521 20.5312 2.75521C21.1219 2.75521 21.7172 2.77396 22.3102 2.75521C22.3195 2.75521 22.3266 2.75521 22.3359 2.75521C22.1789 2.59817 22.0242 2.44349 21.8672 2.28646C21.8672 3.3552 21.8672 4.42161 21.8672 5.49035C21.8672 5.64035 21.8672 5.7927 21.8672 5.9427C21.8672 6.18879 22.0828 6.42316 22.3359 6.41144C22.5891 6.39972 22.8047 6.20519 22.8047 5.9427C22.8047 4.87395 22.8047 3.80755 22.8047 2.7388C22.8047 2.5888 22.8047 2.43646 22.8047 2.28646C22.8047 2.03333 22.5891 1.81771 22.3359 1.81771C21.8484 1.81771 21.3586 1.81771 20.8711 1.81771C19.6992 1.81771 18.525 1.81771 17.3531 1.81771C15.9352 1.81771 14.5172 1.81771 13.0969 1.81771C11.8711 1.81771 10.6453 1.81771 9.42188 1.81771C8.82891 1.81771 8.23594 1.80599 7.64297 1.81771C7.63359 1.81771 7.62656 1.81771 7.61719 1.81771C7.36406 1.81771 7.14844 2.03333 7.14844 2.28646C7.14844 3.3552 7.14844 4.42161 7.14844 5.49035C7.14844 5.64035 7.14844 5.7927 7.14844 5.9427C7.14844 6.19582 7.36406 6.41144 7.61719 6.41144C8.10469 6.41144 8.59453 6.41144 9.08203 6.41144C10.2539 6.41144 11.4281 6.41144 12.6 6.41144C14.018 6.41144 15.4359 6.41144 16.8563 6.41144C18.082 6.41144 19.3078 6.41144 20.5312 6.41144C21.1242 6.41144 21.7172 6.42316 22.3102 6.41144C22.3195 6.41144 22.3266 6.41144 22.3359 6.41144C22.582 6.41144 22.8164 6.19582 22.8047 5.9427C22.793 5.68957 22.5984 5.47395 22.3359 5.47395Z" fill="#F46B5B"/>
<path d="M22.3359 10.1953H7.61719V13.8516H22.3359V10.1953Z" fill="#F46B5B"/>
<path d="M22.3359 13.3724C21.8484 13.3724 21.3586 13.3724 20.8711 13.3724C19.6992 13.3724 18.525 13.3724 17.3531 13.3724C15.9352 13.3724 14.5172 13.3724 13.0969 13.3724C11.8711 13.3724 10.6453 13.3724 9.42188 13.3724C8.83125 13.3724 8.23594 13.3536 7.64297 13.3724C7.63359 13.3724 7.62656 13.3724 7.61719 13.3724C7.77422 13.5294 7.92891 13.6841 8.08594 13.8411C8.08594 12.7724 8.08594 11.706 8.08594 10.6372C8.08594 10.4872 8.08594 10.3349 8.08594 10.1849C7.92891 10.3419 7.77422 10.4966 7.61719 10.6536C8.10469 10.6536 8.59453 10.6536 9.08203 10.6536C10.2539 10.6536 11.4281 10.6536 12.6 10.6536C14.018 10.6536 15.4359 10.6536 16.8563 10.6536C18.082 10.6536 19.3078 10.6536 20.5312 10.6536C21.1219 10.6536 21.7172 10.6724 22.3102 10.6536C22.3195 10.6536 22.3266 10.6536 22.3359 10.6536C22.1789 10.4966 22.0242 10.3419 21.8672 10.1849C21.8672 11.2536 21.8672 12.32 21.8672 13.3888C21.8672 13.5388 21.8672 13.6911 21.8672 13.8411C21.8672 14.0872 22.0828 14.3216 22.3359 14.3099C22.5891 14.2982 22.8047 14.1036 22.8047 13.8411C22.8047 12.7724 22.8047 11.706 22.8047 10.6372C22.8047 10.4872 22.8047 10.3349 22.8047 10.1849C22.8047 9.93177 22.5891 9.71615 22.3359 9.71615C21.8484 9.71615 21.3586 9.71615 20.8711 9.71615C19.6992 9.71615 18.525 9.71615 17.3531 9.71615C15.9352 9.71615 14.5172 9.71615 13.0969 9.71615C11.8711 9.71615 10.6453 9.71615 9.42188 9.71615C8.82891 9.71615 8.23594 9.70443 7.64297 9.71615C7.63359 9.71615 7.62656 9.71615 7.61719 9.71615C7.36406 9.71615 7.14844 9.93177 7.14844 10.1849C7.14844 11.2536 7.14844 12.32 7.14844 13.3888C7.14844 13.5388 7.14844 13.6911 7.14844 13.8411C7.14844 14.0943 7.36406 14.3099 7.61719 14.3099C8.10469 14.3099 8.59453 14.3099 9.08203 14.3099C10.2539 14.3099 11.4281 14.3099 12.6 14.3099C14.018 14.3099 15.4359 14.3099 16.8563 14.3099C18.082 14.3099 19.3078 14.3099 20.5312 14.3099C21.1242 14.3099 21.7172 14.3216 22.3102 14.3099C22.3195 14.3099 22.3266 14.3099 22.3359 14.3099C22.582 14.3099 22.8164 14.0943 22.8047 13.8411C22.793 13.588 22.5984 13.3724 22.3359 13.3724Z" fill="#F46B5B"/>
<path d="M22.3359 18.0703H7.61719V21.7266H22.3359V18.0703Z" fill="#F46B5B"/>
<path d="M22.3359 21.2474C21.8484 21.2474 21.3586 21.2474 20.8711 21.2474C19.6992 21.2474 18.525 21.2474 17.3531 21.2474C15.9352 21.2474 14.5172 21.2474 13.0969 21.2474C11.8711 21.2474 10.6453 21.2474 9.42188 21.2474C8.83125 21.2474 8.23594 21.2286 7.64297 21.2474C7.63359 21.2474 7.62656 21.2474 7.61719 21.2474C7.77422 21.4044 7.92891 21.5591 8.08594 21.7161C8.08594 20.6474 8.08594 19.581 8.08594 18.5122C8.08594 18.3622 8.08594 18.2099 8.08594 18.0599C7.92891 18.2169 7.77422 18.3716 7.61719 18.5286C8.10469 18.5286 8.59453 18.5286 9.08203 18.5286C10.2539 18.5286 11.4281 18.5286 12.6 18.5286C14.018 18.5286 15.4359 18.5286 16.8563 18.5286C18.082 18.5286 19.3078 18.5286 20.5312 18.5286C21.1219 18.5286 21.7172 18.5474 22.3102 18.5286C22.3195 18.5286 22.3266 18.5286 22.3359 18.5286C22.1789 18.3716 22.0242 18.2169 21.8672 18.0599C21.8672 19.1286 21.8672 20.195 21.8672 21.2638C21.8672 21.4138 21.8672 21.5661 21.8672 21.7161C21.8672 21.9622 22.0828 22.1966 22.3359 22.1849C22.5891 22.1732 22.8047 21.9786 22.8047 21.7161C22.8047 20.6474 22.8047 19.581 22.8047 18.5122C22.8047 18.3622 22.8047 18.2099 22.8047 18.0599C22.8047 17.8068 22.5891 17.5911 22.3359 17.5911C21.8484 17.5911 21.3586 17.5911 20.8711 17.5911C19.6992 17.5911 18.525 17.5911 17.3531 17.5911C15.9352 17.5911 14.5172 17.5911 13.0969 17.5911C11.8711 17.5911 10.6453 17.5911 9.42188 17.5911C8.82891 17.5911 8.23594 17.5794 7.64297 17.5911C7.63359 17.5911 7.62656 17.5911 7.61719 17.5911C7.36406 17.5911 7.14844 17.8068 7.14844 18.0599C7.14844 19.1286 7.14844 20.195 7.14844 21.2638C7.14844 21.4138 7.14844 21.5661 7.14844 21.7161C7.14844 21.9693 7.36406 22.1849 7.61719 22.1849C8.10469 22.1849 8.59453 22.1849 9.08203 22.1849C10.2539 22.1849 11.4281 22.1849 12.6 22.1849C14.018 22.1849 15.4359 22.1849 16.8563 22.1849C18.082 22.1849 19.3078 22.1849 20.5312 22.1849C21.1242 22.1849 21.7172 22.1966 22.3102 22.1849C22.3195 22.1849 22.3266 22.1849 22.3359 22.1849C22.582 22.1849 22.8164 21.9693 22.8047 21.7161C22.793 21.463 22.5984 21.2474 22.3359 21.2474Z" fill="#F46B5B"/>
<path d="M50 3V11H59V2H51C50.4 2 50 2.4 50 3ZM69 2H61V11H70V3C70 2.4 69.6 2 69 2ZM61 22H69C69.6 22 70 21.6 70 21V13H61V22ZM50 21C50 21.6 50.4 22 51 22H59V13H50V21Z" fill="#A7A7A7"/>
</svg>
