<svg width="32" height="32" viewBox="0 0 32 32" fill="none" xmlns="http://www.w3.org/2000/svg">
<path d="M25.3334 9.33366H21.3334V8.00033C21.3334 6.58584 20.7715 5.22928 19.7713 4.22909C18.7711 3.2289 17.4145 2.66699 16 2.66699C14.5856 2.66699 13.229 3.2289 12.2288 4.22909C11.2286 5.22928 10.6667 6.58584 10.6667 8.00033V9.33366H6.66671C6.31309 9.33366 5.97395 9.47413 5.7239 9.72418C5.47385 9.97423 5.33337 10.3134 5.33337 10.667L5.33337 25.3337C5.33337 26.3945 5.7548 27.4119 6.50495 28.1621C7.25509 28.9122 8.27251 29.3337 9.33337 29.3337H22.6667C23.7276 29.3337 24.745 28.9122 25.4951 28.1621C26.2453 27.4119 26.6667 26.3945 26.6667 25.3337V10.667C26.6667 10.3134 26.5262 9.97423 26.2762 9.72418C26.0261 9.47413 25.687 9.33366 25.3334 9.33366ZM13.3334 8.00033C13.3334 7.29308 13.6143 6.6148 14.1144 6.11471C14.6145 5.61461 15.2928 5.33366 16 5.33366C16.7073 5.33366 17.3856 5.61461 17.8857 6.11471C18.3858 6.6148 18.6667 7.29308 18.6667 8.00033V9.33366H13.3334V8.00033ZM24 25.3337C24 25.6873 23.8596 26.0264 23.6095 26.2765C23.3595 26.5265 23.0203 26.667 22.6667 26.667H9.33337C8.97975 26.667 8.64061 26.5265 8.39057 26.2765C8.14052 26.0264 8.00004 25.6873 8.00004 25.3337L8.00004 12.0003H10.6667V13.3337C10.6667 13.6873 10.8072 14.0264 11.0572 14.2765C11.3073 14.5265 11.6464 14.667 12 14.667C12.3537 14.667 12.6928 14.5265 12.9428 14.2765C13.1929 14.0264 13.3334 13.6873 13.3334 13.3337V12.0003H18.6667V13.3337C18.6667 13.6873 18.8072 14.0264 19.0572 14.2765C19.3073 14.5265 19.6464 14.667 20 14.667C20.3537 14.667 20.6928 14.5265 20.9428 14.2765C21.1929 14.0264 21.3334 13.6873 21.3334 13.3337V12.0003H24V25.3337Z" fill="#383838"/>
</svg>
