<svg width="56" height="56" viewBox="0 0 56 56" fill="none" xmlns="http://www.w3.org/2000/svg">
<path d="M28 36.75C26.1435 36.75 24.363 36.0125 23.0503 34.6997C21.7375 33.387 21 31.6065 21 29.75V19.25C21 17.3935 21.7375 15.613 23.0503 14.3003C24.363 12.9875 26.1435 12.25 28 12.25C29.8565 12.25 31.637 12.9875 32.9497 14.3003C34.2625 15.613 35 17.3935 35 19.25V29.75C35 31.6065 34.2625 33.387 32.9497 34.6997C31.637 36.0125 29.8565 36.75 28 36.75ZM28 15.75C27.0717 15.75 26.1815 16.1187 25.5251 16.7751C24.8687 17.4315 24.5 18.3217 24.5 19.25V29.75C24.5 30.6783 24.8687 31.5685 25.5251 32.2249C26.1815 32.8813 27.0717 33.25 28 33.25C28.9283 33.25 29.8185 32.8813 30.4749 32.2249C31.1313 31.5685 31.5 30.6783 31.5 29.75V19.25C31.5 18.3217 31.1313 17.4315 30.4749 16.7751C29.8185 16.1187 28.9283 15.75 28 15.75V15.75Z" fill="#F46B5B"/>
<path d="M40.25 29.75V19.25C40.25 18.7859 40.0656 18.3408 39.7374 18.0126C39.4092 17.6844 38.9641 17.5 38.5 17.5C38.0359 17.5 37.5908 17.6844 37.2626 18.0126C36.9344 18.3408 36.75 18.7859 36.75 19.25V29.75C36.75 32.0706 35.8281 34.2962 34.1872 35.9372C32.5462 37.5781 30.3206 38.5 28 38.5C25.6794 38.5 23.4538 37.5781 21.8128 35.9372C20.1719 34.2962 19.25 32.0706 19.25 29.75V19.25C19.25 18.7859 19.0656 18.3408 18.7374 18.0126C18.4092 17.6844 17.9641 17.5 17.5 17.5C17.0359 17.5 16.5908 17.6844 16.2626 18.0126C15.9344 18.3408 15.75 18.7859 15.75 19.25V29.75C15.7553 32.6927 16.8189 35.5354 18.7467 37.7587C20.6745 39.9821 23.3377 41.4378 26.25 41.86V45.5H21C20.5359 45.5 20.0908 45.6844 19.7626 46.0126C19.4344 46.3408 19.25 46.7859 19.25 47.25C19.25 47.7141 19.4344 48.1592 19.7626 48.4874C20.0908 48.8156 20.5359 49 21 49H35C35.4641 49 35.9092 48.8156 36.2374 48.4874C36.5656 48.1592 36.75 47.7141 36.75 47.25C36.75 46.7859 36.5656 46.3408 36.2374 46.0126C35.9092 45.6844 35.4641 45.5 35 45.5H29.75V41.86C32.6623 41.4378 35.3255 39.9821 37.2533 37.7587C39.1811 35.5354 40.2447 32.6927 40.25 29.75V29.75Z" fill="#383838"/>
</svg>
