<svg width="80" height="80" viewBox="0 0 80 80" fill="none" xmlns="http://www.w3.org/2000/svg">
<path d="M50.5 61H29.5C29.0359 61 28.5908 60.8156 28.2626 60.4874C27.9344 60.1592 27.75 59.7141 27.75 59.25V20.75C27.75 20.2859 27.9344 19.8408 28.2626 19.5126C28.5908 19.1844 29.0359 19 29.5 19H50.5C50.9641 19 51.4092 19.1844 51.7374 19.5126C52.0656 19.8408 52.25 20.2859 52.25 20.75V59.25C52.25 59.7141 52.0656 60.1592 51.7374 60.4874C51.4092 60.8156 50.9641 61 50.5 61ZM31.25 57.5H48.75V22.5H31.25V57.5Z" fill="#383838"/>
<path d="M40 38.25C41.3845 38.25 42.7379 37.8395 43.889 37.0703C45.0401 36.3011 45.9373 35.2079 46.4672 33.9288C46.997 32.6497 47.1356 31.2422 46.8655 29.8844C46.5954 28.5265 45.9287 27.2792 44.9498 26.3003C43.9708 25.3213 42.7235 24.6546 41.3656 24.3845C40.0078 24.1144 38.6003 24.253 37.3212 24.7828C36.0421 25.3127 34.9489 26.2099 34.1797 27.361C33.4105 28.5122 33 29.8655 33 31.25C33 33.1065 33.7375 34.887 35.0503 36.1998C36.363 37.5125 38.1435 38.25 40 38.25ZM40 27.75C40.6922 27.75 41.3689 27.9553 41.9445 28.3399C42.5201 28.7244 42.9687 29.2711 43.2336 29.9106C43.4985 30.5502 43.5678 31.2539 43.4328 31.9328C43.2977 32.6118 42.9644 33.2354 42.4749 33.7249C41.9854 34.2144 41.3618 34.5477 40.6828 34.6828C40.0039 34.8178 39.3002 34.7485 38.6606 34.4836C38.0211 34.2187 37.4744 33.7701 37.0899 33.1945C36.7053 32.6189 36.5 31.9422 36.5 31.25C36.5 30.3217 36.8688 29.4315 37.5251 28.7751C38.1815 28.1188 39.0717 27.75 40 27.75V27.75ZM40 40C38.6155 40 37.2622 40.4106 36.111 41.1797C34.9599 41.9489 34.0627 43.0421 33.5328 44.3212C33.003 45.6003 32.8644 47.0078 33.1345 48.3656C33.4046 49.7235 34.0713 50.9708 35.0503 51.9498C36.0292 52.9287 37.2765 53.5954 38.6344 53.8655C39.9922 54.1356 41.3997 53.997 42.6788 53.4672C43.9579 52.9374 45.0511 52.0401 45.8203 50.889C46.5895 49.7379 47 48.3845 47 47C47 45.1435 46.2625 43.363 44.9498 42.0503C43.637 40.7375 41.8565 40 40 40V40ZM40 50.5C39.3078 50.5 38.6311 50.2947 38.0555 49.9102C37.4799 49.5256 37.0313 48.9789 36.7664 48.3394C36.5015 47.6999 36.4322 46.9961 36.5673 46.3172C36.7023 45.6383 37.0356 45.0146 37.5251 44.5251C38.0146 44.0357 38.6383 43.7023 39.3172 43.5673C39.9961 43.4322 40.6999 43.5015 41.3394 43.7664C41.9789 44.0313 42.5256 44.4799 42.9101 45.0555C43.2947 45.6311 43.5 46.3078 43.5 47C43.5 47.9283 43.1313 48.8185 42.4749 49.4749C41.8185 50.1313 40.9283 50.5 40 50.5V50.5Z" fill="#F46B5B"/>
<rect x="1" y="1" width="78" height="78" rx="11" stroke="#A7A7A7" stroke-width="2"/>
</svg>
