<svg width="216" height="56" viewBox="0 0 216 56" fill="none" xmlns="http://www.w3.org/2000/svg">
<rect opacity="0.5" width="56" height="56" rx="8" fill="#F46B5B"/>
<path d="M36.8999 17.0997C36.5044 17.0997 36.1177 17.217 35.7888 17.4367C35.4599 17.6565 35.2035 17.9689 35.0522 18.3343C34.9008 18.6998 34.8612 19.1019 34.9383 19.4899C35.0155 19.8778 35.206 20.2342 35.4857 20.5139C35.7654 20.7936 36.1218 20.9841 36.5097 21.0612C36.8977 21.1384 37.2998 21.0988 37.6653 20.9474C38.0307 20.7961 38.3431 20.5397 38.5629 20.2108C38.7826 19.8819 38.8999 19.4952 38.8999 19.0997C38.8999 18.5692 38.6892 18.0605 38.3141 17.6855C37.9391 17.3104 37.4304 17.0997 36.8999 17.0997V17.0997ZM44.5666 21.133C44.5342 19.7502 44.2752 18.382 43.7999 17.083C43.3761 15.9716 42.7166 14.9651 41.8666 14.133C41.0413 13.2787 40.0325 12.6233 38.9166 12.2163C37.621 11.7266 36.2513 11.4617 34.8666 11.433C33.0999 11.333 32.5333 11.333 27.9999 11.333C23.4666 11.333 22.8999 11.333 21.1333 11.433C19.7485 11.4617 18.3788 11.7266 17.0833 12.2163C15.9694 12.6274 14.9615 13.2823 14.1333 14.133C13.279 14.9583 12.6235 15.9671 12.2166 17.083C11.7269 18.3786 11.4619 19.7483 11.4333 21.133C11.3333 22.8997 11.3333 23.4663 11.3333 27.9997C11.3333 32.533 11.3333 33.0997 11.4333 34.8663C11.4619 36.2511 11.7269 37.6208 12.2166 38.9163C12.6235 40.0323 13.279 41.041 14.1333 41.8663C14.9615 42.7171 15.9694 43.3719 17.0833 43.783C18.3788 44.2727 19.7485 44.5377 21.1333 44.5663C22.8999 44.6663 23.4666 44.6663 27.9999 44.6663C32.5333 44.6663 33.0999 44.6663 34.8666 44.5663C36.2513 44.5377 37.621 44.2727 38.9166 43.783C40.0325 43.376 41.0413 42.7206 41.8666 41.8663C42.7203 41.0373 43.3805 40.03 43.7999 38.9163C44.2752 37.6173 44.5342 36.2492 44.5666 34.8663C44.5666 33.0997 44.6666 32.533 44.6666 27.9997C44.6666 23.4663 44.6666 22.8997 44.5666 21.133V21.133ZM41.5666 34.6663C41.5545 35.7243 41.3628 36.7725 40.9999 37.7663C40.7338 38.4917 40.3064 39.147 39.7499 39.683C39.2093 40.2339 38.5553 40.6604 37.8333 40.933C36.8394 41.2959 35.7912 41.4875 34.7333 41.4997C33.0666 41.583 32.4499 41.5997 28.0666 41.5997C23.6833 41.5997 23.0666 41.5997 21.3999 41.4997C20.3014 41.5202 19.2076 41.3511 18.1666 40.9997C17.4762 40.7131 16.8522 40.2877 16.3333 39.7497C15.7801 39.2143 15.358 38.5583 15.0999 37.833C14.693 36.8249 14.4673 35.7529 14.4333 34.6663C14.4333 32.9997 14.3333 32.383 14.3333 27.9997C14.3333 23.6163 14.3333 22.9997 14.4333 21.333C14.4407 20.2514 14.6382 19.1796 15.0166 18.1663C15.31 17.4629 15.7604 16.8358 16.3333 16.333C16.8396 15.76 17.4654 15.3048 18.1666 14.9997C19.1825 14.6331 20.2532 14.4415 21.3333 14.433C22.9999 14.433 23.6166 14.333 27.9999 14.333C32.3833 14.333 32.9999 14.333 34.6666 14.433C35.7245 14.4451 36.7728 14.6368 37.7666 14.9997C38.524 15.2808 39.2037 15.7378 39.7499 16.333C40.2961 16.845 40.7229 17.4709 40.9999 18.1663C41.3703 19.1812 41.5621 20.2526 41.5666 21.333C41.6499 22.9997 41.6666 23.6163 41.6666 27.9997C41.6666 32.383 41.6499 32.9997 41.5666 34.6663ZM27.9999 19.4497C26.3096 19.453 24.6582 19.9572 23.2543 20.8987C21.8505 21.8402 20.7572 23.1767 20.1126 24.7393C19.4681 26.3019 19.3011 28.0205 19.6329 29.6779C19.9647 31.3353 20.7803 32.8572 21.9767 34.0513C23.1731 35.2454 24.6966 36.058 26.3547 36.3866C28.0128 36.7151 29.731 36.5449 31.2924 35.8972C32.8537 35.2496 34.188 34.1537 35.1268 32.7481C36.0656 31.3424 36.5666 29.69 36.5666 27.9997C36.5688 26.8748 36.3486 25.7607 35.9187 24.7213C35.4887 23.6819 34.8575 22.7377 34.0614 21.9431C33.2652 21.1485 32.3198 20.5191 31.2796 20.0912C30.2393 19.6633 29.1247 19.4453 27.9999 19.4497V19.4497ZM27.9999 33.5497C26.9022 33.5497 25.8292 33.2242 24.9165 32.6143C24.0038 32.0045 23.2925 31.1377 22.8724 30.1236C22.4523 29.1094 22.3424 27.9935 22.5566 26.9169C22.7707 25.8403 23.2993 24.8514 24.0755 24.0752C24.8517 23.2991 25.8406 22.7705 26.9172 22.5563C27.9938 22.3422 29.1097 22.4521 30.1238 22.8721C31.1379 23.2922 32.0047 24.0036 32.6146 24.9163C33.2244 25.829 33.5499 26.902 33.5499 27.9997C33.5499 28.7285 33.4064 29.4502 33.1275 30.1236C32.8485 30.7969 32.4397 31.4088 31.9244 31.9241C31.409 32.4395 30.7972 32.8483 30.1238 33.1272C29.4505 33.4061 28.7288 33.5497 27.9999 33.5497V33.5497Z" fill="#FAFAFA"/>
<rect opacity="0.5" x="80" width="56" height="56" rx="8" fill="#F46B5B"/>
<path d="M102.183 41.3332H102.05C99.3638 41.3097 96.7166 40.6892 94.2999 39.5165C93.8554 39.3077 93.4893 38.9621 93.2554 38.5302C93.0215 38.0984 92.932 37.603 92.9999 37.1165C93.0738 36.6268 93.3006 36.173 93.6478 35.8198C93.995 35.4666 94.4449 35.2321 94.9332 35.1499C96.4309 34.9501 97.8717 34.4452 99.1666 33.6665C96.9185 31.9089 95.1878 29.5758 94.1579 26.9145C93.1281 24.2533 92.8373 21.3629 93.3166 18.5499C93.3816 18.1043 93.5732 17.6868 93.8687 17.347C94.1641 17.0072 94.551 16.7594 94.9832 16.6332C95.4038 16.5011 95.8538 16.4955 96.2775 16.617C96.7012 16.7385 97.0799 16.9817 97.3666 17.3165C98.3399 18.5928 99.5631 19.6575 100.961 20.4455C102.36 21.2335 103.904 21.7283 105.5 21.8999C105.576 19.9363 106.42 18.0811 107.85 16.7332C108.564 16.0495 109.407 15.5147 110.33 15.1601C111.252 14.8054 112.236 14.6379 113.225 14.6674C114.213 14.6968 115.185 14.9227 116.085 15.3317C116.985 15.7408 117.795 16.3248 118.467 17.0499C118.642 17.2047 118.859 17.3033 119.091 17.333C119.323 17.3627 119.558 17.3221 119.767 17.2165C120.164 17.0291 120.606 16.9586 121.042 17.0131C121.478 17.0677 121.89 17.2451 122.229 17.5246C122.568 17.8042 122.82 18.1743 122.957 18.592C123.093 19.0096 123.108 19.4574 123 19.8832C122.615 21.4667 121.887 22.9462 120.867 24.2165C120.642 28.9578 118.551 33.4178 115.051 36.6242C111.552 39.8306 106.926 41.5233 102.183 41.3332V41.3332ZM102.183 37.9999H102.317C104.254 38.0665 106.186 37.7478 108 37.0623C109.813 36.3768 111.473 35.3381 112.882 34.0063C114.292 32.6746 115.422 31.0764 116.209 29.3044C116.996 27.5323 117.424 25.6217 117.467 23.6832C117.494 23.152 117.713 22.6487 118.083 22.2665C118.49 21.7519 118.836 21.1928 119.117 20.5999C118.516 20.601 117.922 20.4754 117.374 20.2313C116.825 19.9872 116.334 19.63 115.933 19.1832C115.548 18.8008 115.089 18.4992 114.586 18.296C114.082 18.0928 113.543 17.9921 113 17.9999C112.451 17.9857 111.906 18.08 111.394 18.2773C110.882 18.4747 110.414 18.7712 110.017 19.1499C109.481 19.6582 109.088 20.2983 108.877 21.0061C108.667 21.714 108.646 22.4647 108.817 23.1832L109.25 25.0832L107.3 25.2165C105.302 25.3795 103.292 25.1061 101.41 24.4155C99.5279 23.7248 97.8184 22.6333 96.3999 21.2165C96.3391 23.4105 96.8879 25.5784 97.9854 27.4792C99.0829 29.3799 100.686 30.939 102.617 31.9832L104.2 32.8832L103.15 34.3832C102.014 35.8724 100.459 36.987 98.6832 37.5832C99.8221 37.8686 100.993 38.0087 102.167 37.9999H102.183Z" fill="#FAFAFA"/>
<rect opacity="0.5" x="160" width="56" height="56" rx="8" fill="#F46B5B"/>
<path d="M202.833 11.333H173.167C172.68 11.333 172.214 11.5262 171.87 11.87C171.526 12.2138 171.333 12.6801 171.333 13.1663V42.833C171.333 43.0738 171.381 43.3122 171.473 43.5346C171.565 43.757 171.7 43.9591 171.87 44.1294C172.04 44.2996 172.243 44.4347 172.465 44.5268C172.687 44.6189 172.926 44.6663 173.167 44.6663H189.133V31.7497H184.8V26.7497H189.133V22.9997C189.043 22.1193 189.147 21.2299 189.438 20.3939C189.728 19.5579 190.198 18.7956 190.814 18.1604C191.43 17.5251 192.178 17.0324 193.005 16.7167C193.831 16.4011 194.717 16.2701 195.6 16.333C196.897 16.325 198.194 16.3918 199.483 16.533V21.033H196.833C194.733 21.033 194.333 22.033 194.333 23.483V26.6997H199.333L198.683 31.6997H194.333V44.6663H202.833C203.074 44.6663 203.312 44.6189 203.535 44.5268C203.757 44.4347 203.959 44.2996 204.13 44.1294C204.3 43.9591 204.435 43.757 204.527 43.5346C204.619 43.3122 204.667 43.0738 204.667 42.833V13.1663C204.667 12.9256 204.619 12.6872 204.527 12.4648C204.435 12.2423 204.3 12.0402 204.13 11.87C203.959 11.6997 203.757 11.5647 203.535 11.4726C203.312 11.3804 203.074 11.333 202.833 11.333V11.333Z" fill="#FAFAFA"/>
</svg>
