<svg width="32" height="32" viewBox="0 0 32 32" fill="none" xmlns="http://www.w3.org/2000/svg">
<path d="M25.3337 5.33398H6.66699C5.60613 5.33398 4.58871 5.75541 3.83857 6.50556C3.08842 7.2557 2.66699 8.27312 2.66699 9.33398V22.6673C2.66699 23.7282 3.08842 24.7456 3.83857 25.4957C4.58871 26.2459 5.60613 26.6673 6.66699 26.6673H25.3337C26.3945 26.6673 27.4119 26.2459 28.1621 25.4957C28.9122 24.7456 29.3337 23.7282 29.3337 22.6673V9.33398C29.3337 8.27312 28.9122 7.2557 28.1621 6.50556C27.4119 5.75541 26.3945 5.33398 25.3337 5.33398V5.33398ZM24.5697 8.00065L16.8003 14.4007C16.5783 14.5696 16.3086 14.6641 16.0297 14.6708C15.7508 14.6775 15.4769 14.596 15.247 14.438L7.43099 8.00065H24.5697ZM25.3337 24.0006H6.66699C6.31337 24.0006 5.97423 23.8602 5.72418 23.6101C5.47413 23.3601 5.33366 23.0209 5.33366 22.6673V9.73398L13.6003 16.534C14.2882 17.0491 15.1249 17.3266 15.9843 17.3247C16.8737 17.3233 17.7386 17.0327 18.4483 16.4967L26.667 9.73398V22.6673C26.667 23.0209 26.5265 23.3601 26.2765 23.6101C26.0264 23.8602 25.6873 24.0006 25.3337 24.0006Z" fill="#383838"/>
</svg>
