<svg width="192" height="24" viewBox="0 0 192 24" fill="none" xmlns="http://www.w3.org/2000/svg">
<path d="M17.34 5.46C17.1027 5.46 16.8707 5.53038 16.6733 5.66224C16.476 5.79409 16.3222 5.98151 16.2313 6.20078C16.1405 6.42005 16.1168 6.66133 16.1631 6.89411C16.2094 7.12689 16.3236 7.34071 16.4915 7.50853C16.6593 7.67635 16.8731 7.79064 17.1059 7.83694C17.3387 7.88324 17.5799 7.85948 17.7992 7.76866C18.0185 7.67783 18.2059 7.52402 18.3378 7.32668C18.4696 7.12935 18.54 6.89734 18.54 6.66C18.54 6.34174 18.4136 6.03652 18.1885 5.81147C17.9635 5.58643 17.6583 5.46 17.34 5.46V5.46ZM21.94 7.88C21.9206 7.0503 21.7652 6.2294 21.48 5.45C21.2257 4.78313 20.83 4.17928 20.32 3.68C19.8248 3.16743 19.2196 2.77418 18.55 2.53C17.7727 2.23616 16.9508 2.07721 16.12 2.06C15.06 2 14.72 2 12 2C9.28 2 8.94 2 7.88 2.06C7.04915 2.07721 6.22734 2.23616 5.45 2.53C4.78168 2.77665 4.17693 3.16956 3.68 3.68C3.16743 4.17518 2.77418 4.78044 2.53 5.45C2.23616 6.22734 2.07721 7.04915 2.06 7.88C2 8.94 2 9.28 2 12C2 14.72 2 15.06 2.06 16.12C2.07721 16.9508 2.23616 17.7727 2.53 18.55C2.77418 19.2196 3.16743 19.8248 3.68 20.32C4.17693 20.8304 4.78168 21.2234 5.45 21.47C6.22734 21.7638 7.04915 21.9228 7.88 21.94C8.94 22 9.28 22 12 22C14.72 22 15.06 22 16.12 21.94C16.9508 21.9228 17.7727 21.7638 18.55 21.47C19.2196 21.2258 19.8248 20.8326 20.32 20.32C20.8322 19.8226 21.2283 19.2182 21.48 18.55C21.7652 17.7706 21.9206 16.9497 21.94 16.12C21.94 15.06 22 14.72 22 12C22 9.28 22 8.94 21.94 7.88V7.88ZM20.14 16C20.1327 16.6348 20.0178 17.2637 19.8 17.86C19.6403 18.2952 19.3839 18.6884 19.05 19.01C18.7256 19.3405 18.3332 19.5964 17.9 19.76C17.3037 19.9778 16.6748 20.0927 16.04 20.1C15.04 20.15 14.67 20.16 12.04 20.16C9.41 20.16 9.04 20.16 8.04 20.1C7.38089 20.1123 6.72459 20.0109 6.1 19.8C5.68578 19.6281 5.31136 19.3728 5 19.05C4.66809 18.7287 4.41484 18.3352 4.26 17.9C4.01586 17.2952 3.88044 16.6519 3.86 16C3.86 15 3.8 14.63 3.8 12C3.8 9.37 3.8 9 3.86 8C3.86448 7.35106 3.98295 6.70795 4.21 6.1C4.38605 5.67791 4.65626 5.30166 5 5C5.30381 4.65617 5.67929 4.3831 6.1 4.2C6.70955 3.98004 7.352 3.86508 8 3.86C9 3.86 9.37 3.8 12 3.8C14.63 3.8 15 3.8 16 3.86C16.6348 3.86728 17.2637 3.98225 17.86 4.2C18.3144 4.36865 18.7223 4.64285 19.05 5C19.3777 5.30718 19.6338 5.68273 19.8 6.1C20.0223 6.70893 20.1373 7.35178 20.14 8C20.19 9 20.2 9.37 20.2 12C20.2 14.63 20.19 15 20.14 16ZM12 6.87C10.9858 6.87198 9.99496 7.17453 9.15265 7.73942C8.31035 8.30431 7.65438 9.1062 7.26763 10.0438C6.88089 10.9813 6.78072 12.0125 6.97979 13.0069C7.17886 14.0014 7.66824 14.9145 8.38608 15.631C9.10392 16.3474 10.018 16.835 11.0129 17.0321C12.0077 17.2293 13.0387 17.1271 13.9755 16.7385C14.9123 16.35 15.7129 15.6924 16.2761 14.849C16.8394 14.0056 17.14 13.0142 17.14 12C17.1413 11.3251 17.0092 10.6566 16.7512 10.033C16.4933 9.40931 16.1146 8.84281 15.6369 8.36605C15.1592 7.88929 14.5919 7.51168 13.9678 7.25493C13.3436 6.99818 12.6749 6.86736 12 6.87V6.87ZM12 15.33C11.3414 15.33 10.6976 15.1347 10.15 14.7688C9.60234 14.4029 9.17552 13.8828 8.92348 13.2743C8.67144 12.6659 8.6055 11.9963 8.73398 11.3503C8.86247 10.7044 9.17963 10.111 9.64533 9.64533C10.111 9.17963 10.7044 8.86247 11.3503 8.73398C11.9963 8.6055 12.6659 8.67144 13.2743 8.92348C13.8828 9.17552 14.4029 9.60234 14.7688 10.15C15.1347 10.6976 15.33 11.3414 15.33 12C15.33 12.4373 15.2439 12.8703 15.0765 13.2743C14.9092 13.6784 14.6639 14.0454 14.3547 14.3547C14.0454 14.6639 13.6784 14.9092 13.2743 15.0765C12.8703 15.2439 12.4373 15.33 12 15.33V15.33Z" fill="#A7A7A7"/>
<path d="M76.9 2H59.1C58.8083 2 58.5285 2.11589 58.3222 2.32218C58.1159 2.52847 58 2.80826 58 3.1V20.9C58 21.0445 58.0285 21.1875 58.0837 21.321C58.139 21.4544 58.22 21.5757 58.3222 21.6778C58.4243 21.78 58.5456 21.861 58.679 21.9163C58.8125 21.9715 58.9555 22 59.1 22H68.68V14.25H66.08V11.25H68.68V9C68.6261 8.47176 68.6885 7.93813 68.8627 7.43654C69.0369 6.93495 69.3188 6.47755 69.6885 6.09641C70.0582 5.71528 70.5068 5.41964 71.0028 5.23024C71.4989 5.04083 72.0304 4.96225 72.56 5C73.3383 4.99521 74.1163 5.03528 74.89 5.12V7.82H73.3C72.04 7.82 71.8 8.42 71.8 9.29V11.22H74.8L74.41 14.22H71.8V22H76.9C77.0445 22 77.1875 21.9715 77.321 21.9163C77.4544 21.861 77.5757 21.78 77.6778 21.6778C77.78 21.5757 77.861 21.4544 77.9163 21.321C77.9715 21.1875 78 21.0445 78 20.9V3.1C78 2.95555 77.9715 2.81251 77.9163 2.67905C77.861 2.54559 77.78 2.42433 77.6778 2.32218C77.5757 2.22004 77.4544 2.13901 77.321 2.08373C77.1875 2.02845 77.0445 2 76.9 2V2Z" fill="#A7A7A7"/>
<path d="M135.062 5.13281C134.247 5.49375 133.375 5.7375 132.456 5.85C133.394 5.2875 134.116 4.39687 134.453 3.3375C133.577 3.85781 132.606 4.2375 131.57 4.43906C130.741 3.55312 129.559 3 128.256 3C125.748 3 123.719 5.03437 123.719 7.54219C123.719 7.89844 123.756 8.24531 123.836 8.57812C120.062 8.39062 116.716 6.58125 114.48 3.82969C114.091 4.5 113.866 5.28281 113.866 6.1125C113.866 7.6875 114.672 9.07969 115.891 9.89531C115.141 9.87656 114.437 9.67031 113.828 9.32812V9.38437C113.828 11.5875 115.394 13.4203 117.47 13.8375C117.091 13.9406 116.687 13.9969 116.275 13.9969C115.984 13.9969 115.698 13.9687 115.422 13.9125C115.998 15.7172 117.677 17.0297 119.664 17.0672C118.112 18.2859 116.153 19.0125 114.025 19.0125C113.659 19.0125 113.298 18.9891 112.942 18.9469C114.944 20.25 117.33 21 119.889 21C128.247 21 132.812 14.0766 132.812 8.07187C132.812 7.875 132.808 7.67812 132.798 7.48594C133.684 6.84375 134.453 6.04688 135.062 5.13281Z" fill="#A7A7A7"/>
<path d="M189.09 1.3457H170.682C169.8 1.3457 169.086 2.03834 169.086 2.89322V21.3975C169.086 22.2523 169.8 22.9457 170.682 22.9457H189.09C189.972 22.9457 190.685 22.2521 190.685 21.3975V2.89322C190.685 2.03858 189.972 1.3457 189.09 1.3457V1.3457ZM175.634 19.4263H172.371V9.67418H175.634V19.4263V19.4263ZM174.003 8.34194H173.981C172.886 8.34194 172.177 7.59338 172.177 6.65642C172.177 5.7005 172.907 4.97234 174.023 4.97234C175.139 4.97234 175.826 5.70026 175.848 6.65642C175.848 7.59362 175.14 8.34194 174.003 8.34194V8.34194ZM187.398 19.4263H184.136V14.2087C184.136 12.8974 183.663 12.0029 182.483 12.0029C181.581 12.0029 181.045 12.6065 180.81 13.189C180.722 13.3973 180.701 13.6882 180.701 13.9791V19.4261H177.439C177.439 19.4261 177.482 10.5886 177.439 9.67394H180.701V11.0566C181.134 10.3923 181.908 9.4445 183.641 9.4445C185.788 9.4445 187.398 10.8375 187.398 13.8343V19.4263V19.4263ZM180.68 11.0875C180.686 11.0784 180.694 11.0674 180.701 11.0568V11.0875H180.68Z" fill="#A7A7A7"/>
</svg>
