<svg width="32" height="32" viewBox="0 0 32 32" fill="none" xmlns="http://www.w3.org/2000/svg">
<path d="M25.3335 9.33268H21.3335V7.99935C21.3335 6.58486 20.7716 5.22831 19.7714 4.22811C18.7712 3.22792 17.4147 2.66602 16.0002 2.66602C14.5857 2.66602 13.2291 3.22792 12.2289 4.22811C11.2287 5.22831 10.6668 6.58486 10.6668 7.99935V9.33268H6.66683C6.31321 9.33268 5.97407 9.47316 5.72402 9.72321C5.47397 9.97325 5.3335 10.3124 5.3335 10.666L5.3335 25.3327C5.3335 26.3935 5.75492 27.411 6.50507 28.1611C7.25521 28.9113 8.27263 29.3327 9.3335 29.3327H22.6668C23.7277 29.3327 24.7451 28.9113 25.4953 28.1611C26.2454 27.411 26.6668 26.3935 26.6668 25.3327V10.666C26.6668 10.3124 26.5264 9.97325 26.2763 9.72321C26.0263 9.47316 25.6871 9.33268 25.3335 9.33268ZM13.3335 7.99935C13.3335 7.2921 13.6144 6.61383 14.1145 6.11373C14.6146 5.61363 15.2929 5.33268 16.0002 5.33268C16.7074 5.33268 17.3857 5.61363 17.8858 6.11373C18.3859 6.61383 18.6668 7.2921 18.6668 7.99935V9.33268H13.3335V7.99935ZM24.0002 25.3327C24.0002 25.6863 23.8597 26.0254 23.6096 26.2755C23.3596 26.5255 23.0205 26.666 22.6668 26.666H9.3335C8.97987 26.666 8.64074 26.5255 8.39069 26.2755C8.14064 26.0254 8.00016 25.6863 8.00016 25.3327L8.00016 11.9993H10.6668V13.3327C10.6668 13.6863 10.8073 14.0254 11.0574 14.2755C11.3074 14.5255 11.6465 14.666 12.0002 14.666C12.3538 14.666 12.6929 14.5255 12.943 14.2755C13.193 14.0254 13.3335 13.6863 13.3335 13.3327V11.9993H18.6668V13.3327C18.6668 13.6863 18.8073 14.0254 19.0574 14.2755C19.3074 14.5255 19.6465 14.666 20.0002 14.666C20.3538 14.666 20.6929 14.5255 20.943 14.2755C21.193 14.0254 21.3335 13.6863 21.3335 13.3327V11.9993H24.0002V25.3327Z" fill="#383838"/>
</svg>
