<svg width="24" height="24" viewBox="0 0 24 24" fill="none" xmlns="http://www.w3.org/2000/svg">
<path d="M9.00006 12.0002C8.9993 11.8686 9.02452 11.7381 9.07429 11.6163C9.12405 11.4944 9.19738 11.3836 9.29006 11.2902L13.2901 7.29019C13.4784 7.10188 13.7338 6.99609 14.0001 6.99609C14.2664 6.99609 14.5218 7.10188 14.7101 7.29019C14.8984 7.47849 15.0042 7.73388 15.0042 8.00019C15.0042 8.26649 14.8984 8.52188 14.7101 8.71019L11.4101 12.0002L14.7001 15.2902C14.8639 15.4815 14.9495 15.7276 14.9398 15.9792C14.93 16.2309 14.8257 16.4697 14.6476 16.6477C14.4695 16.8258 14.2308 16.9302 13.9791 16.9399C13.7274 16.9496 13.4814 16.864 13.2901 16.7002L9.29006 12.7002C9.10532 12.5139 9.00116 12.2625 9.00006 12.0002Z" fill="#A7A7A7"/>
</svg>
