<svg width="32" height="32" viewBox="0 0 32 32" fill="none" xmlns="http://www.w3.org/2000/svg">
<path d="M25.334 9.33366H21.334V8.00033C21.334 6.58584 20.7721 5.22928 19.7719 4.22909C18.7717 3.2289 17.4151 2.66699 16.0007 2.66699C14.5862 2.66699 13.2296 3.2289 12.2294 4.22909C11.2292 5.22928 10.6673 6.58584 10.6673 8.00033V9.33366H6.66732C6.3137 9.33366 5.97456 9.47413 5.72451 9.72418C5.47446 9.97423 5.33398 10.3134 5.33398 10.667L5.33398 25.3337C5.33398 26.3945 5.75541 27.4119 6.50556 28.1621C7.2557 28.9122 8.27312 29.3337 9.33398 29.3337H22.6673C23.7282 29.3337 24.7456 28.9122 25.4957 28.1621C26.2459 27.4119 26.6673 26.3945 26.6673 25.3337V10.667C26.6673 10.3134 26.5268 9.97423 26.2768 9.72418C26.0267 9.47413 25.6876 9.33366 25.334 9.33366ZM13.334 8.00033C13.334 7.29308 13.6149 6.6148 14.115 6.11471C14.6151 5.61461 15.2934 5.33366 16.0007 5.33366C16.7079 5.33366 17.3862 5.61461 17.8863 6.11471C18.3864 6.6148 18.6673 7.29308 18.6673 8.00033V9.33366H13.334V8.00033ZM24.0007 25.3337C24.0007 25.6873 23.8602 26.0264 23.6101 26.2765C23.3601 26.5265 23.0209 26.667 22.6673 26.667H9.33398C8.98036 26.667 8.64122 26.5265 8.39118 26.2765C8.14113 26.0264 8.00065 25.6873 8.00065 25.3337L8.00065 12.0003H10.6673V13.3337C10.6673 13.6873 10.8078 14.0264 11.0578 14.2765C11.3079 14.5265 11.647 14.667 12.0007 14.667C12.3543 14.667 12.6934 14.5265 12.9435 14.2765C13.1935 14.0264 13.334 13.6873 13.334 13.3337V12.0003H18.6673V13.3337C18.6673 13.6873 18.8078 14.0264 19.0578 14.2765C19.3079 14.5265 19.647 14.667 20.0007 14.667C20.3543 14.667 20.6934 14.5265 20.9435 14.2765C21.1935 14.0264 21.334 13.6873 21.334 13.3337V12.0003H24.0007V25.3337Z" fill="#383838"/>
</svg>
