<svg width="56" height="56" viewBox="0 0 56 56" fill="none" xmlns="http://www.w3.org/2000/svg">
<path d="M38.5 49H17.5C17.0359 49 16.5908 48.8156 16.2626 48.4874C15.9344 48.1592 15.75 47.7141 15.75 47.25V8.75C15.75 8.28587 15.9344 7.84075 16.2626 7.51256C16.5908 7.18437 17.0359 7 17.5 7H38.5C38.9641 7 39.4092 7.18437 39.7374 7.51256C40.0656 7.84075 40.25 8.28587 40.25 8.75V47.25C40.25 47.7141 40.0656 48.1592 39.7374 48.4874C39.4092 48.8156 38.9641 49 38.5 49ZM19.25 45.5H36.75V10.5H19.25V45.5Z" fill="#383838"/>
<path d="M28 26.25C29.3845 26.25 30.7379 25.8395 31.889 25.0703C33.0401 24.3011 33.9373 23.2079 34.4672 21.9288C34.997 20.6497 35.1356 19.2422 34.8655 17.8844C34.5954 16.5265 33.9287 15.2792 32.9498 14.3003C31.9708 13.3213 30.7235 12.6546 29.3656 12.3845C28.0078 12.1144 26.6003 12.253 25.3212 12.7828C24.0421 13.3127 22.9489 14.2099 22.1797 15.361C21.4105 16.5122 21 17.8655 21 19.25C21 21.1065 21.7375 22.887 23.0503 24.1998C24.363 25.5125 26.1435 26.25 28 26.25ZM28 15.75C28.6922 15.75 29.3689 15.9553 29.9445 16.3399C30.5201 16.7244 30.9687 17.2711 31.2336 17.9106C31.4985 18.5502 31.5678 19.2539 31.4328 19.9328C31.2977 20.6118 30.9644 21.2354 30.4749 21.7249C29.9854 22.2144 29.3618 22.5477 28.6828 22.6828C28.0039 22.8178 27.3002 22.7485 26.6606 22.4836C26.0211 22.2187 25.4744 21.7701 25.0899 21.1945C24.7053 20.6189 24.5 19.9422 24.5 19.25C24.5 18.3217 24.8688 17.4315 25.5251 16.7751C26.1815 16.1188 27.0717 15.75 28 15.75V15.75ZM28 28C26.6155 28 25.2622 28.4106 24.111 29.1797C22.9599 29.9489 22.0627 31.0421 21.5328 32.3212C21.003 33.6003 20.8644 35.0078 21.1345 36.3656C21.4046 37.7235 22.0713 38.9708 23.0503 39.9498C24.0292 40.9287 25.2765 41.5954 26.6344 41.8655C27.9922 42.1356 29.3997 41.997 30.6788 41.4672C31.9579 40.9374 33.0511 40.0401 33.8203 38.889C34.5895 37.7379 35 36.3845 35 35C35 33.1435 34.2625 31.363 32.9498 30.0503C31.637 28.7375 29.8565 28 28 28V28ZM28 38.5C27.3078 38.5 26.6311 38.2947 26.0555 37.9102C25.4799 37.5256 25.0313 36.9789 24.7664 36.3394C24.5015 35.6999 24.4322 34.9961 24.5673 34.3172C24.7023 33.6383 25.0356 33.0146 25.5251 32.5251C26.0146 32.0357 26.6383 31.7023 27.3172 31.5673C27.9961 31.4322 28.6999 31.5015 29.3394 31.7664C29.9789 32.0313 30.5256 32.4799 30.9101 33.0555C31.2947 33.6311 31.5 34.3078 31.5 35C31.5 35.9283 31.1313 36.8185 30.4749 37.4749C29.8185 38.1313 28.9283 38.5 28 38.5V38.5Z" fill="#F46B5B"/>
</svg>
