<svg width="32" height="32" viewBox="0 0 32 32" fill="none" xmlns="http://www.w3.org/2000/svg">
<path d="M25.632 5H6.368C5.74021 5.00079 5.13836 5.25053 4.69445 5.69445C4.25053 6.13836 4.00079 6.74021 4 7.368V20C4 20.2652 4.10536 20.5196 4.29289 20.7071C4.48043 20.8946 4.73478 21 5 21H27C27.2652 21 27.5196 20.8946 27.7071 20.7071C27.8946 20.5196 28 20.2652 28 20V7.368C27.9992 6.74021 27.7495 6.13836 27.3056 5.69445C26.8616 5.25053 26.2598 5.00079 25.632 5ZM26 19H6V7.368C6 7.31967 6.00952 7.27182 6.02801 7.22717C6.04651 7.18252 6.07361 7.14196 6.10778 7.10778C6.14196 7.07361 6.18252 7.04651 6.22717 7.02801C6.27182 7.00952 6.31967 7 6.368 7H25.632C25.6803 7 25.7282 7.00952 25.7728 7.02801C25.8175 7.04651 25.858 7.07361 25.8922 7.10778C25.9264 7.14196 25.9535 7.18252 25.972 7.22717C25.9905 7.27182 26 7.31967 26 7.368V19ZM27 22H5C4.73478 22 4.48043 22.1054 4.29289 22.2929C4.10536 22.4804 4 22.7348 4 23V23.888C4.00079 24.7129 4.32878 25.5039 4.91201 26.0873C5.49523 26.6707 6.28606 26.9989 7.111 27H24.889C25.7139 26.9989 26.5048 26.6707 27.088 26.0873C27.6712 25.5039 27.9992 24.7129 28 23.888V23C28 22.7348 27.8946 22.4804 27.7071 22.2929C27.5196 22.1054 27.2652 22 27 22ZM24.889 25H7.111C6.8357 24.9997 6.57031 24.8972 6.36619 24.7125C6.16207 24.5278 6.03373 24.2739 6.006 24H25.994C25.9663 24.2739 25.8379 24.5278 25.6338 24.7125C25.4297 24.8972 25.1643 24.9997 24.889 25Z" fill="#383838"/>
<path d="M18.414 13H19C19.2652 13 19.5196 12.8946 19.7071 12.7071C19.8946 12.5196 20 12.2652 20 12C20 11.7348 19.8946 11.4804 19.7071 11.2929C19.5196 11.1054 19.2652 11 19 11H16C15.7348 11 15.4804 11.1054 15.2929 11.2929C15.1054 11.4804 15 11.7348 15 12V15C15 15.2652 15.1054 15.5196 15.2929 15.7071C15.4804 15.8946 15.7348 16 16 16C16.2652 16 16.5196 15.8946 16.7071 15.7071C16.8946 15.5196 17 15.2652 17 15V14.414L18.293 15.707C18.4816 15.8892 18.7342 15.99 18.9964 15.9877C19.2586 15.9854 19.5094 15.8802 19.6948 15.6948C19.8802 15.5094 19.9854 15.2586 19.9877 14.9964C19.99 14.7342 19.8892 14.4816 19.707 14.293L18.414 13Z" fill="#F46B5B"/>
</svg>
