<svg width="216" height="56" viewBox="0 0 216 56" fill="none" xmlns="http://www.w3.org/2000/svg">
<rect opacity="0.5" width="56" height="56" rx="8" fill="#F46B5B"/>
<path d="M36.9007 17.1007C36.5051 17.1007 36.1184 17.2179 35.7895 17.4377C35.4606 17.6575 35.2043 17.9698 35.0529 18.3353C34.9015 18.7007 34.8619 19.1029 34.9391 19.4908C35.0163 19.8788 35.2067 20.2352 35.4864 20.5149C35.7661 20.7946 36.1225 20.9851 36.5105 21.0622C36.8984 21.1394 37.3006 21.0998 37.666 20.9484C38.0315 20.797 38.3438 20.5407 38.5636 20.2118C38.7834 19.8829 38.9007 19.4962 38.9007 19.1007C38.9007 18.5702 38.6899 18.0615 38.3149 17.6864C37.9398 17.3114 37.4311 17.1007 36.9007 17.1007V17.1007ZM44.5673 21.134C44.5349 19.7511 44.2759 18.383 43.8007 17.084C43.3769 15.9725 42.7173 14.9661 41.8673 14.134C41.042 13.2797 40.0333 12.6243 38.9173 12.2173C37.6217 11.7276 36.2521 11.4627 34.8673 11.434C33.1007 11.334 32.534 11.334 28.0007 11.334C23.4673 11.334 22.9007 11.334 21.134 11.434C19.7492 11.4627 18.3796 11.7276 17.084 12.2173C15.9701 12.6284 14.9622 13.2833 14.134 14.134C13.2797 14.9593 12.6243 15.9681 12.2173 17.084C11.7276 18.3796 11.4627 19.7492 11.434 21.134C11.334 22.9007 11.334 23.4673 11.334 28.0007C11.334 32.534 11.334 33.1007 11.434 34.8673C11.4627 36.2521 11.7276 37.6217 12.2173 38.9173C12.6243 40.0333 13.2797 41.042 14.134 41.8673C14.9622 42.7181 15.9701 43.3729 17.084 43.784C18.3796 44.2737 19.7492 44.5386 21.134 44.5673C22.9007 44.6673 23.4673 44.6673 28.0007 44.6673C32.534 44.6673 33.1007 44.6673 34.8673 44.5673C36.2521 44.5386 37.6217 44.2737 38.9173 43.784C40.0333 43.377 41.042 42.7216 41.8673 41.8673C42.7211 41.0383 43.3812 40.031 43.8007 38.9173C44.2759 37.6183 44.5349 36.2502 44.5673 34.8673C44.5673 33.1007 44.6673 32.534 44.6673 28.0007C44.6673 23.4673 44.6673 22.9007 44.5673 21.134V21.134ZM41.5673 34.6673C41.5552 35.7253 41.3636 36.7735 41.0007 37.7673C40.7345 38.4926 40.3071 39.148 39.7507 39.684C39.2101 40.2348 38.556 40.6614 37.834 40.934C36.8402 41.2969 35.7919 41.4885 34.734 41.5007C33.0673 41.584 32.4507 41.6007 28.0673 41.6007C23.684 41.6007 23.0673 41.6007 21.4007 41.5007C20.3021 41.5212 19.2083 41.3521 18.1673 41.0007C17.477 40.7141 16.8529 40.2886 16.334 39.7507C15.7808 39.2152 15.3587 38.5593 15.1007 37.834C14.6937 36.8259 14.4681 35.7539 14.434 34.6673C14.434 33.0007 14.334 32.384 14.334 28.0007C14.334 23.6173 14.334 23.0007 14.434 21.334C14.4415 20.2524 14.6389 19.1806 15.0173 18.1673C15.3107 17.4638 15.7611 16.8367 16.334 16.334C16.8403 15.7609 17.4661 15.3058 18.1673 15.0007C19.1832 14.6341 20.254 14.4425 21.334 14.434C23.0007 14.434 23.6173 14.334 28.0007 14.334C32.384 14.334 33.0007 14.334 34.6673 14.434C35.7253 14.4461 36.7735 14.6377 37.7673 15.0007C38.5247 15.2817 39.2045 15.7387 39.7507 16.334C40.2968 16.8459 40.7236 17.4719 41.0007 18.1673C41.3711 19.1822 41.5628 20.2536 41.5673 21.334C41.6507 23.0007 41.6673 23.6173 41.6673 28.0007C41.6673 32.384 41.6507 33.0007 41.5673 34.6673ZM28.0007 19.4507C26.3103 19.4539 24.6589 19.9582 23.2551 20.8997C21.8512 21.8412 20.7579 23.1776 20.1134 24.7402C19.4688 26.3028 19.3019 28.0214 19.6336 29.6789C19.9654 31.3363 20.781 32.8582 21.9774 34.0523C23.1738 35.2464 24.6973 36.059 26.3554 36.3876C28.0135 36.7161 29.7318 36.5458 31.2931 35.8982C32.8544 35.2506 34.1888 34.1547 35.1275 32.749C36.0663 31.3434 36.5673 29.691 36.5673 28.0007C36.5695 26.8758 36.3493 25.7617 35.9194 24.7222C35.4894 23.6828 34.8582 22.7387 34.0621 21.9441C33.266 21.1495 32.3206 20.5201 31.2803 20.0922C30.2401 19.6643 29.1255 19.4463 28.0007 19.4507V19.4507ZM28.0007 33.5507C26.903 33.5507 25.8299 33.2252 24.9172 32.6153C24.0045 32.0055 23.2932 31.1387 22.8731 30.1245C22.4531 29.1104 22.3431 27.9945 22.5573 26.9179C22.7714 25.8413 23.3 24.8524 24.0762 24.0762C24.8524 23.3 25.8413 22.7714 26.9179 22.5573C27.9945 22.3431 29.1104 22.4531 30.1245 22.8731C31.1387 23.2932 32.0055 24.0045 32.6153 24.9172C33.2252 25.8299 33.5507 26.903 33.5507 28.0007C33.5507 28.7295 33.4071 29.4512 33.1282 30.1245C32.8493 30.7979 32.4405 31.4097 31.9251 31.9251C31.4097 32.4405 30.7979 32.8493 30.1245 33.1282C29.4512 33.4071 28.7295 33.5507 28.0007 33.5507V33.5507Z" fill="#FAFAFA"/>
<rect opacity="0.5" x="80" width="56" height="56" rx="8" fill="#F46B5B"/>
<path d="M102.184 41.3332H102.051C99.3646 41.3097 96.7173 40.6892 94.3006 39.5165C93.8561 39.3077 93.4901 38.9621 93.2561 38.5302C93.0222 38.0984 92.9327 37.603 93.0006 37.1165C93.0745 36.6268 93.3013 36.173 93.6485 35.8198C93.9957 35.4666 94.4456 35.2321 94.934 35.1499C96.4317 34.9501 97.8725 34.4452 99.1673 33.6665C96.9192 31.9089 95.1886 29.5758 94.1587 26.9145C93.1288 24.2533 92.8381 21.3629 93.3173 18.5499C93.3823 18.1043 93.5739 17.6868 93.8694 17.347C94.1649 17.0072 94.5517 16.7594 94.984 16.6332C95.4045 16.5011 95.8546 16.4955 96.2783 16.617C96.702 16.7385 97.0806 16.9817 97.3673 17.3165C98.3406 18.5928 99.5638 19.6575 100.962 20.4455C102.361 21.2335 103.905 21.7283 105.501 21.8999C105.577 19.9363 106.421 18.0811 107.851 16.7332C108.565 16.0495 109.408 15.5147 110.33 15.1601C111.253 14.8054 112.237 14.6379 113.225 14.6674C114.213 14.6968 115.186 14.9227 116.086 15.3317C116.986 15.7408 117.795 16.3248 118.467 17.0499C118.642 17.2047 118.86 17.3033 119.092 17.333C119.323 17.3627 119.559 17.3221 119.767 17.2165C120.165 17.0291 120.607 16.9586 121.043 17.0131C121.479 17.0677 121.891 17.2451 122.23 17.5246C122.569 17.8042 122.821 18.1743 122.958 18.592C123.094 19.0096 123.109 19.4574 123.001 19.8832C122.616 21.4667 121.888 22.9462 120.867 24.2165C120.642 28.9578 118.552 33.4178 115.052 36.6242C111.552 39.8306 106.927 41.5233 102.184 41.3332V41.3332ZM102.184 37.9999H102.317C104.255 38.0665 106.187 37.7478 108.001 37.0623C109.814 36.3768 111.474 35.3381 112.883 34.0063C114.292 32.6746 115.423 31.0764 116.21 29.3044C116.997 27.5323 117.424 25.6217 117.467 23.6832C117.495 23.152 117.714 22.6487 118.084 22.2665C118.49 21.7519 118.837 21.1928 119.117 20.5999C118.517 20.601 117.923 20.4754 117.374 20.2313C116.826 19.9872 116.335 19.63 115.934 19.1832C115.548 18.8008 115.09 18.4992 114.587 18.296C114.083 18.0928 113.544 17.9921 113.001 17.9999C112.452 17.9857 111.906 18.08 111.394 18.2773C110.882 18.4747 110.414 18.7712 110.017 19.1499C109.482 19.6582 109.089 20.2983 108.878 21.0061C108.668 21.714 108.647 22.4647 108.817 23.1832L109.251 25.0832L107.301 25.2165C105.302 25.3795 103.293 25.1061 101.411 24.4155C99.5286 23.7248 97.8191 22.6333 96.4006 21.2165C96.3398 23.4105 96.8886 25.5784 97.9861 27.4792C99.0836 29.3799 100.687 30.939 102.617 31.9832L104.201 32.8832L103.151 34.3832C102.015 35.8724 100.459 36.987 98.684 37.5832C99.8228 37.8686 100.993 38.0087 102.167 37.9999H102.184Z" fill="#FAFAFA"/>
<rect opacity="0.5" x="160" width="56" height="56" rx="8" fill="#F46B5B"/>
<path d="M202.834 11.334H173.167C172.681 11.334 172.215 11.5271 171.871 11.871C171.527 12.2148 171.334 12.6811 171.334 13.1673V42.834C171.334 43.0747 171.381 43.3131 171.474 43.5356C171.566 43.758 171.701 43.9601 171.871 44.1303C172.041 44.3006 172.243 44.4356 172.466 44.5278C172.688 44.6199 172.927 44.6673 173.167 44.6673H189.134V31.7507H184.801V26.7507H189.134V23.0007C189.044 22.1202 189.148 21.2309 189.439 20.3949C189.729 19.5589 190.199 18.7966 190.815 18.1613C191.431 17.5261 192.179 17.0334 193.005 16.7177C193.832 16.402 194.718 16.2711 195.601 16.334C196.898 16.326 198.194 16.3928 199.484 16.534V21.034H196.834C194.734 21.034 194.334 22.034 194.334 23.484V26.7007H199.334L198.684 31.7007H194.334V44.6673H202.834C203.075 44.6673 203.313 44.6199 203.536 44.5278C203.758 44.4356 203.96 44.3006 204.13 44.1303C204.301 43.9601 204.436 43.758 204.528 43.5356C204.62 43.3131 204.667 43.0747 204.667 42.834V13.1673C204.667 12.9266 204.62 12.6882 204.528 12.4657C204.436 12.2433 204.301 12.0412 204.13 11.871C203.96 11.7007 203.758 11.5657 203.536 11.4735C203.313 11.3814 203.075 11.334 202.834 11.334V11.334Z" fill="#FAFAFA"/>
</svg>
