<svg width="32" height="32" viewBox="0 0 32 32" fill="none" xmlns="http://www.w3.org/2000/svg">
<g clip-path="url(#clip0_1074_67)">
<path d="M8.66602 25.333H3.66602C3.11402 25.333 2.66602 24.885 2.66602 24.333C2.66602 23.781 3.11402 23.333 3.66602 23.333H8.66602C9.21802 23.333 9.66602 23.781 9.66602 24.333C9.66602 24.885 9.21802 25.333 8.66602 25.333ZM18.666 25.333H13.9993C13.4473 25.333 12.9993 24.885 12.9993 24.333C12.9993 23.781 13.4473 23.333 13.9993 23.333H17.858L20.43 11.333H6.33268C5.78068 11.333 5.33268 10.885 5.33268 10.333C5.33268 9.78101 5.78068 9.33301 6.33268 9.33301H21.666C21.9687 9.33301 22.254 9.47034 22.4433 9.70367C22.634 9.93967 22.7073 10.2463 22.6433 10.5423L19.6433 24.5423C19.5447 25.0037 19.138 25.333 18.666 25.333V25.333Z" fill="#F46B5B"/>
<path d="M29.9993 25.333H28.666C28.114 25.333 27.666 24.885 27.666 24.333C27.666 23.781 28.114 23.333 28.666 23.333H29.1913L29.998 19.5663C29.9446 17.2223 28.022 15.333 25.666 15.333H21.6166L19.902 23.333H23.3326C23.8846 23.333 24.3326 23.781 24.3326 24.333C24.3326 24.885 23.8846 25.333 23.3326 25.333H18.666C18.3633 25.333 18.078 25.1957 17.8886 24.9623C17.698 24.7263 17.6246 24.4197 17.6886 24.1237L19.8313 14.1237C19.93 13.6623 20.3366 13.333 20.8086 13.333H25.666C29.158 13.333 31.9993 16.1743 31.9993 19.6663C31.9993 19.737 31.9926 19.8063 31.9766 19.8757L30.9766 24.5423C30.878 25.0037 30.4713 25.333 29.9993 25.333Z" fill="#F46B5B"/>
<path d="M26 28C24.1627 28 22.6667 26.5053 22.6667 24.6667C22.6667 22.828 24.1627 21.3333 26 21.3333C27.8373 21.3333 29.3333 22.828 29.3333 24.6667C29.3333 26.5053 27.8373 28 26 28ZM26 23.3333C25.2653 23.3333 24.6667 23.9307 24.6667 24.6667C24.6667 25.4027 25.2653 26 26 26C26.7347 26 27.3333 25.4027 27.3333 24.6667C27.3333 23.9307 26.7347 23.3333 26 23.3333ZM11.3333 28C9.496 28 8 26.5053 8 24.6667C8 22.828 9.496 21.3333 11.3333 21.3333C13.1707 21.3333 14.6667 22.828 14.6667 24.6667C14.6667 26.5053 13.1707 28 11.3333 28ZM11.3333 23.3333C10.5987 23.3333 10 23.9307 10 24.6667C10 25.4027 10.5987 26 11.3333 26C12.068 26 12.6667 25.4027 12.6667 24.6667C12.6667 23.9307 12.068 23.3333 11.3333 23.3333ZM8.33333 14H3.66667C3.11467 14 2.66667 13.552 2.66667 13C2.66667 12.448 3.11467 12 3.66667 12H8.33333C8.88533 12 9.33333 12.448 9.33333 13C9.33333 13.552 8.88533 14 8.33333 14ZM8.33333 18H2.33333C1.78133 18 1.33333 17.552 1.33333 17C1.33333 16.448 1.78133 16 2.33333 16H8.33333C8.88533 16 9.33333 16.448 9.33333 17C9.33333 17.552 8.88533 18 8.33333 18ZM8.33333 22H1C0.448 22 0 21.552 0 21C0 20.448 0.448 20 1 20H8.33333C8.88533 20 9.33333 20.448 9.33333 21C9.33333 21.552 8.88533 22 8.33333 22Z" fill="#F46B5B"/>
</g>
<defs>
<clipPath id="clip0_1074_67">
<rect width="32" height="32" fill="white"/>
</clipPath>
</defs>
</svg>
