<svg width="24" height="24" viewBox="0 0 24 24" fill="none" xmlns="http://www.w3.org/2000/svg">
<path d="M17.9999 7.125C17.9999 3.8175 15.3074 1.125 12 1.125C8.69245 1.125 5.99995 3.8175 5.99995 7.125C5.99995 10.4325 8.69245 13.125 12 13.125C15.3074 13.125 17.9999 10.4325 17.9999 7.125ZM8.24995 7.125C8.24995 5.055 9.92995 3.375 12 3.375C14.07 3.375 15.7499 5.055 15.7499 7.125C15.7499 9.195 14.07 10.875 12 10.875C9.92995 10.875 8.24995 9.195 8.24995 7.125ZM13.7999 14.625H10.2C6.26995 14.625 3.07495 17.82 3.07495 21.75C3.07495 22.3725 3.57745 22.875 4.19995 22.875H19.7999C20.4224 22.875 20.9249 22.3725 20.9249 21.75C20.9249 17.82 17.7299 14.625 13.7999 14.625ZM5.45245 20.625C5.96245 18.48 7.89745 16.875 10.2 16.875H13.7999C16.1024 16.875 18.0374 18.48 18.5474 20.625H5.45245Z" fill="#A7A7A7"/>
</svg>
