<svg width="56" height="56" viewBox="0 0 56 56" fill="none" xmlns="http://www.w3.org/2000/svg">
<path d="M33.2503 12.25H29.7503C29.2862 12.25 28.8411 12.4344 28.5129 12.7626C28.1847 13.0908 28.0003 13.5359 28.0003 14C28.0003 14.4641 28.1847 14.9092 28.5129 15.2374C28.8411 15.5656 29.2862 15.75 29.7503 15.75H33.2503C33.7145 15.75 34.1596 15.5656 34.4878 15.2374C34.816 14.9092 35.0003 14.4641 35.0003 14C35.0003 13.5359 34.816 13.0908 34.4878 12.7626C34.1596 12.4344 33.7145 12.25 33.2503 12.25ZM29.6103 41.335C29.5719 41.2235 29.5189 41.1176 29.4528 41.02L29.2428 40.7575C29.0754 40.5994 28.8794 40.4747 28.6653 40.39C28.2393 40.215 27.7614 40.215 27.3353 40.39C27.1233 40.4787 26.928 40.603 26.7578 40.7575C26.438 41.0929 26.2568 41.5367 26.2503 42C26.2531 42.1174 26.2648 42.2344 26.2853 42.35C26.3044 42.4597 26.3397 42.5658 26.3903 42.665C26.425 42.7726 26.4783 42.8733 26.5478 42.9625C26.6178 43.0675 26.6878 43.155 26.7578 43.2425C26.9282 43.3968 27.1234 43.521 27.3353 43.61C27.5449 43.7024 27.7713 43.7501 28.0003 43.7501C28.2293 43.7501 28.4558 43.7024 28.6653 43.61C28.8772 43.521 29.0724 43.3967 29.2428 43.2425C29.3128 43.155 29.3828 43.0675 29.4528 42.9625C29.5223 42.8733 29.5756 42.7726 29.6103 42.665C29.6605 42.5657 29.6959 42.4596 29.7153 42.35C29.7355 42.2343 29.7472 42.1174 29.7503 42C29.7463 41.8827 29.7346 41.7658 29.7153 41.65C29.6959 41.5404 29.6605 41.4343 29.6103 41.335V41.335ZM25.7428 12.7575C25.4967 12.5147 25.1842 12.3502 24.8447 12.2848C24.5053 12.2194 24.154 12.256 23.8353 12.39C23.6211 12.4744 23.425 12.5992 23.2578 12.7575C22.9283 13.087 22.7432 13.534 22.7432 14C22.7432 14.466 22.9283 14.913 23.2578 15.2425C23.5874 15.572 24.0343 15.7572 24.5003 15.7572C24.9664 15.7572 25.4133 15.572 25.7428 15.2425C25.8128 15.155 25.8828 15.0675 25.9528 14.9625C26.0223 14.8733 26.0756 14.7726 26.1103 14.665C26.1605 14.5657 26.1959 14.4596 26.2153 14.35C26.2355 14.2343 26.2472 14.1174 26.2503 14C26.2435 13.5367 26.0623 13.0931 25.7428 12.7575V12.7575Z" fill="#F46B5B"/>
<path d="M38.5 7H17.5C17.0359 7 16.5908 7.18437 16.2626 7.51256C15.9344 7.84075 15.75 8.28587 15.75 8.75V47.25C15.75 47.7141 15.9344 48.1592 16.2626 48.4874C16.5908 48.8156 17.0359 49 17.5 49H38.5C38.9641 49 39.4092 48.8156 39.7374 48.4874C40.0656 48.1592 40.25 47.7141 40.25 47.25V8.75C40.25 8.28587 40.0656 7.84075 39.7374 7.51256C39.4092 7.18437 38.9641 7 38.5 7V7ZM19.25 10.5H36.75V35H19.25V10.5ZM19.25 45.5V38.5H36.75V45.5H19.25Z" fill="#383838"/>
</svg>
