<svg width="32" height="32" viewBox="0 0 32 32" fill="none" xmlns="http://www.w3.org/2000/svg">
<path d="M25.3332 5.33301H6.6665C5.60564 5.33301 4.58822 5.75444 3.83808 6.50458C3.08793 7.25473 2.6665 8.27214 2.6665 9.33301V22.6663C2.6665 23.7272 3.08793 24.7446 3.83808 25.4948C4.58822 26.2449 5.60564 26.6663 6.6665 26.6663H25.3332C26.394 26.6663 27.4115 26.2449 28.1616 25.4948C28.9117 24.7446 29.3332 23.7272 29.3332 22.6663V9.33301C29.3332 8.27214 28.9117 7.25473 28.1616 6.50458C27.4115 5.75444 26.394 5.33301 25.3332 5.33301V5.33301ZM24.5692 7.99967L16.7998 14.3997C16.5778 14.5686 16.3081 14.6631 16.0292 14.6698C15.7503 14.6765 15.4764 14.5951 15.2465 14.437L7.4305 7.99967H24.5692ZM25.3332 23.9997H6.6665C6.31288 23.9997 5.97374 23.8592 5.7237 23.6092C5.47365 23.3591 5.33317 23.02 5.33317 22.6663V9.73301L13.5998 16.533C14.2877 17.0481 15.1245 17.3256 15.9838 17.3237C16.8733 17.3223 17.7381 17.0317 18.4478 16.4957L26.6665 9.73301V22.6663C26.6665 23.02 26.526 23.3591 26.276 23.6092C26.0259 23.8592 25.6868 23.9997 25.3332 23.9997Z" fill="#383838"/>
</svg>
