<svg width="96" height="96" viewBox="0 0 96 96" fill="none" xmlns="http://www.w3.org/2000/svg">
<path d="M50.3405 69.1008H22.1542C20.1134 69.1008 18.4619 70.7522 18.4619 72.7931C18.4619 74.834 20.1134 76.4854 22.1542 76.4854H50.3405C52.3814 76.4854 54.0328 74.834 54.0328 72.7931C54.0328 70.7522 52.3814 69.1008 50.3405 69.1008ZM50.3441 54.1585C43.6132 54.1535 49.4358 54.1484 22.1542 54.191C20.1134 54.191 18.4619 55.8424 18.4619 57.8833C18.4619 59.9241 20.1134 61.5756 22.1542 61.5756C22.5246 61.5751 52.367 61.5448 50.3405 61.5431C52.3778 61.5431 54.0328 59.8917 54.0328 57.8544C54.0328 55.8135 52.3814 54.1585 50.3441 54.1585ZM47.5352 19.4746L24.9415 19.4998C21.3682 19.5071 18.4619 22.4205 18.4619 25.9902V39.191C18.4619 42.7715 21.3718 45.6813 24.9523 45.6813H47.5424C51.123 45.6813 54.0328 42.7715 54.0328 39.191V25.965C54.0328 22.3845 51.1194 19.4746 47.5352 19.4746ZM46.6482 38.2967H25.8465V26.8845L46.6482 26.8592V38.2967V38.2967Z" fill="#FAFAFA"/>
<path d="M92.3078 20.8322C92.3078 12.3443 85.94 5.3094 77.8126 4.82262C75.5407 4.67436 23.3787 4.79279 19.1395 4.79377C10.6227 4.79377 3.69238 11.7241 3.69238 20.2409V84.1856C3.69238 88.0834 6.86185 91.2529 10.7597 91.2529H61.7345C65.6323 91.2529 68.8018 88.0834 68.8018 84.1856V51.1495H85.2405C89.1383 51.1495 92.3078 47.9801 92.3078 44.0822V20.8322ZM61.4171 83.8683H11.077V20.2409C11.077 15.795 14.6936 12.1784 19.1395 12.1784C24.462 12.1737 10.6843 12.1859 63.7032 12.1387C62.2207 14.5223 61.4171 17.6721 61.4171 20.2409V47.4572V83.8683ZM84.9232 43.7649H68.8018V20.2409C68.8018 15.3016 73.074 11.9248 77.3727 12.1928C81.5337 12.4452 84.9232 16.3178 84.9232 20.8322V43.7649Z" fill="#FAFAFA"/>
</svg>
