<svg width="32" height="32" viewBox="0 0 32 32" fill="none" xmlns="http://www.w3.org/2000/svg">
<path d="M22 28H10C9.73478 28 9.48043 27.8946 9.29289 27.7071C9.10536 27.5196 9 27.2652 9 27V5C9 4.73478 9.10536 4.48043 9.29289 4.29289C9.48043 4.10536 9.73478 4 10 4H22C22.2652 4 22.5196 4.10536 22.7071 4.29289C22.8946 4.48043 23 4.73478 23 5V27C23 27.2652 22.8946 27.5196 22.7071 27.7071C22.5196 27.8946 22.2652 28 22 28ZM11 26H21V6H11V26Z" fill="#383838"/>
<path d="M16 15C16.7911 15 17.5645 14.7654 18.2223 14.3259C18.8801 13.8864 19.3928 13.2616 19.6955 12.5307C19.9983 11.7998 20.0775 10.9956 19.9231 10.2196C19.7688 9.44372 19.3878 8.73098 18.8284 8.17157C18.269 7.61216 17.5563 7.2312 16.7804 7.07686C16.0044 6.92252 15.2002 7.00173 14.4693 7.30448C13.7384 7.60723 13.1136 8.11992 12.6741 8.77772C12.2346 9.43552 12 10.2089 12 11C12 12.0609 12.4214 13.0783 13.1716 13.8284C13.9217 14.5786 14.9391 15 16 15ZM16 9C16.3956 9 16.7822 9.1173 17.1111 9.33706C17.44 9.55683 17.6964 9.86918 17.8478 10.2346C17.9991 10.6001 18.0387 11.0022 17.9616 11.3902C17.8844 11.7781 17.6939 12.1345 17.4142 12.4142C17.1345 12.6939 16.7781 12.8844 16.3902 12.9616C16.0022 13.0387 15.6001 12.9991 15.2346 12.8478C14.8692 12.6964 14.5568 12.44 14.3371 12.1111C14.1173 11.7822 14 11.3956 14 11C14 10.4696 14.2107 9.96086 14.5858 9.58579C14.9609 9.21072 15.4696 9 16 9V9ZM16 16C15.2089 16 14.4355 16.2346 13.7777 16.6741C13.1199 17.1136 12.6072 17.7384 12.3045 18.4693C12.0017 19.2002 11.9225 20.0044 12.0769 20.7804C12.2312 21.5563 12.6122 22.269 13.1716 22.8284C13.731 23.3878 14.4437 23.7688 15.2196 23.9231C15.9956 24.0775 16.7998 23.9983 17.5307 23.6955C18.2616 23.3928 18.8864 22.8801 19.3259 22.2223C19.7654 21.5645 20 20.7911 20 20C20 18.9391 19.5786 17.9217 18.8284 17.1716C18.0783 16.4214 17.0609 16 16 16V16ZM16 22C15.6044 22 15.2178 21.8827 14.8889 21.6629C14.56 21.4432 14.3036 21.1308 14.1522 20.7654C14.0009 20.3999 13.9613 19.9978 14.0384 19.6098C14.1156 19.2219 14.3061 18.8655 14.5858 18.5858C14.8655 18.3061 15.2219 18.1156 15.6098 18.0384C15.9978 17.9613 16.3999 18.0009 16.7654 18.1522C17.1308 18.3036 17.4432 18.56 17.6629 18.8889C17.8827 19.2178 18 19.6044 18 20C18 20.5304 17.7893 21.0391 17.4142 21.4142C17.0391 21.7893 16.5304 22 16 22V22Z" fill="#F46B5B"/>
</svg>
