<svg width="128" height="32" viewBox="0 0 128 32" fill="none" xmlns="http://www.w3.org/2000/svg">
<path d="M123.249 9.4733C123.019 9.21519 122.763 8.98119 122.486 8.7749C122.6 7.88171 122.521 6.97446 122.255 6.11428C121.988 5.25411 121.541 4.46101 120.942 3.78841C119.497 2.1595 117.033 1.33398 113.619 1.33398H105.334C104.735 1.33558 104.157 1.54992 103.702 1.93871C103.247 2.3275 102.945 2.86542 102.85 3.45638L99.3965 25.3314C99.3476 25.6246 99.3633 25.9249 99.4424 26.2114C99.5215 26.498 99.6622 26.7638 99.8545 26.9904C100.047 27.217 100.286 27.3989 100.556 27.5235C100.826 27.648 101.12 27.7122 101.417 27.7116H104.969L104.86 28.4056C104.816 28.6848 104.833 28.9702 104.909 29.2422C104.986 29.5143 105.121 29.7665 105.304 29.9814C105.488 30.1964 105.716 30.369 105.972 30.4874C106.229 30.6058 106.508 30.6672 106.791 30.6673H111.103C111.662 30.6718 112.204 30.4769 112.632 30.1178C113.06 29.7586 113.346 29.2586 113.438 28.7077L114.292 23.3327L114.307 23.2598H114.705C120.081 23.2598 123.439 20.6022 124.419 15.5762C124.717 14.5386 124.767 13.4453 124.564 12.3849C124.361 11.3245 123.91 10.3269 123.249 9.4733V9.4733ZM106.456 18.2728L105.504 24.3198L105.389 25.0449H102.141L105.463 4.00065H113.619C116.2 4.00065 118.042 4.53972 118.942 5.55273C119.367 6.04652 119.663 6.63754 119.804 7.27331C119.946 7.90908 119.928 8.56993 119.753 9.19718L119.728 9.34684C119.712 9.44881 119.697 9.54842 119.67 9.67513C119.413 11.5804 118.461 13.3233 116.996 14.5692C115.353 15.7123 113.372 16.268 111.373 16.1465H108.942C108.342 16.1445 107.761 16.358 107.304 16.7482C106.848 17.1384 106.547 17.6794 106.456 18.2728V18.2728ZM121.801 15.0658C121.067 18.8366 118.812 20.5931 114.705 20.5931H114.061C113.501 20.5888 112.959 20.7841 112.531 21.1441C112.103 21.5041 111.817 22.0049 111.726 22.5566L110.86 27.9889L107.623 28.0006L108.261 23.9555L109.075 18.8184H111.368C111.577 18.8184 111.762 18.7869 111.965 18.7798C112.444 18.7633 112.921 18.7449 113.369 18.6893C113.643 18.6552 113.894 18.593 114.156 18.5444C114.519 18.4772 114.883 18.4108 115.224 18.316C115.478 18.2453 115.715 18.1544 115.956 18.0685C116.275 17.9553 116.589 17.8365 116.886 17.6969C117.11 17.5915 117.324 17.4742 117.535 17.3539C117.816 17.1946 118.089 17.0202 118.352 16.8316C118.541 16.6948 118.727 16.5544 118.905 16.4036C119.156 16.1868 119.395 15.9558 119.621 15.7117C119.771 15.551 119.926 15.395 120.065 15.2221C120.297 14.9272 120.51 14.6188 120.705 14.2986C120.807 14.1356 120.92 13.9849 121.014 13.8135C121.284 13.3192 121.516 12.8052 121.708 12.2758C121.72 12.244 121.736 12.2171 121.748 12.1851C121.753 12.1701 121.761 12.1577 121.766 12.1426C122.03 13.0976 122.043 14.1047 121.801 15.0658V15.0658Z" fill="#383838"/>
<path d="M20.3529 7.03125C18.8245 7.03064 17.3217 7.42325 15.9889 8.17132C14.6237 7.40826 13.0827 7.01542 11.5188 7.03175C9.95492 7.04809 8.42247 7.47304 7.0735 8.26444C5.72453 9.05585 4.60592 10.1862 3.82865 11.5434C3.05138 12.9005 2.64246 14.4373 2.64246 16.0013C2.64246 17.5653 3.05138 19.1021 3.82865 20.4593C4.60592 21.8164 5.72453 22.9468 7.0735 23.7382C8.42247 24.5296 9.95492 24.9545 11.5188 24.9709C13.0827 24.9872 14.6237 24.5944 15.9889 23.8313C17.1854 24.4983 18.5189 24.8823 19.8869 24.9538C21.2549 25.0253 22.6211 24.7824 23.8806 24.2439C25.1402 23.7053 26.2596 22.8853 27.153 21.8468C28.0463 20.8084 28.6899 19.579 29.0343 18.2532C29.3787 16.9273 29.4148 15.5402 29.1398 14.1982C28.8647 12.8562 28.2859 11.5951 27.4477 10.5116C26.6095 9.42815 25.5342 8.5511 24.3043 7.9478C23.0744 7.3445 21.7227 7.03099 20.3529 7.03132V7.03125ZM13.6495 21.9414C12.9995 22.174 12.3153 22.2967 11.625 22.3047C9.95322 22.3047 8.34993 21.6406 7.16782 20.4585C5.9857 19.2764 5.3216 17.6731 5.3216 16.0013C5.3216 14.3296 5.9857 12.7263 7.16782 11.5442C8.34993 10.3621 9.95322 9.69796 11.625 9.69796C12.3153 9.70594 12.9995 9.82874 13.6495 10.0613C12.1897 11.6955 11.3828 13.8101 11.3828 16.0013C11.3828 18.1926 12.1897 20.3071 13.6495 21.9413V21.9414ZM15.9889 20.5315C15.376 19.9469 14.8881 19.2439 14.5547 18.4653C14.2213 17.6866 14.0495 16.8483 14.0495 16.0013C14.0495 15.1543 14.2213 14.316 14.5547 13.5374C14.8881 12.7587 15.376 12.0558 15.9889 11.4711C16.6018 12.0558 17.0898 12.7587 17.4231 13.5374C17.7565 14.316 17.9284 15.1543 17.9284 16.0013C17.9284 16.8483 17.7565 17.6866 17.4231 18.4653C17.0898 19.2439 16.6018 19.9469 15.9889 20.5315V20.5315ZM20.3529 22.3047C19.6625 22.2967 18.9784 22.1739 18.3284 21.9413C19.7881 20.3071 20.595 18.1926 20.595 16.0013C20.595 13.8101 19.7881 11.6955 18.3284 10.0613C18.9784 9.82874 19.6625 9.70594 20.3529 9.69796C22.0246 9.69796 23.6279 10.3621 24.81 11.5442C25.9921 12.7263 26.6562 14.3296 26.6562 16.0013C26.6562 17.6731 25.9921 19.2764 24.81 20.4585C23.6279 21.6406 22.0246 22.3047 20.3529 22.3047V22.3047Z" fill="#383838"/>
<path d="M60 10.666L54.0213 21.3327H50.6667V13.3327C50.6453 12.07 50.2987 11.486 49.3333 10.666H53.3333V17.3327L57.3333 10.666H60ZM61.312 10.666L57.3427 21.3327H60L64 10.666H61.312ZM76.6667 21.3327L76.708 19.2087L73.6667 19.166L72.604 21.3327H70.3227L76 10.666H78.6667L79.396 21.3327H76.6667ZM76.6667 13.374L74.6667 17.3327H76.6453L76.6667 13.374V13.374ZM67.444 12.9713C68.2453 10.97 70.6667 12.9167 71 13.1113C71.2773 12.6953 71.7507 12.0287 72 11.6673C71.056 10.5833 67.2427 9.52735 65.3053 11.918C62 16.002 68.8053 17.1967 67.6107 18.834C66.8413 19.8887 64.7773 19.722 63.2773 18.722C63.0547 19.1393 62.36 20.3887 62.36 20.3887C63.5827 21.1967 64.4987 21.334 65.7773 21.334C67.056 21.334 69.5907 21.1327 70.3227 18.6393C71.3893 14.9993 66.556 15.194 67.444 12.9713V12.9713ZM48 6.66602H80V7.99935H48V6.66602ZM48 23.9993H80V25.3327H48V23.9993Z" fill="#383838"/>
</svg>
