<svg width="56" height="56" viewBox="0 0 56 56" fill="none" xmlns="http://www.w3.org/2000/svg">
<path d="M43.1795 28H36.75C36.2859 28 35.8408 28.1844 35.5126 28.5126C35.1844 28.8408 35 29.2859 35 29.75V45.5C35 45.9641 35.1844 46.4092 35.5126 46.7374C35.8408 47.0656 36.2859 47.25 36.75 47.25H43.1795C44.7229 47.2481 46.2026 46.6341 47.2938 45.5426C48.385 44.451 48.9986 42.9712 49 41.4278V33.8222C48.9986 32.2788 48.385 30.799 47.2938 29.7074C46.2026 28.6159 44.7229 28.0019 43.1795 28V28ZM45.5 41.4278C45.4995 42.0432 45.255 42.6333 44.8199 43.0687C44.3849 43.5041 43.795 43.7491 43.1795 43.75H38.5V31.5H43.1795C43.795 31.5009 44.3849 31.7459 44.8199 32.1813C45.255 32.6167 45.4995 33.2068 45.5 33.8222V41.4278ZM19.25 28H12.8205C11.2771 28.0019 9.79742 28.6159 8.70621 29.7074C7.61501 30.799 7.00139 32.2788 7 33.8222V41.4295C7.00185 42.9726 7.61568 44.452 8.70683 45.5432C9.79798 46.6343 11.2774 47.2481 12.8205 47.25H19.25C19.7141 47.25 20.1592 47.0656 20.4874 46.7374C20.8156 46.4092 21 45.9641 21 45.5V29.75C21 29.2859 20.8156 28.8408 20.4874 28.5126C20.1592 28.1844 19.7141 28 19.25 28ZM17.5 43.75H12.8205C12.205 43.7491 11.6151 43.5041 11.1801 43.0687C10.745 42.6333 10.5005 42.0432 10.5 41.4278V33.8222C10.5005 33.2068 10.745 32.6167 11.1801 32.1813C11.6151 31.7459 12.205 31.5009 12.8205 31.5H17.5V43.75Z" fill="#F46B5B"/>
<path d="M41.9997 26.2497C41.9348 26.25 41.8699 26.2465 41.8054 26.2392C41.3454 26.1882 40.9244 25.9569 40.6345 25.5962C40.3445 25.2354 40.2093 24.7745 40.2584 24.3142C40.2584 24.2547 40.8867 17.9705 37.2834 13.963C36.0757 12.7526 34.6212 11.8168 33.0192 11.2191C31.4171 10.6215 29.7051 10.3761 27.9997 10.4997C26.2945 10.375 24.5825 10.6191 22.9801 11.2155C21.3778 11.812 19.9228 12.7467 18.7142 13.956C15.1092 17.9635 15.7392 24.2477 15.7392 24.3107C15.7853 24.7698 15.6483 25.2285 15.3579 25.587C15.0675 25.9456 14.6473 26.1749 14.1887 26.2252C13.7301 26.2755 13.2702 26.1426 12.909 25.8556C12.5478 25.5685 12.3147 25.1504 12.2602 24.6922C12.2252 24.3737 11.4464 16.826 16.0909 11.6372C17.6213 10.0474 19.4789 8.80923 21.5352 8.00848C23.5914 7.20772 25.7972 6.86353 27.9997 6.99973C30.2007 6.86482 32.4048 7.20965 34.4595 8.01036C36.5141 8.81107 38.3703 10.0486 39.8997 11.6372C44.5442 16.8277 43.7654 24.3737 43.7304 24.6922C43.6832 25.1189 43.4808 25.5134 43.1617 25.8006C42.8426 26.0878 42.429 26.2476 41.9997 26.2497V26.2497Z" fill="#383838"/>
</svg>
