<svg width="24" height="24" viewBox="0 0 24 24" fill="none" xmlns="http://www.w3.org/2000/svg">
<path d="M19.4396 13.0004C19.2196 13.0004 18.9896 12.9304 18.7696 12.8804C18.3241 12.7822 17.8863 12.6518 17.4596 12.4904C16.9957 12.3216 16.4858 12.3304 16.0279 12.515C15.5701 12.6996 15.1967 13.047 14.9796 13.4904L14.7596 13.9404C13.7856 13.3985 12.8906 12.7256 12.0996 11.9404C11.3144 11.1494 10.6414 10.2544 10.0996 9.28036L10.5196 9.00036C10.963 8.78327 11.3104 8.40989 11.495 7.95205C11.6796 7.49421 11.6884 6.98427 11.5196 6.52036C11.3608 6.09278 11.2305 5.65515 11.1296 5.21036C11.0796 4.99036 11.0396 4.76036 11.0096 4.53036C10.8882 3.82598 10.5192 3.1881 9.96923 2.7316C9.41923 2.27509 8.72431 2.02997 8.00961 2.04036H5.00961C4.57864 2.03631 4.15186 2.12517 3.75832 2.30089C3.36478 2.4766 3.01372 2.73505 2.72904 3.05864C2.44436 3.38222 2.23275 3.76335 2.1086 4.17607C1.98445 4.58879 1.95069 5.02342 2.00961 5.45036C2.54235 9.63974 4.45564 13.5322 7.44726 16.513C10.4389 19.4938 14.3383 21.3929 18.5296 21.9104H18.9096C19.647 21.9114 20.359 21.6409 20.9096 21.1504C21.226 20.8674 21.4787 20.5205 21.6511 20.1327C21.8235 19.7448 21.9116 19.3248 21.9096 18.9004V15.9004C21.8974 15.2057 21.6444 14.5369 21.194 14.008C20.7435 13.4791 20.1234 13.123 19.4396 13.0004V13.0004ZM19.9396 19.0004C19.9394 19.1423 19.909 19.2827 19.8504 19.412C19.7918 19.5413 19.7063 19.6566 19.5996 19.7504C19.4879 19.8468 19.3572 19.9189 19.216 19.962C19.0748 20.005 18.9262 20.0181 18.7796 20.0004C15.0345 19.5202 11.5558 17.8068 8.89233 15.1306C6.22881 12.4545 4.53202 8.96769 4.06961 5.22036C4.0537 5.07387 4.06765 4.92569 4.11061 4.78475C4.15358 4.64381 4.22468 4.51304 4.31961 4.40036C4.41332 4.29369 4.52867 4.2082 4.65799 4.14957C4.78731 4.09095 4.92763 4.06054 5.06961 4.06036H8.06961C8.30216 4.05518 8.52924 4.13124 8.71176 4.27543C8.89428 4.41962 9.02082 4.62293 9.06961 4.85036C9.10961 5.12369 9.15961 5.39369 9.21961 5.66036C9.33513 6.1875 9.48887 6.70554 9.67961 7.21036L8.27961 7.86036C8.15991 7.91528 8.05223 7.9933 7.96277 8.08995C7.87331 8.1866 7.80381 8.29997 7.75828 8.42355C7.71275 8.54713 7.69208 8.67849 7.69746 8.81008C7.70284 8.94167 7.73415 9.0709 7.78961 9.19036C9.22881 12.2731 11.7069 14.7512 14.7896 16.1904C15.0331 16.2904 15.3062 16.2904 15.5496 16.1904C15.6743 16.1457 15.7889 16.0768 15.8868 15.9875C15.9846 15.8983 16.0638 15.7905 16.1196 15.6704L16.7396 14.2704C17.2566 14.4552 17.7842 14.6088 18.3196 14.7304C18.5863 14.7904 18.8563 14.8404 19.1296 14.8804C19.357 14.9291 19.5604 15.0557 19.7045 15.2382C19.8487 15.4207 19.9248 15.6478 19.9196 15.8804L19.9396 19.0004Z" fill="#F46B5B"/>
</svg>
