<svg width="24" height="24" viewBox="0 0 24 24" fill="none" xmlns="http://www.w3.org/2000/svg">
<path d="M15.0002 11.9998C15.0009 12.1314 14.9757 12.2619 14.926 12.3837C14.8762 12.5056 14.8029 12.6164 14.7102 12.7098L10.7102 16.7098C10.5219 16.8981 10.2665 17.0039 10.0002 17.0039C9.73388 17.0039 9.47849 16.8981 9.29018 16.7098C9.10188 16.5215 8.99609 16.2661 8.99609 15.9998C8.99609 15.7335 9.10188 15.4781 9.29018 15.2898L12.5902 11.9998L9.30018 8.70981C9.13636 8.51851 9.05075 8.27244 9.06047 8.02076C9.07019 7.76909 9.17453 7.53035 9.35262 7.35225C9.53072 7.17416 9.76945 7.06983 10.0211 7.0601C10.2728 7.05038 10.5189 7.13599 10.7102 7.29981L14.7102 11.2998C14.8949 11.4861 14.9991 11.7375 15.0002 11.9998Z" fill="#A7A7A7"/>
</svg>
