<svg width="32" height="32" viewBox="0 0 32 32" fill="none" xmlns="http://www.w3.org/2000/svg">
<path d="M25.334 9.33268H21.334V7.99935C21.334 6.58486 20.7721 5.22831 19.7719 4.22811C18.7717 3.22792 17.4151 2.66602 16.0007 2.66602C14.5862 2.66602 13.2296 3.22792 12.2294 4.22811C11.2292 5.22831 10.6673 6.58486 10.6673 7.99935V9.33268H6.66732C6.3137 9.33268 5.97456 9.47316 5.72451 9.72321C5.47446 9.97325 5.33398 10.3124 5.33398 10.666L5.33398 25.3327C5.33398 26.3935 5.75541 27.411 6.50556 28.1611C7.2557 28.9113 8.27312 29.3327 9.33398 29.3327H22.6673C23.7282 29.3327 24.7456 28.9113 25.4957 28.1611C26.2459 27.411 26.6673 26.3935 26.6673 25.3327V10.666C26.6673 10.3124 26.5268 9.97325 26.2768 9.72321C26.0267 9.47316 25.6876 9.33268 25.334 9.33268ZM13.334 7.99935C13.334 7.2921 13.6149 6.61383 14.115 6.11373C14.6151 5.61363 15.2934 5.33268 16.0007 5.33268C16.7079 5.33268 17.3862 5.61363 17.8863 6.11373C18.3864 6.61383 18.6673 7.2921 18.6673 7.99935V9.33268H13.334V7.99935ZM24.0007 25.3327C24.0007 25.6863 23.8602 26.0254 23.6101 26.2755C23.3601 26.5255 23.0209 26.666 22.6673 26.666H9.33398C8.98036 26.666 8.64122 26.5255 8.39118 26.2755C8.14113 26.0254 8.00065 25.6863 8.00065 25.3327L8.00065 11.9993H10.6673V13.3327C10.6673 13.6863 10.8078 14.0254 11.0578 14.2755C11.3079 14.5255 11.647 14.666 12.0007 14.666C12.3543 14.666 12.6934 14.5255 12.9435 14.2755C13.1935 14.0254 13.334 13.6863 13.334 13.3327V11.9993H18.6673V13.3327C18.6673 13.6863 18.8078 14.0254 19.0578 14.2755C19.3079 14.5255 19.647 14.666 20.0007 14.666C20.3543 14.666 20.6934 14.5255 20.9435 14.2755C21.1935 14.0254 21.334 13.6863 21.334 13.3327V11.9993H24.0007V25.3327Z" fill="#383838"/>
</svg>
