<svg width="24" height="24" viewBox="0 0 24 24" fill="none" xmlns="http://www.w3.org/2000/svg">
<path d="M19.4396 12.9994C19.2196 12.9994 18.9896 12.9294 18.7696 12.8794C18.3241 12.7812 17.8863 12.6509 17.4596 12.4894C16.9957 12.3206 16.4858 12.3294 16.0279 12.514C15.5701 12.6986 15.1967 13.046 14.9796 13.4894L14.7596 13.9394C13.7856 13.3976 12.8906 12.7246 12.0996 11.9394C11.3144 11.1484 10.6414 10.2534 10.0996 9.27938L10.5196 8.99938C10.963 8.7823 11.3104 8.40891 11.495 7.95107C11.6796 7.49323 11.6884 6.98329 11.5196 6.51938C11.3608 6.0918 11.2306 5.65418 11.1296 5.20938C11.0796 4.98938 11.0396 4.75938 11.0096 4.52938C10.8882 3.825 10.5192 3.18712 9.96923 2.73062C9.41923 2.27412 8.72431 2.02899 8.00961 2.03938H5.00961C4.57864 2.03533 4.15186 2.12419 3.75832 2.29991C3.36478 2.47563 3.01372 2.73408 2.72904 3.05766C2.44436 3.38125 2.23275 3.76237 2.1086 4.17509C1.98445 4.58781 1.95069 5.02244 2.00961 5.44938C2.54235 9.63876 4.45564 13.5313 7.44727 16.512C10.4389 19.4928 14.3383 21.3919 18.5296 21.9094H18.9096C19.647 21.9105 20.359 21.6399 20.9096 21.1494C21.226 20.8664 21.4787 20.5196 21.6511 20.1317C21.8235 19.7438 21.9116 19.3238 21.9096 18.8994V15.8994C21.8974 15.2048 21.6444 14.5359 21.194 14.007C20.7435 13.4782 20.1234 13.122 19.4396 12.9994V12.9994ZM19.9396 18.9994C19.9394 19.1414 19.909 19.2817 19.8504 19.411C19.7918 19.5403 19.7063 19.6557 19.5996 19.7494C19.4879 19.8459 19.3572 19.9179 19.216 19.961C19.0748 20.004 18.9262 20.0171 18.7796 19.9994C15.0345 19.5192 11.5558 17.8059 8.89233 15.1297C6.22881 12.4535 4.53202 8.96672 4.06961 5.21938C4.0537 5.0729 4.06765 4.92471 4.11061 4.78377C4.15358 4.64283 4.22468 4.51207 4.31961 4.39938C4.41332 4.29271 4.52867 4.20722 4.65799 4.1486C4.78731 4.08997 4.92763 4.05956 5.06961 4.05938H8.06961C8.30216 4.05421 8.52924 4.13026 8.71176 4.27445C8.89428 4.41864 9.02082 4.62195 9.06961 4.84938C9.10961 5.12271 9.15961 5.39271 9.21961 5.65938C9.33513 6.18652 9.48887 6.70456 9.67961 7.20938L8.27961 7.85938C8.15991 7.9143 8.05224 7.99233 7.96277 8.08898C7.87331 8.18563 7.80381 8.29899 7.75828 8.42258C7.71275 8.54616 7.69208 8.67751 7.69746 8.8091C7.70284 8.94069 7.73415 9.06993 7.78961 9.18938C9.22881 12.2721 11.7069 14.7502 14.7896 16.1894C15.0331 16.2894 15.3062 16.2894 15.5496 16.1894C15.6743 16.1448 15.7889 16.0758 15.8868 15.9866C15.9846 15.8973 16.0638 15.7895 16.1196 15.6694L16.7396 14.2694C17.2566 14.4543 17.7842 14.6079 18.3196 14.7294C18.5863 14.7894 18.8563 14.8394 19.1296 14.8794C19.357 14.9282 19.5604 15.0547 19.7045 15.2372C19.8487 15.4198 19.9248 15.6468 19.9196 15.8794L19.9396 18.9994Z" fill="#F46B5B"/>
</svg>
