<svg width="32" height="32" viewBox="0 0 32 32" fill="none" xmlns="http://www.w3.org/2000/svg">
<path d="M25.3327 5.33301H6.66602C5.60515 5.33301 4.58773 5.75444 3.83759 6.50458C3.08744 7.25473 2.66602 8.27214 2.66602 9.33301V22.6663C2.66602 23.7272 3.08744 24.7446 3.83759 25.4948C4.58773 26.2449 5.60515 26.6663 6.66602 26.6663H25.3327C26.3935 26.6663 27.411 26.2449 28.1611 25.4948C28.9113 24.7446 29.3327 23.7272 29.3327 22.6663V9.33301C29.3327 8.27214 28.9113 7.25473 28.1611 6.50458C27.411 5.75444 26.3935 5.33301 25.3327 5.33301V5.33301ZM24.5687 7.99967L16.7993 14.3997C16.5773 14.5686 16.3076 14.6631 16.0287 14.6698C15.7498 14.6765 15.4759 14.5951 15.246 14.437L7.43002 7.99967H24.5687ZM25.3327 23.9997H6.66602C6.31239 23.9997 5.97326 23.8592 5.72321 23.6092C5.47316 23.3591 5.33268 23.02 5.33268 22.6663V9.73301L13.5993 16.533C14.2873 17.0481 15.124 17.3256 15.9833 17.3237C16.8728 17.3223 17.7376 17.0317 18.4474 16.4957L26.666 9.73301V22.6663C26.666 23.02 26.5255 23.3591 26.2755 23.6092C26.0254 23.8592 25.6863 23.9997 25.3327 23.9997Z" fill="#383838"/>
</svg>
