<svg width="240" height="240" viewBox="0 0 240 240" fill="none" xmlns="http://www.w3.org/2000/svg">
<path d="M208.802 173.402L172.502 136.802C171.804 136.099 170.975 135.541 170.061 135.16C169.147 134.779 168.167 134.583 167.177 134.583C166.187 134.583 165.206 134.779 164.292 135.16C163.378 135.541 162.549 136.099 161.852 136.802C160.455 138.207 159.671 140.108 159.671 142.089C159.671 144.07 160.455 145.971 161.852 147.377L198.527 184.052C199.122 184.64 199.595 185.34 199.917 186.113C200.239 186.886 200.404 187.715 200.402 188.552C200.389 190.239 199.716 191.855 198.527 193.052C197.313 194.207 195.702 194.852 194.027 194.852C192.351 194.852 190.74 194.207 189.527 193.052L152.177 156.002C150.742 154.773 148.896 154.131 147.009 154.204C145.121 154.277 143.331 155.059 141.995 156.395C140.659 157.731 139.877 159.521 139.804 161.409C139.731 163.296 140.373 165.142 141.602 166.577L178.577 203.627C180.439 206.015 182.788 207.98 185.467 209.392C188.146 210.804 191.095 211.631 194.118 211.817C197.141 212.004 200.169 211.545 203.001 210.473C205.833 209.401 208.406 207.739 210.547 205.597C212.689 203.456 214.351 200.883 215.423 198.051C216.495 195.219 216.954 192.191 216.767 189.168C216.581 186.145 215.754 183.196 214.342 180.517C212.93 177.838 210.965 175.489 208.577 173.627L208.802 173.402ZM146.777 43.0516C137.036 33.335 124.634 26.7232 111.138 24.0515C97.6415 21.3798 83.656 22.7681 70.9482 28.0409C58.2405 33.3138 47.3805 42.2347 39.7403 53.6767C32.1001 65.1186 28.0225 78.5683 28.0225 92.3266C28.0225 106.085 32.1001 119.535 39.7403 130.977C47.3805 142.418 58.2405 151.339 70.9482 156.612C83.656 161.885 97.6415 163.273 111.138 160.602C124.634 157.93 137.036 151.318 146.777 141.602C153.249 135.131 158.383 127.45 161.886 118.995C165.388 110.54 167.191 101.478 167.191 92.3266C167.191 83.175 165.388 74.113 161.886 65.6583C158.383 57.2036 153.249 49.5218 146.777 43.0516V43.0516ZM58.8017 130.952C51.1662 123.301 45.9699 113.558 43.8692 102.956C41.7684 92.3526 42.8576 81.365 46.9991 71.3808C51.1405 61.3967 58.1484 52.8642 67.1373 46.8613C76.1262 40.8584 86.6927 37.6545 97.5017 37.6545C108.311 37.6545 118.877 40.8584 127.866 46.8613C136.855 52.8642 143.863 61.3967 148.004 71.3808C152.146 81.365 153.235 92.3526 151.134 102.956C149.033 113.558 143.837 123.301 136.202 130.952C125.935 141.211 112.015 146.973 97.5017 146.973C82.988 146.973 69.0681 141.211 58.8017 130.952V130.952Z" fill="#383838"/>
<path d="M97.5 116.326C99.4891 116.326 101.397 115.536 102.803 114.129C104.21 112.723 105 110.815 105 108.826V57.751C105 55.7619 104.21 53.8542 102.803 52.4477C101.397 51.0412 99.4891 50.251 97.5 50.251C95.5109 50.251 93.6032 51.0412 92.1967 52.4477C90.7902 53.8542 90 55.7619 90 57.751V108.826C90 110.815 90.7902 112.723 92.1967 114.129C93.6032 115.536 95.5109 116.326 97.5 116.326Z" fill="#F46B5B"/>
<path d="M97.4978 137.625C102.096 137.625 105.823 133.897 105.823 129.3C105.823 124.702 102.096 120.975 97.4978 120.975C92.9001 120.975 89.1729 124.702 89.1729 129.3C89.1729 133.897 92.9001 137.625 97.4978 137.625Z" fill="#F46B5B"/>
</svg>
