<svg width="80" height="80" viewBox="0 0 80 80" fill="none" xmlns="http://www.w3.org/2000/svg">
<path d="M54.5565 57.5H53.4435C50.5577 57.5 43.5 55.2408 43.5 51.0565V47H36.5V51.0565C36.5 55.2408 29.4422 57.5 26.5565 57.5H25.4435C23.7351 57.4981 22.0973 56.8187 20.8893 55.6107C19.6813 54.4027 19.0019 52.7649 19 51.0565V34.75C19 32.8935 19.7375 31.113 21.0503 29.8003C22.363 28.4875 24.1435 27.75 26 27.75H54C55.8565 27.75 57.637 28.4875 58.9497 29.8003C60.2625 31.113 61 32.8935 61 34.75V51.0565C60.9981 52.7649 60.3187 54.4027 59.1107 55.6107C57.9027 56.8187 56.2649 57.4981 54.5565 57.5V57.5ZM34.75 43.5H45.25C45.7141 43.5 46.1592 43.6844 46.4874 44.0126C46.8156 44.3408 47 44.7859 47 45.25V51.0565C47 51.9105 50.8815 54 53.4435 54H54.5565C55.3369 53.9991 56.085 53.6887 56.6368 53.1368C57.1887 52.585 57.4991 51.8369 57.5 51.0565V34.75C57.5 33.8217 57.1313 32.9315 56.4749 32.2751C55.8185 31.6187 54.9283 31.25 54 31.25H26C25.0717 31.25 24.1815 31.6187 23.5251 32.2751C22.8687 32.9315 22.5 33.8217 22.5 34.75V51.0565C22.5009 51.8369 22.8113 52.585 23.3632 53.1368C23.915 53.6887 24.6631 53.9991 25.4435 54H26.5565C29.1185 54 33 51.9105 33 51.0565V45.25C33 44.7859 33.1844 44.3408 33.5126 44.0126C33.8408 43.6844 34.2859 43.5 34.75 43.5V43.5Z" fill="#383838"/>
<path d="M48.75 33C48.2859 33 47.8408 33.1844 47.5126 33.5126C47.1844 33.8408 47 34.2859 47 34.75V40C47 40.4641 47.1844 40.9092 47.5126 41.2374C47.8408 41.5656 48.2859 41.75 48.75 41.75C49.2141 41.75 49.6592 41.5656 49.9874 41.2374C50.3156 40.9092 50.5 40.4641 50.5 40V34.75C50.5 34.2859 50.3156 33.8408 49.9874 33.5126C49.6592 33.1844 49.2141 33 48.75 33ZM54 34.75C53.5359 34.75 53.0908 34.9344 52.7626 35.2626C52.4344 35.5908 52.25 36.0359 52.25 36.5V41.75C52.25 42.2141 52.4344 42.6592 52.7626 42.9874C53.0908 43.3156 53.5359 43.5 54 43.5C54.4641 43.5 54.9092 43.3156 55.2374 42.9874C55.5656 42.6592 55.75 42.2141 55.75 41.75V36.5C55.75 36.0359 55.5656 35.5908 55.2374 35.2626C54.9092 34.9344 54.4641 34.75 54 34.75ZM33 36.5H31.25V34.75C31.25 34.2859 31.0656 33.8408 30.7374 33.5126C30.4092 33.1844 29.9641 33 29.5 33C29.0359 33 28.5908 33.1844 28.2626 33.5126C27.9344 33.8408 27.75 34.2859 27.75 34.75V36.5H26C25.5359 36.5 25.0908 36.6844 24.7626 37.0126C24.4344 37.3408 24.25 37.7859 24.25 38.25C24.25 38.7141 24.4344 39.1592 24.7626 39.4874C25.0908 39.8156 25.5359 40 26 40H27.75V41.75C27.75 42.2141 27.9344 42.6592 28.2626 42.9874C28.5908 43.3156 29.0359 43.5 29.5 43.5C29.9641 43.5 30.4092 43.3156 30.7374 42.9874C31.0656 42.6592 31.25 42.2141 31.25 41.75V40H33C33.4641 40 33.9092 39.8156 34.2374 39.4874C34.5656 39.1592 34.75 38.7141 34.75 38.25C34.75 37.7859 34.5656 37.3408 34.2374 37.0126C33.9092 36.6844 33.4641 36.5 33 36.5Z" fill="#F46B5B"/>
<rect x="1" y="1" width="78" height="78" rx="11" stroke="#A7A7A7" stroke-width="2"/>
</svg>
