<svg width="50" height="50" viewBox="0 0 50 50" fill="none" xmlns="http://www.w3.org/2000/svg">
<g clip-path="url(#clip0_1069_1210)">
<path d="M36.4569 20.6686C36.1569 19.2623 35.6694 18.0998 34.8069 17.1811C33.5881 15.8311 31.9944 15.1748 30.1006 15.1748H29.8569C27.8506 15.2311 26.2006 16.0373 25.0381 17.4998C24.6069 17.0123 24.0631 16.5248 23.4444 16.1498C22.2256 15.4186 20.8194 15.1186 19.2256 15.2311C17.4631 15.4186 16.0569 16.2061 15.0069 17.4998C13.9006 18.9623 13.3569 20.6123 13.4131 22.3186C13.4694 23.9123 13.9569 25.3748 14.8756 26.7811C15.9069 28.3748 17.2006 29.5936 18.3631 30.5686C20.0131 32.0311 21.9069 33.3248 24.2881 34.6561C24.5319 34.7873 24.7194 34.8436 24.9631 34.8436C25.2069 34.8436 25.3944 34.7873 25.6381 34.6561C27.7194 33.4936 29.5381 32.2748 31.1881 30.8686C32.8944 29.4623 34.1131 28.1123 35.0881 26.6498C36.4006 24.7561 36.8131 22.8061 36.4569 20.6686Z" fill="#D0D0D2"/>
</g>
<defs>
<clipPath id="clip0_1069_1210">
<rect width="24" height="24" fill="white" transform="translate(13 13)"/>
</clipPath>
</defs>
</svg>
