<svg width="96" height="96" viewBox="0 0 96 96" fill="none" xmlns="http://www.w3.org/2000/svg">
<path d="M50.3395 69.1008H22.1532C20.1124 69.1008 18.4609 70.7522 18.4609 72.7931C18.4609 74.834 20.1124 76.4854 22.1532 76.4854H50.3395C52.3804 76.4854 54.0318 74.834 54.0318 72.7931C54.0318 70.7522 52.3804 69.1008 50.3395 69.1008ZM50.3431 54.1585C43.6123 54.1535 49.4349 54.1484 22.1532 54.191C20.1124 54.191 18.4609 55.8424 18.4609 57.8833C18.4609 59.9241 20.1124 61.5756 22.1532 61.5756C22.5237 61.5751 52.366 61.5448 50.3395 61.5431C52.3768 61.5431 54.0318 59.8917 54.0318 57.8544C54.0318 55.8135 52.3804 54.1585 50.3431 54.1585ZM47.5342 19.4746L24.9405 19.4998C21.3672 19.5071 18.4609 22.4205 18.4609 25.9902V39.191C18.4609 42.7715 21.3708 45.6813 24.9513 45.6813H47.5415C51.122 45.6813 54.0318 42.7715 54.0318 39.191V25.965C54.0318 22.3845 51.1184 19.4746 47.5342 19.4746ZM46.6472 38.2967H25.8456V26.8845L46.6472 26.8592V38.2967V38.2967Z" fill="#FAFAFA"/>
<path d="M92.3068 20.8322C92.3068 12.3443 85.939 5.3094 77.8116 4.82262C75.5397 4.67436 23.3777 4.79279 19.1385 4.79377C10.6217 4.79377 3.69141 11.7241 3.69141 20.2409V84.1856C3.69141 88.0834 6.86088 91.2529 10.7587 91.2529H61.7335C65.6313 91.2529 68.8008 88.0834 68.8008 84.1856V51.1495H85.2395C89.1373 51.1495 92.3068 47.9801 92.3068 44.0822V20.8322ZM61.4162 83.8683H11.076V20.2409C11.076 15.795 14.6926 12.1784 19.1385 12.1784C24.4611 12.1737 10.6833 12.1859 63.7022 12.1387C62.2197 14.5223 61.4162 17.6721 61.4162 20.2409V47.4572V83.8683ZM84.9222 43.7649H68.8008V20.2409C68.8008 15.3016 73.073 11.9248 77.3717 12.1928C81.5328 12.4452 84.9222 16.3178 84.9222 20.8322V43.7649Z" fill="#FAFAFA"/>
</svg>
