<svg width="56" height="56" viewBox="0 0 56 56" fill="none" xmlns="http://www.w3.org/2000/svg">
<path d="M40.25 14.4428V8.75C40.25 8.28587 40.0656 7.84075 39.7374 7.51256C39.4092 7.18437 38.9641 7 38.5 7H17.5C17.0359 7 16.5908 7.18437 16.2626 7.51256C15.9344 7.84075 15.75 8.28587 15.75 8.75V14.4428C14.7885 14.8499 13.9576 15.5138 13.3483 16.3617C12.7389 17.2096 12.3747 18.2089 12.2955 19.25H12.25C11.7859 19.25 11.3408 19.4344 11.0126 19.7626C10.6844 20.0908 10.5 20.5359 10.5 21C10.5 21.4641 10.6844 21.9092 11.0126 22.2374C11.3408 22.5656 11.7859 22.75 12.25 22.75V26.25C11.7859 26.25 11.3408 26.4344 11.0126 26.7626C10.6844 27.0908 10.5 27.5359 10.5 28C10.5 28.4641 10.6844 28.9092 11.0126 29.2374C11.3408 29.5656 11.7859 29.75 12.25 29.75V36.3055C12.2518 37.4279 12.5849 38.5249 13.2076 39.4588C13.8302 40.3927 14.7146 41.1221 15.75 41.5555V47.25C15.75 47.7141 15.9344 48.1592 16.2626 48.4874C16.5908 48.8156 17.0359 49 17.5 49H38.5C38.9641 49 39.4092 48.8156 39.7374 48.4874C40.0656 48.1592 40.25 47.7141 40.25 47.25V41.5572C41.2854 41.1238 42.1698 40.3945 42.7924 39.4605C43.4151 38.5266 43.7482 37.4297 43.75 36.3072V19.6945C43.7485 18.5718 43.4156 17.4745 42.7929 16.5402C42.1703 15.6059 41.2857 14.8763 40.25 14.4428V14.4428ZM19.25 10.5H36.75V14H19.25V10.5ZM36.75 45.5H19.25V42H36.75V45.5ZM40.25 36.3055C40.2495 36.8874 40.0182 37.4453 39.6067 37.8567C39.1953 38.2682 38.6374 38.4995 38.0555 38.5H17.9445C17.3626 38.4995 16.8047 38.2682 16.3933 37.8567C15.9818 37.4453 15.7505 36.8874 15.75 36.3055V19.6945C15.7505 19.1126 15.9818 18.5547 16.3933 18.1433C16.8047 17.7318 17.3626 17.5005 17.9445 17.5H38.0555C38.6374 17.5005 39.1953 17.7318 39.6067 18.1433C40.0182 18.5547 40.2495 19.1126 40.25 19.6945V36.3055Z" fill="#383838"/>
<path d="M22.75 29.75C23.7884 29.75 24.8034 29.4421 25.6667 28.8652C26.5301 28.2883 27.203 27.4684 27.6004 26.5091C27.9977 25.5498 28.1017 24.4942 27.8991 23.4758C27.6966 22.4574 27.1965 21.5219 26.4623 20.7877C25.7281 20.0535 24.7926 19.5535 23.7742 19.3509C22.7558 19.1483 21.7002 19.2523 20.7409 19.6496C19.7816 20.047 18.9617 20.7199 18.3848 21.5833C17.8079 22.4466 17.5 23.4617 17.5 24.5C17.5 25.8924 18.0531 27.2277 19.0377 28.2123C20.0223 29.1969 21.3576 29.75 22.75 29.75V29.75ZM22.75 22.75C23.0961 22.75 23.4345 22.8526 23.7222 23.0449C24.01 23.2372 24.2343 23.5105 24.3668 23.8303C24.4992 24.1501 24.5339 24.5019 24.4664 24.8414C24.3989 25.1809 24.2322 25.4927 23.9874 25.7374C23.7427 25.9822 23.4309 26.1489 23.0914 26.2164C22.7519 26.2839 22.4001 26.2492 22.0803 26.1168C21.7605 25.9843 21.4872 25.76 21.2949 25.4723C21.1026 25.1845 21 24.8461 21 24.5C21 24.0359 21.1844 23.5908 21.5126 23.2626C21.8408 22.9344 22.2859 22.75 22.75 22.75V22.75ZM31.5 24.5H36.75C37.2141 24.5 37.6592 24.3156 37.9874 23.9874C38.3156 23.6593 38.5 23.2141 38.5 22.75C38.5 22.2859 38.3156 21.8408 37.9874 21.5126C37.6592 21.1844 37.2141 21 36.75 21H31.5C31.0359 21 30.5908 21.1844 30.2626 21.5126C29.9344 21.8408 29.75 22.2859 29.75 22.75C29.75 23.2141 29.9344 23.6593 30.2626 23.9874C30.5908 24.3156 31.0359 24.5 31.5 24.5ZM36.75 26.25H31.5C31.0359 26.25 30.5908 26.4344 30.2626 26.7626C29.9344 27.0908 29.75 27.5359 29.75 28C29.75 28.4641 29.9344 28.9093 30.2626 29.2374C30.5908 29.5656 31.0359 29.75 31.5 29.75H36.75C37.2141 29.75 37.6592 29.5656 37.9874 29.2374C38.3156 28.9093 38.5 28.4641 38.5 28C38.5 27.5359 38.3156 27.0908 37.9874 26.7626C37.6592 26.4344 37.2141 26.25 36.75 26.25ZM36.75 33.25H19.25C18.7859 33.25 18.3408 33.4344 18.0126 33.7626C17.6844 34.0908 17.5 34.5359 17.5 35C17.5 35.4641 17.6844 35.9093 18.0126 36.2374C18.3408 36.5656 18.7859 36.75 19.25 36.75H36.75C37.2141 36.75 37.6592 36.5656 37.9874 36.2374C38.3156 35.9093 38.5 35.4641 38.5 35C38.5 34.5359 38.3156 34.0908 37.9874 33.7626C37.6592 33.4344 37.2141 33.25 36.75 33.25Z" fill="#F46B5B"/>
</svg>
