<svg width="24" height="24" viewBox="0 0 24 24" fill="none" xmlns="http://www.w3.org/2000/svg">
<path d="M23.4569 7.66953C23.1569 6.26328 22.6694 5.10078 21.8069 4.18203C20.5881 2.83203 18.9944 2.17578 17.1006 2.17578H16.8569C14.8506 2.23203 13.2006 3.03828 12.0381 4.50078C11.6069 4.01328 11.0631 3.52578 10.4444 3.15078C9.22564 2.41953 7.81939 2.11953 6.22564 2.23203C4.46314 2.41953 3.05689 3.20703 2.00689 4.50078C0.900639 5.96328 0.356889 7.61328 0.413139 9.31953C0.469389 10.9133 0.956889 12.3758 1.87564 13.782C2.90689 15.3758 4.20064 16.5945 5.36314 17.5695C7.01314 19.032 8.90689 20.3258 11.2881 21.657C11.5319 21.7883 11.7194 21.8445 11.9631 21.8445C12.2069 21.8445 12.3944 21.7883 12.6381 21.657C14.7194 20.4945 16.5381 19.2758 18.1881 17.8695C19.8944 16.4633 21.1131 15.1133 22.0881 13.6508C23.4006 11.757 23.8131 9.80703 23.4569 7.66953Z" fill="#F46B5B"/>
</svg>
