<svg width="32" height="32" viewBox="0 0 32 32" fill="none" xmlns="http://www.w3.org/2000/svg">
<path d="M25.3332 5.33398H6.6665C5.60564 5.33398 4.58822 5.75541 3.83808 6.50556C3.08793 7.2557 2.6665 8.27312 2.6665 9.33398V22.6673C2.6665 23.7282 3.08793 24.7456 3.83808 25.4957C4.58822 26.2459 5.60564 26.6673 6.6665 26.6673H25.3332C26.394 26.6673 27.4115 26.2459 28.1616 25.4957C28.9117 24.7456 29.3332 23.7282 29.3332 22.6673V9.33398C29.3332 8.27312 28.9117 7.2557 28.1616 6.50556C27.4115 5.75541 26.394 5.33398 25.3332 5.33398V5.33398ZM24.5692 8.00065L16.7998 14.4007C16.5778 14.5696 16.3081 14.6641 16.0292 14.6708C15.7503 14.6775 15.4764 14.596 15.2465 14.438L7.4305 8.00065H24.5692ZM25.3332 24.0006H6.6665C6.31288 24.0006 5.97374 23.8602 5.7237 23.6101C5.47365 23.3601 5.33317 23.0209 5.33317 22.6673V9.73398L13.5998 16.534C14.2877 17.0491 15.1245 17.3266 15.9838 17.3247C16.8733 17.3233 17.7381 17.0327 18.4478 16.4967L26.6665 9.73398V22.6673C26.6665 23.0209 26.526 23.3601 26.276 23.6101C26.0259 23.8602 25.6868 24.0006 25.3332 24.0006Z" fill="#383838"/>
</svg>
