<svg width="32" height="32" viewBox="0 0 32 32" fill="none" xmlns="http://www.w3.org/2000/svg">
<path d="M25.9192 17.3325C25.6258 17.3325 25.3192 17.2392 25.0258 17.1725C24.4318 17.0416 23.848 16.8678 23.2792 16.6525C22.6606 16.4275 21.9807 16.4392 21.3702 16.6853C20.7598 16.9315 20.2619 17.3947 19.9725 17.9858L19.6792 18.5858C18.3805 17.8634 17.1871 16.9661 16.1325 15.9192C15.0855 14.8645 14.1883 13.6712 13.4658 12.3725L14.0258 11.9992C14.617 11.7097 15.0802 11.2119 15.3264 10.6014C15.5725 9.99098 15.5842 9.31106 15.3592 8.69251C15.1475 8.1224 14.9737 7.5389 14.8392 6.94584C14.7725 6.65251 14.7192 6.34584 14.6792 6.03917C14.5172 5.1 14.0253 4.2495 13.292 3.64083C12.5586 3.03216 11.6321 2.70532 10.6792 2.71917H6.67916C6.10453 2.71378 5.53549 2.83226 5.01077 3.06655C4.48605 3.30084 4.01797 3.64543 3.6384 4.07688C3.25883 4.50833 2.97667 5.0165 2.81114 5.56679C2.64561 6.11709 2.6006 6.69659 2.67916 7.26584C3.38948 12.8517 5.94053 18.0417 9.92936 22.016C13.9182 25.9904 19.1174 28.5225 24.7058 29.2125H25.2125C26.1957 29.214 27.145 28.8532 27.8792 28.1992C28.301 27.8219 28.6379 27.3594 28.8678 26.8423C29.0976 26.3251 29.2151 25.7651 29.2125 25.1992V21.1992C29.1962 20.273 28.8589 19.3812 28.2583 18.6761C27.6577 17.9709 26.8309 17.496 25.9192 17.3325V17.3325ZM26.5858 25.3325C26.5856 25.5218 26.545 25.7089 26.4669 25.8813C26.3887 26.0538 26.2747 26.2076 26.1325 26.3325C25.9835 26.4611 25.8093 26.5572 25.621 26.6146C25.4328 26.672 25.2346 26.6895 25.0392 26.6658C20.0457 26.0256 15.4075 23.7412 11.8561 20.1729C8.30475 16.6046 6.04237 11.9556 5.42582 6.95917C5.4046 6.76386 5.4232 6.56628 5.48049 6.37836C5.53779 6.19044 5.63258 6.01609 5.75916 5.86584C5.8841 5.72362 6.03791 5.60963 6.21033 5.53146C6.38275 5.4533 6.56984 5.41275 6.75916 5.41251H10.7592C11.0692 5.40561 11.372 5.50701 11.6153 5.69927C11.8587 5.89152 12.0274 6.1626 12.0925 6.46584C12.1458 6.83028 12.2125 7.19028 12.2925 7.54584C12.4465 8.2487 12.6515 8.93941 12.9058 9.61251L11.0392 10.4792C10.8796 10.5524 10.736 10.6564 10.6167 10.7853C10.4974 10.9142 10.4048 11.0653 10.3441 11.2301C10.2833 11.3949 10.2558 11.57 10.263 11.7455C10.2701 11.9209 10.3119 12.0932 10.3858 12.2525C12.3048 16.3628 15.6088 19.6669 19.7192 21.5858C20.0438 21.7192 20.4079 21.7192 20.7325 21.5858C20.8988 21.5264 21.0516 21.4344 21.1821 21.3154C21.3125 21.1964 21.418 21.0526 21.4925 20.8925L22.3192 19.0258C23.0084 19.2723 23.7119 19.4772 24.4258 19.6392C24.7814 19.7192 25.1414 19.7858 25.5058 19.8392C25.8091 19.9042 26.0801 20.073 26.2724 20.3163C26.4647 20.5597 26.5661 20.8624 26.5592 21.1725L26.5858 25.3325Z" fill="#FAFAFA"/>
</svg>
