<svg width="216" height="56" viewBox="0 0 216 56" fill="none" xmlns="http://www.w3.org/2000/svg">
<rect opacity="0.5" width="56" height="56" rx="8" fill="#F46B5B"/>
<path d="M36.8997 17.1007C36.5041 17.1007 36.1174 17.2179 35.7885 17.4377C35.4596 17.6575 35.2033 17.9698 35.0519 18.3353C34.9005 18.7007 34.8609 19.1029 34.9381 19.4908C35.0153 19.8788 35.2058 20.2352 35.4855 20.5149C35.7652 20.7946 36.1215 20.9851 36.5095 21.0622C36.8975 21.1394 37.2996 21.0998 37.665 20.9484C38.0305 20.797 38.3429 20.5407 38.5626 20.2118C38.7824 19.8829 38.8997 19.4962 38.8997 19.1007C38.8997 18.5702 38.689 18.0615 38.3139 17.6864C37.9388 17.3114 37.4301 17.1007 36.8997 17.1007V17.1007ZM44.5663 21.134C44.5339 19.7511 44.2749 18.383 43.7997 17.084C43.3759 15.9725 42.7163 14.9661 41.8663 14.134C41.041 13.2797 40.0323 12.6243 38.9163 12.2173C37.6208 11.7276 36.2511 11.4627 34.8663 11.434C33.0997 11.334 32.533 11.334 27.9997 11.334C23.4663 11.334 22.8997 11.334 21.133 11.434C19.7483 11.4627 18.3786 11.7276 17.083 12.2173C15.9691 12.6284 14.9612 13.2833 14.133 14.134C13.2787 14.9593 12.6233 15.9681 12.2163 17.084C11.7266 18.3796 11.4617 19.7492 11.433 21.134C11.333 22.9007 11.333 23.4673 11.333 28.0007C11.333 32.534 11.333 33.1007 11.433 34.8673C11.4617 36.2521 11.7266 37.6217 12.2163 38.9173C12.6233 40.0333 13.2787 41.042 14.133 41.8673C14.9612 42.7181 15.9691 43.3729 17.083 43.784C18.3786 44.2737 19.7483 44.5386 21.133 44.5673C22.8997 44.6673 23.4663 44.6673 27.9997 44.6673C32.533 44.6673 33.0997 44.6673 34.8663 44.5673C36.2511 44.5386 37.6208 44.2737 38.9163 43.784C40.0323 43.377 41.041 42.7216 41.8663 41.8673C42.7201 41.0383 43.3802 40.031 43.7997 38.9173C44.2749 37.6183 44.5339 36.2502 44.5663 34.8673C44.5663 33.1007 44.6663 32.534 44.6663 28.0007C44.6663 23.4673 44.6663 22.9007 44.5663 21.134V21.134ZM41.5663 34.6673C41.5542 35.7253 41.3626 36.7735 40.9997 37.7673C40.7336 38.4926 40.3061 39.148 39.7497 39.684C39.2091 40.2348 38.5551 40.6614 37.833 40.934C36.8392 41.2969 35.791 41.4885 34.733 41.5007C33.0663 41.584 32.4497 41.6007 28.0663 41.6007C23.683 41.6007 23.0663 41.6007 21.3997 41.5007C20.3012 41.5212 19.2073 41.3521 18.1663 41.0007C17.476 40.7141 16.8519 40.2886 16.333 39.7507C15.7798 39.2152 15.3577 38.5593 15.0997 37.834C14.6928 36.8259 14.4671 35.7539 14.433 34.6673C14.433 33.0007 14.333 32.384 14.333 28.0007C14.333 23.6173 14.333 23.0007 14.433 21.334C14.4405 20.2524 14.6379 19.1806 15.0163 18.1673C15.3098 17.4638 15.7601 16.8367 16.333 16.334C16.8394 15.7609 17.4652 15.3058 18.1663 15.0007C19.1823 14.6341 20.253 14.4425 21.333 14.434C22.9997 14.434 23.6163 14.334 27.9997 14.334C32.383 14.334 32.9997 14.334 34.6663 14.434C35.7243 14.4461 36.7725 14.6377 37.7663 15.0007C38.5237 15.2817 39.2035 15.7387 39.7497 16.334C40.2958 16.8459 40.7226 17.4719 40.9997 18.1673C41.3701 19.1822 41.5618 20.2536 41.5663 21.334C41.6497 23.0007 41.6663 23.6173 41.6663 28.0007C41.6663 32.384 41.6497 33.0007 41.5663 34.6673ZM27.9997 19.4507C26.3094 19.4539 24.6579 19.9582 23.2541 20.8997C21.8503 21.8412 20.757 23.1776 20.1124 24.7402C19.4678 26.3028 19.3009 28.0214 19.6327 29.6789C19.9644 31.3363 20.7801 32.8582 21.9765 34.0523C23.1729 35.2464 24.6964 36.059 26.3544 36.3876C28.0125 36.7161 29.7308 36.5458 31.2921 35.8982C32.8535 35.2506 34.1878 34.1547 35.1266 32.749C36.0653 31.3434 36.5663 29.691 36.5663 28.0007C36.5685 26.8758 36.3483 25.7617 35.9184 24.7222C35.4885 23.6828 34.8573 22.7387 34.0611 21.9441C33.265 21.1495 32.3196 20.5201 31.2793 20.0922C30.2391 19.6643 29.1245 19.4463 27.9997 19.4507V19.4507ZM27.9997 33.5507C26.902 33.5507 25.829 33.2252 24.9163 32.6153C24.0036 32.0055 23.2922 31.1387 22.8721 30.1245C22.4521 29.1104 22.3422 27.9945 22.5563 26.9179C22.7705 25.8413 23.2991 24.8524 24.0752 24.0762C24.8514 23.3 25.8403 22.7714 26.9169 22.5573C27.9935 22.3431 29.1094 22.4531 30.1236 22.8731C31.1377 23.2932 32.0045 24.0045 32.6143 24.9172C33.2242 25.8299 33.5497 26.903 33.5497 28.0007C33.5497 28.7295 33.4061 29.4512 33.1272 30.1245C32.8483 30.7979 32.4395 31.4097 31.9241 31.9251C31.4088 32.4405 30.7969 32.8493 30.1236 33.1282C29.4502 33.4071 28.7285 33.5507 27.9997 33.5507V33.5507Z" fill="#FAFAFA"/>
<rect opacity="0.5" x="80" width="56" height="56" rx="8" fill="#F46B5B"/>
<path d="M102.183 41.3332H102.05C99.3636 41.3097 96.7164 40.6892 94.2997 39.5165C93.8551 39.3077 93.4891 38.9621 93.2552 38.5302C93.0212 38.0984 92.9317 37.603 92.9997 37.1165C93.0736 36.6268 93.3003 36.173 93.6475 35.8198C93.9947 35.4666 94.4446 35.2321 94.933 35.1499C96.4307 34.9501 97.8715 34.4452 99.1663 33.6665C96.9183 31.9089 95.1876 29.5758 94.1577 26.9145C93.1278 24.2533 92.8371 21.3629 93.3163 18.5499C93.3813 18.1043 93.5729 17.6868 93.8684 17.347C94.1639 17.0072 94.5508 16.7594 94.983 16.6332C95.4035 16.5011 95.8536 16.4955 96.2773 16.617C96.701 16.7385 97.0797 16.9817 97.3663 17.3165C98.3397 18.5928 99.5628 19.6575 100.961 20.4455C102.36 21.2335 103.904 21.7283 105.5 21.8999C105.576 19.9363 106.42 18.0811 107.85 16.7332C108.564 16.0495 109.407 15.5147 110.329 15.1601C111.252 14.8054 112.236 14.6379 113.224 14.6674C114.212 14.6968 115.185 14.9227 116.085 15.3317C116.985 15.7408 117.794 16.3248 118.466 17.0499C118.641 17.2047 118.859 17.3033 119.091 17.333C119.323 17.3627 119.558 17.3221 119.766 17.2165C120.164 17.0291 120.606 16.9586 121.042 17.0131C121.478 17.0677 121.89 17.2451 122.229 17.5246C122.568 17.8042 122.82 18.1743 122.957 18.592C123.093 19.0096 123.108 19.4574 123 19.8832C122.615 21.4667 121.887 22.9462 120.866 24.2165C120.641 28.9578 118.551 33.4178 115.051 36.6242C111.551 39.8306 106.926 41.5233 102.183 41.3332V41.3332ZM102.183 37.9999H102.316C104.254 38.0665 106.186 37.7478 108 37.0623C109.813 36.3768 111.473 35.3381 112.882 34.0063C114.291 32.6746 115.422 31.0764 116.209 29.3044C116.996 27.5323 117.423 25.6217 117.466 23.6832C117.494 23.152 117.713 22.6487 118.083 22.2665C118.49 21.7519 118.836 21.1928 119.116 20.5999C118.516 20.601 117.922 20.4754 117.373 20.2313C116.825 19.9872 116.334 19.63 115.933 19.1832C115.547 18.8008 115.089 18.4992 114.586 18.296C114.082 18.0928 113.543 17.9921 113 17.9999C112.451 17.9857 111.905 18.08 111.393 18.2773C110.881 18.4747 110.413 18.7712 110.016 19.1499C109.481 19.6582 109.088 20.2983 108.877 21.0061C108.667 21.714 108.646 22.4647 108.816 23.1832L109.25 25.0832L107.3 25.2165C105.301 25.3795 103.292 25.1061 101.41 24.4155C99.5276 23.7248 97.8181 22.6333 96.3997 21.2165C96.3388 23.4105 96.8877 25.5784 97.9852 27.4792C99.0826 29.3799 100.686 30.939 102.616 31.9832L104.2 32.8832L103.15 34.3832C102.014 35.8724 100.458 36.987 98.683 37.5832C99.8219 37.8686 100.992 38.0087 102.166 37.9999H102.183Z" fill="#FAFAFA"/>
<rect opacity="0.5" x="160" width="56" height="56" rx="8" fill="#F46B5B"/>
<path d="M202.834 11.334H173.167C172.681 11.334 172.215 11.5271 171.871 11.871C171.527 12.2148 171.334 12.6811 171.334 13.1673V42.834C171.334 43.0747 171.381 43.3131 171.474 43.5356C171.566 43.758 171.701 43.9601 171.871 44.1303C172.041 44.3006 172.243 44.4356 172.466 44.5278C172.688 44.6199 172.927 44.6673 173.167 44.6673H189.134V31.7507H184.801V26.7507H189.134V23.0007C189.044 22.1202 189.148 21.2309 189.439 20.3949C189.729 19.5589 190.199 18.7966 190.815 18.1613C191.431 17.5261 192.179 17.0334 193.005 16.7177C193.832 16.402 194.718 16.2711 195.601 16.334C196.898 16.326 198.194 16.3928 199.484 16.534V21.034H196.834C194.734 21.034 194.334 22.034 194.334 23.484V26.7007H199.334L198.684 31.7007H194.334V44.6673H202.834C203.075 44.6673 203.313 44.6199 203.536 44.5278C203.758 44.4356 203.96 44.3006 204.13 44.1303C204.301 43.9601 204.436 43.758 204.528 43.5356C204.62 43.3131 204.667 43.0747 204.667 42.834V13.1673C204.667 12.9266 204.62 12.6882 204.528 12.4657C204.436 12.2433 204.301 12.0412 204.13 11.871C203.96 11.7007 203.758 11.5657 203.536 11.4735C203.313 11.3814 203.075 11.334 202.834 11.334V11.334Z" fill="#FAFAFA"/>
</svg>
