<svg width="216" height="56" viewBox="0 0 216 56" fill="none" xmlns="http://www.w3.org/2000/svg">
<rect opacity="0.5" width="56" height="56" rx="8" fill="#F46B5B"/>
<path d="M36.9 17.1007C36.5045 17.1007 36.1178 17.2179 35.7889 17.4377C35.46 17.6575 35.2037 17.9698 35.0523 18.3353C34.9009 18.7007 34.8613 19.1029 34.9385 19.4908C35.0156 19.8788 35.2061 20.2352 35.4858 20.5149C35.7655 20.7946 36.1219 20.9851 36.5099 21.0622C36.8978 21.1394 37.3 21.0998 37.6654 20.9484C38.0309 20.797 38.3432 20.5407 38.563 20.2118C38.7827 19.8829 38.9 19.4962 38.9 19.1007C38.9 18.5702 38.6893 18.0615 38.3143 17.6864C37.9392 17.3114 37.4305 17.1007 36.9 17.1007V17.1007ZM44.5667 21.134C44.5343 19.7511 44.2753 18.383 43.8 17.084C43.3763 15.9725 42.7167 14.9661 41.8667 14.134C41.0414 13.2797 40.0326 12.6243 38.9167 12.2173C37.6211 11.7276 36.2515 11.4627 34.8667 11.434C33.1 11.334 32.5334 11.334 28 11.334C23.4667 11.334 22.9 11.334 21.1334 11.434C19.7486 11.4627 18.3789 11.7276 17.0834 12.2173C15.9695 12.6284 14.9616 13.2833 14.1334 14.134C13.2791 14.9593 12.6237 15.9681 12.2167 17.084C11.727 18.3796 11.4621 19.7492 11.4334 21.134C11.3334 22.9007 11.3334 23.4673 11.3334 28.0007C11.3334 32.534 11.3334 33.1007 11.4334 34.8673C11.4621 36.2521 11.727 37.6217 12.2167 38.9173C12.6237 40.0333 13.2791 41.042 14.1334 41.8673C14.9616 42.7181 15.9695 43.3729 17.0834 43.784C18.3789 44.2737 19.7486 44.5386 21.1334 44.5673C22.9 44.6673 23.4667 44.6673 28 44.6673C32.5334 44.6673 33.1 44.6673 34.8667 44.5673C36.2515 44.5386 37.6211 44.2737 38.9167 43.784C40.0326 43.377 41.0414 42.7216 41.8667 41.8673C42.7204 41.0383 43.3806 40.031 43.8 38.9173C44.2753 37.6183 44.5343 36.2502 44.5667 34.8673C44.5667 33.1007 44.6667 32.534 44.6667 28.0007C44.6667 23.4673 44.6667 22.9007 44.5667 21.134V21.134ZM41.5667 34.6673C41.5546 35.7253 41.363 36.7735 41 37.7673C40.7339 38.4926 40.3065 39.148 39.75 39.684C39.2095 40.2348 38.5554 40.6614 37.8334 40.934C36.8395 41.2969 35.7913 41.4885 34.7334 41.5007C33.0667 41.584 32.45 41.6007 28.0667 41.6007C23.6834 41.6007 23.0667 41.6007 21.4 41.5007C20.3015 41.5212 19.2077 41.3521 18.1667 41.0007C17.4763 40.7141 16.8523 40.2886 16.3334 39.7507C15.7802 39.2152 15.3581 38.5593 15.1 37.834C14.6931 36.8259 14.4674 35.7539 14.4334 34.6673C14.4334 33.0007 14.3334 32.384 14.3334 28.0007C14.3334 23.6173 14.3334 23.0007 14.4334 21.334C14.4408 20.2524 14.6383 19.1806 15.0167 18.1673C15.3101 17.4638 15.7605 16.8367 16.3334 16.334C16.8397 15.7609 17.4655 15.3058 18.1667 15.0007C19.1826 14.6341 20.2534 14.4425 21.3334 14.434C23 14.434 23.6167 14.334 28 14.334C32.3834 14.334 33 14.334 34.6667 14.434C35.7247 14.4461 36.7729 14.6377 37.7667 15.0007C38.5241 15.2817 39.2039 15.7387 39.75 16.334C40.2962 16.8459 40.723 17.4719 41 18.1673C41.3705 19.1822 41.5622 20.2536 41.5667 21.334C41.65 23.0007 41.6667 23.6173 41.6667 28.0007C41.6667 32.384 41.65 33.0007 41.5667 34.6673ZM28 19.4507C26.3097 19.4539 24.6583 19.9582 23.2545 20.8997C21.8506 21.8412 20.7573 23.1776 20.1128 24.7402C19.4682 26.3028 19.3012 28.0214 19.633 29.6789C19.9648 31.3363 20.7804 32.8582 21.9768 34.0523C23.1732 35.2464 24.6967 36.059 26.3548 36.3876C28.0129 36.7161 29.7312 36.5458 31.2925 35.8982C32.8538 35.2506 34.1882 34.1547 35.1269 32.749C36.0657 31.3434 36.5667 29.691 36.5667 28.0007C36.5689 26.8758 36.3487 25.7617 35.9188 24.7222C35.4888 23.6828 34.8576 22.7387 34.0615 21.9441C33.2653 21.1495 32.32 20.5201 31.2797 20.0922C30.2395 19.6643 29.1249 19.4463 28 19.4507V19.4507ZM28 33.5507C26.9024 33.5507 25.8293 33.2252 24.9166 32.6153C24.0039 32.0055 23.2926 31.1387 22.8725 30.1245C22.4524 29.1104 22.3425 27.9945 22.5567 26.9179C22.7708 25.8413 23.2994 24.8524 24.0756 24.0762C24.8518 23.3 25.8407 22.7714 26.9173 22.5573C27.9939 22.3431 29.1098 22.4531 30.1239 22.8731C31.1381 23.2932 32.0049 24.0045 32.6147 24.9172C33.2245 25.8299 33.55 26.903 33.55 28.0007C33.55 28.7295 33.4065 29.4512 33.1276 30.1245C32.8487 30.7979 32.4398 31.4097 31.9245 31.9251C31.4091 32.4405 30.7973 32.8493 30.1239 33.1282C29.4506 33.4071 28.7289 33.5507 28 33.5507V33.5507Z" fill="#FAFAFA"/>
<rect opacity="0.5" x="80" width="56" height="56" rx="8" fill="#F46B5B"/>
<path d="M102.183 41.3332H102.05C99.364 41.3097 96.7167 40.6892 94.3 39.5165C93.8555 39.3077 93.4895 38.9621 93.2555 38.5302C93.0216 38.0984 92.9321 37.603 93 37.1165C93.0739 36.6268 93.3007 36.173 93.6479 35.8198C93.9951 35.4666 94.445 35.2321 94.9334 35.1499C96.431 34.9501 97.8718 34.4452 99.1667 33.6665C96.9186 31.9089 95.1879 29.5758 94.1581 26.9145C93.1282 24.2533 92.8374 21.3629 93.3167 18.5499C93.3817 18.1043 93.5733 17.6868 93.8688 17.347C94.1642 17.0072 94.5511 16.7594 94.9834 16.6332C95.4039 16.5011 95.8539 16.4955 96.2776 16.617C96.7013 16.7385 97.08 16.9817 97.3667 17.3165C98.34 18.5928 99.5632 19.6575 100.962 20.4455C102.36 21.2335 103.904 21.7283 105.5 21.8999C105.576 19.9363 106.42 18.0811 107.85 16.7332C108.564 16.0495 109.407 15.5147 110.33 15.1601C111.252 14.8054 112.237 14.6379 113.225 14.6674C114.213 14.6968 115.185 14.9227 116.085 15.3317C116.985 15.7408 117.795 16.3248 118.467 17.0499C118.642 17.2047 118.859 17.3033 119.091 17.333C119.323 17.3627 119.558 17.3221 119.767 17.2165C120.164 17.0291 120.607 16.9586 121.043 17.0131C121.479 17.0677 121.89 17.2451 122.229 17.5246C122.568 17.8042 122.82 18.1743 122.957 18.592C123.093 19.0096 123.108 19.4574 123 19.8832C122.616 21.4667 121.887 22.9462 120.867 24.2165C120.642 28.9578 118.551 33.4178 115.052 36.6242C111.552 39.8306 106.926 41.5233 102.183 41.3332V41.3332ZM102.183 37.9999H102.317C104.254 38.0665 106.186 37.7478 108 37.0623C109.814 36.3768 111.473 35.3381 112.882 34.0063C114.292 32.6746 115.423 31.0764 116.209 29.3044C116.996 27.5323 117.424 25.6217 117.467 23.6832C117.494 23.152 117.713 22.6487 118.083 22.2665C118.49 21.7519 118.837 21.1928 119.117 20.5999C118.516 20.601 117.922 20.4754 117.374 20.2313C116.825 19.9872 116.334 19.63 115.933 19.1832C115.548 18.8008 115.09 18.4992 114.586 18.296C114.082 18.0928 113.543 17.9921 113 17.9999C112.452 17.9857 111.906 18.08 111.394 18.2773C110.882 18.4747 110.414 18.7712 110.017 19.1499C109.481 19.6582 109.088 20.2983 108.878 21.0061C108.667 21.714 108.646 22.4647 108.817 23.1832L109.25 25.0832L107.3 25.2165C105.302 25.3795 103.292 25.1061 101.41 24.4155C99.528 23.7248 97.8185 22.6333 96.4 21.2165C96.3392 23.4105 96.888 25.5784 97.9855 27.4792C99.083 29.3799 100.686 30.939 102.617 31.9832L104.2 32.8832L103.15 34.3832C102.015 35.8724 100.459 36.987 98.6834 37.5832C99.8222 37.8686 100.993 38.0087 102.167 37.9999H102.183Z" fill="#FAFAFA"/>
<rect opacity="0.5" x="160" width="56" height="56" rx="8" fill="#F46B5B"/>
<path d="M202.833 11.334H173.167C172.68 11.334 172.214 11.5271 171.87 11.871C171.527 12.2148 171.333 12.6811 171.333 13.1673V42.834C171.333 43.0747 171.381 43.3131 171.473 43.5356C171.565 43.758 171.7 43.9601 171.87 44.1303C172.041 44.3006 172.243 44.4356 172.465 44.5278C172.688 44.6199 172.926 44.6673 173.167 44.6673H189.133V31.7507H184.8V26.7507H189.133V23.0007C189.044 22.1202 189.148 21.2309 189.438 20.3949C189.728 19.5589 190.198 18.7966 190.814 18.1613C191.43 17.5261 192.178 17.0334 193.005 16.7177C193.832 16.402 194.717 16.2711 195.6 16.334C196.897 16.326 198.194 16.3928 199.483 16.534V21.034H196.833C194.733 21.034 194.333 22.034 194.333 23.484V26.7007H199.333L198.683 31.7007H194.333V44.6673H202.833C203.074 44.6673 203.313 44.6199 203.535 44.5278C203.757 44.4356 203.959 44.3006 204.13 44.1303C204.3 43.9601 204.435 43.758 204.527 43.5356C204.619 43.3131 204.667 43.0747 204.667 42.834V13.1673C204.667 12.9266 204.619 12.6882 204.527 12.4657C204.435 12.2433 204.3 12.0412 204.13 11.871C203.959 11.7007 203.757 11.5657 203.535 11.4735C203.313 11.3814 203.074 11.334 202.833 11.334V11.334Z" fill="#FAFAFA"/>
</svg>
