<svg width="24" height="24" viewBox="0 0 24 24" fill="none" xmlns="http://www.w3.org/2000/svg">
<path d="M19.4398 12.9994C19.2198 12.9994 18.9898 12.9294 18.7698 12.8794C18.3243 12.7812 17.8865 12.6509 17.4598 12.4894C16.9959 12.3206 16.4859 12.3294 16.0281 12.514C15.5703 12.6986 15.1969 13.046 14.9798 13.4894L14.7598 13.9394C13.7858 13.3976 12.8908 12.7246 12.0998 11.9394C11.3146 11.1484 10.6416 10.2534 10.0998 9.27938L10.5198 8.99938C10.9632 8.7823 11.3106 8.40891 11.4952 7.95107C11.6798 7.49323 11.6886 6.98329 11.5198 6.51938C11.361 6.0918 11.2307 5.65418 11.1298 5.20938C11.0798 4.98938 11.0398 4.75938 11.0098 4.52938C10.8884 3.825 10.5194 3.18712 9.96942 2.73062C9.41941 2.27412 8.72449 2.02899 8.0098 2.03938H5.0098C4.57883 2.03533 4.15205 2.12419 3.75851 2.29991C3.36497 2.47563 3.01391 2.73408 2.72923 3.05766C2.44455 3.38125 2.23293 3.76237 2.10878 4.17509C1.98464 4.58781 1.95087 5.02244 2.0098 5.44938C2.54253 9.63876 4.45582 13.5313 7.44745 16.512C10.4391 19.4928 14.3385 21.3919 18.5298 21.9094H18.9098C19.6472 21.9105 20.3592 21.6399 20.9098 21.1494C21.2262 20.8664 21.4789 20.5196 21.6513 20.1317C21.8236 19.7438 21.9118 19.3238 21.9098 18.8994V15.8994C21.8975 15.2048 21.6446 14.5359 21.1941 14.007C20.7437 13.4782 20.1236 13.122 19.4398 12.9994V12.9994ZM19.9398 18.9994C19.9396 19.1414 19.9092 19.2817 19.8506 19.411C19.792 19.5403 19.7065 19.6557 19.5998 19.7494C19.4881 19.8459 19.3574 19.9179 19.2162 19.961C19.075 20.004 18.9264 20.0171 18.7798 19.9994C15.0347 19.5192 11.556 17.8059 8.89251 15.1297C6.22899 12.4535 4.53221 8.96672 4.0698 5.21938C4.05388 5.0729 4.06783 4.92471 4.1108 4.78377C4.15377 4.64283 4.22487 4.51207 4.3198 4.39938C4.41351 4.29271 4.52886 4.20722 4.65817 4.1486C4.78749 4.08997 4.92781 4.05956 5.0698 4.05938H8.0698C8.30234 4.05421 8.52942 4.13026 8.71194 4.27445C8.89446 4.41864 9.02101 4.62195 9.0698 4.84938C9.1098 5.12271 9.1598 5.39271 9.2198 5.65938C9.33532 6.18652 9.48906 6.70456 9.6798 7.20938L8.2798 7.85938C8.16009 7.9143 8.05242 7.99233 7.96295 8.08898C7.87349 8.18563 7.804 8.29899 7.75847 8.42258C7.71294 8.54616 7.69227 8.67751 7.69764 8.8091C7.70302 8.94069 7.73434 9.06993 7.7898 9.18938C9.229 12.2721 11.707 14.7502 14.7898 16.1894C15.0333 16.2894 15.3063 16.2894 15.5498 16.1894C15.6745 16.1448 15.7891 16.0758 15.887 15.9866C15.9848 15.8973 16.064 15.7895 16.1198 15.6694L16.7398 14.2694C17.2568 14.4543 17.7844 14.6079 18.3198 14.7294C18.5865 14.7894 18.8565 14.8394 19.1298 14.8794C19.3572 14.9282 19.5605 15.0547 19.7047 15.2372C19.8489 15.4198 19.925 15.6468 19.9198 15.8794L19.9398 18.9994Z" fill="#F46B5B"/>
</svg>
