<svg width="24" height="24" viewBox="0 0 24 24" fill="none" xmlns="http://www.w3.org/2000/svg">
<path d="M8.99982 12.0002C8.99905 11.8686 9.02428 11.7381 9.07404 11.6163C9.12381 11.4944 9.19713 11.3836 9.28982 11.2902L13.2898 7.29019C13.4781 7.10188 13.7335 6.99609 13.9998 6.99609C14.2661 6.99609 14.5215 7.10188 14.7098 7.29019C14.8981 7.47849 15.0039 7.73388 15.0039 8.00019C15.0039 8.26649 14.8981 8.52188 14.7098 8.71019L11.4098 12.0002L14.6998 15.2902C14.8636 15.4815 14.9492 15.7276 14.9395 15.9792C14.9298 16.2309 14.8255 16.4697 14.6474 16.6477C14.4693 16.8258 14.2305 16.9302 13.9789 16.9399C13.7272 16.9496 13.4811 16.864 13.2898 16.7002L9.28982 12.7002C9.10507 12.5139 9.00092 12.2625 8.99982 12.0002Z" fill="#A7A7A7"/>
</svg>
