<svg width="24" height="24" viewBox="0 0 24 24" fill="none" xmlns="http://www.w3.org/2000/svg">
<path d="M19.4399 12.9994C19.2199 12.9994 18.9899 12.9294 18.7699 12.8794C18.3243 12.7812 17.8865 12.6509 17.4599 12.4894C16.9959 12.3206 16.486 12.3294 16.0282 12.514C15.5703 12.6986 15.1969 13.046 14.9799 13.4894L14.7599 13.9394C13.7859 13.3976 12.8908 12.7246 12.0999 11.9394C11.3146 11.1484 10.6417 10.2534 10.0999 9.27938L10.5199 8.99938C10.9632 8.7823 11.3106 8.40891 11.4953 7.95107C11.6799 7.49323 11.6886 6.98329 11.5199 6.51938C11.3611 6.0918 11.2308 5.65418 11.1299 5.20938C11.0799 4.98938 11.0399 4.75938 11.0099 4.52938C10.8884 3.825 10.5195 3.18712 9.96948 2.73062C9.41948 2.27412 8.72455 2.02899 8.00986 2.03938H5.00986C4.57889 2.03533 4.15211 2.12419 3.75857 2.29991C3.36503 2.47563 3.01397 2.73408 2.72929 3.05766C2.44461 3.38125 2.23299 3.76237 2.10884 4.17509C1.9847 4.58781 1.95094 5.02244 2.00986 5.44938C2.54259 9.63876 4.45589 13.5313 7.44751 16.512C10.4391 19.4928 14.3386 21.3919 18.5299 21.9094H18.9099C19.6473 21.9105 20.3593 21.6399 20.9099 21.1494C21.2262 20.8664 21.4789 20.5196 21.6513 20.1317C21.8237 19.7438 21.9118 19.3238 21.9099 18.8994V15.8994C21.8976 15.2048 21.6447 14.5359 21.1942 14.007C20.7437 13.4782 20.1237 13.122 19.4399 12.9994V12.9994ZM19.9399 18.9994C19.9397 19.1414 19.9093 19.2817 19.8506 19.411C19.792 19.5403 19.7065 19.6557 19.5999 19.7494C19.4881 19.8459 19.3575 19.9179 19.2163 19.961C19.0751 20.004 18.9264 20.0171 18.7799 19.9994C15.0348 19.5192 11.5561 17.8059 8.89257 15.1297C6.22905 12.4535 4.53227 8.96672 4.06986 5.21938C4.05394 5.0729 4.06789 4.92471 4.11086 4.78377C4.15383 4.64283 4.22493 4.51207 4.31986 4.39938C4.41357 4.29271 4.52892 4.20722 4.65824 4.1486C4.78755 4.08997 4.92787 4.05956 5.06986 4.05938H8.06986C8.3024 4.05421 8.52948 4.13026 8.712 4.27445C8.89452 4.41864 9.02107 4.62195 9.06986 4.84938C9.10986 5.12271 9.15986 5.39271 9.21986 5.65938C9.33538 6.18652 9.48912 6.70456 9.67986 7.20938L8.27986 7.85938C8.16015 7.9143 8.05248 7.99233 7.96301 8.08898C7.87355 8.18563 7.80406 8.29899 7.75853 8.42258C7.713 8.54616 7.69233 8.67751 7.6977 8.8091C7.70308 8.94069 7.7344 9.06993 7.78986 9.18938C9.22906 12.2721 11.7071 14.7502 14.7899 16.1894C15.0333 16.2894 15.3064 16.2894 15.5499 16.1894C15.6746 16.1448 15.7892 16.0758 15.887 15.9866C15.9849 15.8973 16.064 15.7895 16.1199 15.6694L16.7399 14.2694C17.2568 14.4543 17.7844 14.6079 18.3199 14.7294C18.5865 14.7894 18.8565 14.8394 19.1299 14.8794C19.3573 14.9282 19.5606 15.0547 19.7048 15.2372C19.849 15.4198 19.925 15.6468 19.9199 15.8794L19.9399 18.9994Z" fill="#F46B5B"/>
</svg>
