<svg width="32" height="32" viewBox="0 0 32 32" fill="none" xmlns="http://www.w3.org/2000/svg">
<path d="M25.3327 5.33398H6.66602C5.60515 5.33398 4.58773 5.75541 3.83759 6.50556C3.08744 7.2557 2.66602 8.27312 2.66602 9.33398V22.6673C2.66602 23.7282 3.08744 24.7456 3.83759 25.4957C4.58773 26.2459 5.60515 26.6673 6.66602 26.6673H25.3327C26.3935 26.6673 27.411 26.2459 28.1611 25.4957C28.9113 24.7456 29.3327 23.7282 29.3327 22.6673V9.33398C29.3327 8.27312 28.9113 7.2557 28.1611 6.50556C27.411 5.75541 26.3935 5.33398 25.3327 5.33398V5.33398ZM24.5687 8.00065L16.7993 14.4007C16.5773 14.5696 16.3076 14.6641 16.0287 14.6708C15.7498 14.6775 15.4759 14.596 15.246 14.438L7.43002 8.00065H24.5687ZM25.3327 24.0006H6.66602C6.31239 24.0006 5.97326 23.8602 5.72321 23.6101C5.47316 23.3601 5.33268 23.0209 5.33268 22.6673V9.73398L13.5993 16.534C14.2873 17.0491 15.124 17.3266 15.9833 17.3247C16.8728 17.3233 17.7376 17.0327 18.4474 16.4967L26.666 9.73398V22.6673C26.666 23.0209 26.5255 23.3601 26.2755 23.6101C26.0254 23.8602 25.6863 24.0006 25.3327 24.0006Z" fill="#383838"/>
</svg>
