<svg width="32" height="32" viewBox="0 0 32 32" fill="none" xmlns="http://www.w3.org/2000/svg">
<path d="M27 11H26V6C26 5.73478 25.8946 5.48043 25.7071 5.29289C25.5196 5.10536 25.2652 5 25 5H17C16.7348 5 16.4804 5.10536 16.2929 5.29289C16.1054 5.48043 16 5.73478 16 6V11H5C4.73478 11 4.48043 11.1054 4.29289 11.2929C4.10536 11.4804 4 11.7348 4 12V27C4 27.2652 4.10536 27.5196 4.29289 27.7071C4.48043 27.8946 4.73478 28 5 28H27C27.2652 28 27.5196 27.8946 27.7071 27.7071C27.8946 27.5196 28 27.2652 28 27V12C28 11.7348 27.8946 11.4804 27.7071 11.2929C27.5196 11.1054 27.2652 11 27 11ZM18 7H24V8H21C20.7348 8 20.4804 8.10536 20.2929 8.29289C20.1054 8.48043 20 8.73478 20 9C20 9.26522 20.1054 9.51957 20.2929 9.70711C20.4804 9.89464 20.7348 10 21 10H24V11H18V7ZM26 26H6V13H26V26Z" fill="#383838"/>
<path d="M18.5 14C17.4122 14 16.3488 14.3226 15.4444 14.9269C14.5399 15.5313 13.8349 16.3902 13.4187 17.3952C13.0024 18.4002 12.8935 19.5061 13.1057 20.573C13.3179 21.6399 13.8417 22.6199 14.6109 23.3891C15.3801 24.1583 16.3601 24.6821 17.427 24.8943C18.4939 25.1065 19.5998 24.9976 20.6048 24.5813C21.6098 24.1651 22.4687 23.4601 23.0731 22.5556C23.6774 21.6512 24 20.5878 24 19.5C23.9981 18.0419 23.4181 16.644 22.387 15.613C21.356 14.5819 19.9581 14.0019 18.5 14V14ZM18.5 23C17.8078 23 17.1311 22.7947 16.5555 22.4101C15.9799 22.0256 15.5313 21.4789 15.2664 20.8394C15.0015 20.1999 14.9322 19.4961 15.0673 18.8172C15.2023 18.1383 15.5356 17.5146 16.0251 17.0251C16.5146 16.5356 17.1383 16.2023 17.8172 16.0673C18.4961 15.9322 19.1999 16.0015 19.8394 16.2664C20.4789 16.5313 21.0256 16.9799 21.4101 17.5555C21.7947 18.1311 22 18.8078 22 19.5C22 20.4283 21.6313 21.3185 20.9749 21.9749C20.3185 22.6313 19.4283 23 18.5 23V23Z" fill="#383838"/>
<path d="M18.5 17C18.0055 17 17.5222 17.1466 17.1111 17.4213C16.7 17.696 16.3795 18.0865 16.1903 18.5433C16.0011 19.0001 15.9516 19.5028 16.048 19.9877C16.1445 20.4727 16.3826 20.9181 16.7322 21.2678C17.0819 21.6174 17.5273 21.8555 18.0123 21.952C18.4972 22.0484 18.9999 21.9989 19.4567 21.8097C19.9135 21.6205 20.304 21.3 20.5787 20.8889C20.8534 20.4778 21 19.9945 21 19.5C21 18.837 20.7366 18.2011 20.2678 17.7322C19.7989 17.2634 19.163 17 18.5 17ZM18.5 20C18.4011 20 18.3044 19.9707 18.2222 19.9157C18.14 19.8608 18.0759 19.7827 18.0381 19.6913C18.0002 19.6 17.9903 19.4994 18.0096 19.4025C18.0289 19.3055 18.0765 19.2164 18.1464 19.1464C18.2164 19.0765 18.3055 19.0289 18.4025 19.0096C18.4994 18.9903 18.6 19.0002 18.6913 19.0381C18.7827 19.0759 18.8608 19.14 18.9157 19.2222C18.9707 19.3044 19 19.4011 19 19.5C19 19.6326 18.9473 19.7598 18.8536 19.8536C18.7598 19.9473 18.6326 20 18.5 20Z" fill="#383838"/>
<path d="M9 8H6C5.73478 8 5.48043 8.10536 5.29289 8.29289C5.10536 8.48043 5 8.73478 5 9C5 9.26522 5.10536 9.51957 5.29289 9.70711C5.48043 9.89464 5.73478 10 6 10H9C9.26522 10 9.51957 9.89464 9.70711 9.70711C9.89464 9.51957 10 9.26522 10 9C10 8.73478 9.89464 8.48043 9.70711 8.29289C9.51957 8.10536 9.26522 8 9 8ZM8 14C7.73478 14 7.48043 14.1054 7.29289 14.2929C7.10536 14.4804 7 14.7348 7 15V16C7 16.2652 7.10536 16.5196 7.29289 16.7071C7.48043 16.8946 7.73478 17 8 17C8.26522 17 8.51957 16.8946 8.70711 16.7071C8.89464 16.5196 9 16.2652 9 16V15C9 14.7348 8.89464 14.4804 8.70711 14.2929C8.51957 14.1054 8.26522 14 8 14V14ZM8 18C7.73478 18 7.48043 18.1054 7.29289 18.2929C7.10536 18.4804 7 18.7348 7 19V23C7 23.2652 7.10536 23.5196 7.29289 23.7071C7.48043 23.8946 7.73478 24 8 24C8.26522 24 8.51957 23.8946 8.70711 23.7071C8.89464 23.5196 9 23.2652 9 23V19C9 18.7348 8.89464 18.4804 8.70711 18.2929C8.51957 18.1054 8.26522 18 8 18V18Z" fill="#F46B5B"/>
</svg>
