<svg width="24" height="24" viewBox="0 0 24 24" fill="none" xmlns="http://www.w3.org/2000/svg">
<path d="M14.9999 11.9998C15.0007 12.1314 14.9755 12.2619 14.9257 12.3837C14.8759 12.5056 14.8026 12.6164 14.7099 12.7098L10.7099 16.7098C10.5216 16.8981 10.2662 17.0039 9.99994 17.0039C9.73364 17.0039 9.47824 16.8981 9.28994 16.7098C9.10164 16.5215 8.99585 16.2661 8.99585 15.9998C8.99585 15.7335 9.10164 15.4781 9.28994 15.2898L12.5899 11.9998L9.29994 8.70981C9.13611 8.51851 9.05051 8.27244 9.06023 8.02076C9.06995 7.76909 9.17428 7.53035 9.35238 7.35225C9.53047 7.17416 9.76921 7.06983 10.0209 7.0601C10.2726 7.05038 10.5186 7.13599 10.7099 7.29981L14.7099 11.2998C14.8947 11.4861 14.9988 11.7375 14.9999 11.9998Z" fill="#A7A7A7"/>
</svg>
