<svg width="32" height="32" viewBox="0 0 32 32" fill="none" xmlns="http://www.w3.org/2000/svg">
<path d="M25.3335 9.33366H21.3335V8.00033C21.3335 6.58584 20.7716 5.22928 19.7714 4.22909C18.7712 3.2289 17.4147 2.66699 16.0002 2.66699C14.5857 2.66699 13.2291 3.2289 12.2289 4.22909C11.2287 5.22928 10.6668 6.58584 10.6668 8.00033V9.33366H6.66683C6.31321 9.33366 5.97407 9.47413 5.72402 9.72418C5.47397 9.97423 5.3335 10.3134 5.3335 10.667L5.3335 25.3337C5.3335 26.3945 5.75492 27.4119 6.50507 28.1621C7.25521 28.9122 8.27263 29.3337 9.3335 29.3337H22.6668C23.7277 29.3337 24.7451 28.9122 25.4953 28.1621C26.2454 27.4119 26.6668 26.3945 26.6668 25.3337V10.667C26.6668 10.3134 26.5264 9.97423 26.2763 9.72418C26.0263 9.47413 25.6871 9.33366 25.3335 9.33366ZM13.3335 8.00033C13.3335 7.29308 13.6144 6.6148 14.1145 6.11471C14.6146 5.61461 15.2929 5.33366 16.0002 5.33366C16.7074 5.33366 17.3857 5.61461 17.8858 6.11471C18.3859 6.6148 18.6668 7.29308 18.6668 8.00033V9.33366H13.3335V8.00033ZM24.0002 25.3337C24.0002 25.6873 23.8597 26.0264 23.6096 26.2765C23.3596 26.5265 23.0205 26.667 22.6668 26.667H9.3335C8.97987 26.667 8.64074 26.5265 8.39069 26.2765C8.14064 26.0264 8.00016 25.6873 8.00016 25.3337L8.00016 12.0003H10.6668V13.3337C10.6668 13.6873 10.8073 14.0264 11.0574 14.2765C11.3074 14.5265 11.6465 14.667 12.0002 14.667C12.3538 14.667 12.6929 14.5265 12.943 14.2765C13.193 14.0264 13.3335 13.6873 13.3335 13.3337V12.0003H18.6668V13.3337C18.6668 13.6873 18.8073 14.0264 19.0574 14.2765C19.3074 14.5265 19.6465 14.667 20.0002 14.667C20.3538 14.667 20.6929 14.5265 20.943 14.2765C21.193 14.0264 21.3335 13.6873 21.3335 13.3337V12.0003H24.0002V25.3337Z" fill="#383838"/>
</svg>
