<svg width="32" height="32" viewBox="0 0 32 32" fill="none" xmlns="http://www.w3.org/2000/svg">
<path d="M24.6 19H7.4C6.49867 18.9987 5.63463 18.64 4.9973 18.0027C4.35996 17.3654 4.00132 16.5013 4 15.6V7C4 6.73478 4.10536 6.48043 4.29289 6.29289C4.48043 6.10536 4.73478 6 5 6H27C27.2652 6 27.5196 6.10536 27.7071 6.29289C27.8946 6.48043 28 6.73478 28 7V15.6C27.9987 16.5013 27.64 17.3654 27.0027 18.0027C26.3654 18.64 25.5013 18.9987 24.6 19V19ZM6 8V15.6C6 15.9713 6.1475 16.3274 6.41005 16.5899C6.6726 16.8525 7.0287 17 7.4 17H24.6C24.9713 17 25.3274 16.8525 25.5899 16.5899C25.8525 16.3274 26 15.9713 26 15.6V8H6Z" fill="#383838"/>
<path d="M9 15C9 15.2652 9.10536 15.5196 9.29289 15.7071C9.48043 15.8946 9.73478 16 10 16H22C22.2652 16 22.5196 15.8946 22.7071 15.7071C22.8946 15.5196 23 15.2652 23 15C23 14.7348 22.8946 14.4804 22.7071 14.2929C22.5196 14.1054 22.2652 14 22 14H10C9.73478 14 9.48043 14.1054 9.29289 14.2929C9.10536 14.4804 9 14.7348 9 15ZM10 10C10 9.73478 9.89464 9.48043 9.70711 9.29289C9.51957 9.10536 9.26522 9 9 9H8C7.73478 9 7.48043 9.10536 7.29289 9.29289C7.10536 9.48043 7 9.73478 7 10C7 10.2652 7.10536 10.5196 7.29289 10.7071C7.48043 10.8946 7.73478 11 8 11H9C9.26522 11 9.51957 10.8946 9.70711 10.7071C9.89464 10.5196 10 10.2652 10 10ZM12 11H13C13.2652 11 13.5196 10.8946 13.7071 10.7071C13.8946 10.5196 14 10.2652 14 10C14 9.73478 13.8946 9.48043 13.7071 9.29289C13.5196 9.10536 13.2652 9 13 9H12C11.7348 9 11.4804 9.10536 11.2929 9.29289C11.1054 9.48043 11 9.73478 11 10C11 10.2652 11.1054 10.5196 11.2929 10.7071C11.4804 10.8946 11.7348 11 12 11V11ZM10.527 22.183L10.895 21.448C10.9538 21.3305 10.9888 21.2026 10.9982 21.0716C11.0075 20.9406 10.9909 20.809 10.9494 20.6844C10.9079 20.5598 10.8423 20.4446 10.7562 20.3453C10.6702 20.2461 10.5655 20.1648 10.448 20.106C10.3305 20.0472 10.2026 20.0122 10.0716 20.0028C9.94061 19.9935 9.80904 20.0101 9.68442 20.0516C9.55981 20.0931 9.44459 20.1587 9.34534 20.2448C9.24609 20.3308 9.16477 20.4355 9.106 20.553L8.738 21.288C8.45972 21.844 8.36357 22.4735 8.46319 23.0872C8.56281 23.7009 8.85314 24.2676 9.293 24.707C9.43607 24.8495 9.53057 25.0334 9.56306 25.2327C9.59556 25.432 9.56439 25.6365 9.474 25.817L9.106 26.552C8.98732 26.7892 8.96773 27.0639 9.05156 27.3156C9.13539 27.5673 9.31576 27.7753 9.553 27.894C9.79024 28.0127 10.0649 28.0323 10.3166 27.9484C10.5683 27.8646 10.7763 27.6842 10.895 27.447L11.263 26.712C11.5413 26.156 11.6374 25.5265 11.5378 24.9128C11.4382 24.2991 11.1479 23.7324 10.708 23.293C10.5649 23.1505 10.4704 22.9666 10.4379 22.7673C10.4054 22.568 10.4366 22.3635 10.527 22.183V22.183ZM14.527 22.183L14.895 21.448C14.9538 21.3305 14.9888 21.2026 14.9982 21.0716C15.0075 20.9406 14.9909 20.809 14.9494 20.6844C14.9079 20.5598 14.8423 20.4446 14.7562 20.3453C14.6702 20.2461 14.5655 20.1648 14.448 20.106C14.3305 20.0472 14.2026 20.0122 14.0716 20.0028C13.9406 19.9935 13.809 20.0101 13.6844 20.0516C13.5598 20.0931 13.4446 20.1587 13.3453 20.2448C13.2461 20.3308 13.1648 20.4355 13.106 20.553L12.738 21.288C12.4597 21.844 12.3636 22.4735 12.4632 23.0872C12.5628 23.7009 12.8531 24.2676 13.293 24.707C13.4361 24.8495 13.5306 25.0334 13.5631 25.2327C13.5956 25.432 13.5644 25.6365 13.474 25.817L13.106 26.552C12.9873 26.7892 12.9677 27.0639 13.0516 27.3156C13.1354 27.5673 13.3158 27.7753 13.553 27.894C13.6705 27.9528 13.7984 27.9878 13.9294 27.9972C14.0604 28.0065 14.192 27.9899 14.3166 27.9484C14.5683 27.8646 14.7763 27.6842 14.895 27.447L15.263 26.712C15.5413 26.156 15.6374 25.5265 15.5378 24.9128C15.4382 24.2991 15.1479 23.7324 14.708 23.293C14.5649 23.1505 14.4704 22.9666 14.4379 22.7673C14.4054 22.568 14.4366 22.3635 14.527 22.183V22.183ZM18.527 22.183L18.895 21.448C19.0137 21.2108 19.0333 20.9361 18.9494 20.6844C18.8656 20.4327 18.6852 20.2247 18.448 20.106C18.2108 19.9873 17.9361 19.9677 17.6844 20.0516C17.4327 20.1354 17.2247 20.3158 17.106 20.553L16.738 21.288C16.4597 21.844 16.3636 22.4735 16.4632 23.0872C16.5628 23.7009 16.8531 24.2676 17.293 24.707C17.4361 24.8495 17.5306 25.0334 17.5631 25.2327C17.5956 25.432 17.5644 25.6365 17.474 25.817L17.106 26.552C17.0472 26.6695 17.0122 26.7974 17.0028 26.9284C16.9935 27.0594 17.0101 27.191 17.0516 27.3156C17.0931 27.4402 17.1587 27.5554 17.2448 27.6547C17.3308 27.7539 17.4355 27.8352 17.553 27.894C17.7902 28.0127 18.0649 28.0323 18.3166 27.9484C18.4412 27.9069 18.5564 27.8413 18.6557 27.7552C18.7549 27.6692 18.8362 27.5645 18.895 27.447L19.263 26.712C19.5413 26.156 19.6374 25.5265 19.5378 24.9128C19.4382 24.2991 19.1479 23.7324 18.708 23.293C18.5649 23.1505 18.4704 22.9666 18.4379 22.7673C18.4054 22.568 18.4366 22.3635 18.527 22.183V22.183ZM22.708 23.293C22.5649 23.1505 22.4704 22.9666 22.4379 22.7673C22.4054 22.568 22.4366 22.3635 22.527 22.183L22.895 21.448C22.9538 21.3305 22.9888 21.2026 22.9982 21.0716C23.0075 20.9406 22.9909 20.809 22.9494 20.6844C22.9079 20.5598 22.8423 20.4446 22.7562 20.3453C22.6702 20.2461 22.5655 20.1648 22.448 20.106C22.3305 20.0472 22.2026 20.0122 22.0716 20.0028C21.9406 19.9935 21.809 20.0101 21.6844 20.0516C21.5598 20.0931 21.4446 20.1587 21.3453 20.2448C21.2461 20.3308 21.1648 20.4355 21.106 20.553L20.738 21.288C20.4597 21.844 20.3636 22.4735 20.4632 23.0872C20.5628 23.7009 20.8531 24.2676 21.293 24.707C21.4361 24.8495 21.5306 25.0334 21.5631 25.2327C21.5956 25.432 21.5644 25.6365 21.474 25.817L21.106 26.552C20.9873 26.7892 20.9677 27.0639 21.0516 27.3156C21.1354 27.5673 21.3158 27.7753 21.553 27.894C21.7902 28.0127 22.0649 28.0323 22.3166 27.9484C22.5682 27.8646 22.7763 27.6842 22.895 27.447L23.263 26.712C23.5413 26.156 23.6374 25.5265 23.5378 24.9128C23.4382 24.2991 23.1479 23.7324 22.708 23.293V23.293Z" fill="#F46B5B"/>
</svg>
