<svg width="24" height="24" viewBox="0 0 24 24" fill="none" xmlns="http://www.w3.org/2000/svg">
<path d="M23.4559 7.66855C23.1559 6.2623 22.6684 5.0998 21.8059 4.18105C20.5872 2.83105 18.9934 2.1748 17.0997 2.1748H16.8559C14.8497 2.23105 13.1997 3.0373 12.0372 4.4998C11.6059 4.0123 11.0622 3.5248 10.4434 3.1498C9.22466 2.41855 7.81841 2.11855 6.22466 2.23105C4.46216 2.41855 3.05591 3.20605 2.00591 4.4998C0.899662 5.9623 0.355912 7.6123 0.412162 9.31855C0.468412 10.9123 0.955912 12.3748 1.87466 13.7811C2.90591 15.3748 4.19966 16.5936 5.36216 17.5686C7.01216 19.0311 8.90591 20.3248 11.2872 21.6561C11.5309 21.7873 11.7184 21.8436 11.9622 21.8436C12.2059 21.8436 12.3934 21.7873 12.6372 21.6561C14.7184 20.4936 16.5372 19.2748 18.1872 17.8686C19.8934 16.4623 21.1122 15.1123 22.0872 13.6498C23.3997 11.7561 23.8122 9.80605 23.4559 7.66855Z" fill="#F46B5B"/>
</svg>
