<svg width="32" height="32" viewBox="0 0 32 32" fill="none" xmlns="http://www.w3.org/2000/svg">
<path d="M25.333 9.33268H21.333V7.99935C21.333 6.58486 20.7711 5.22831 19.7709 4.22811C18.7707 3.22792 17.4142 2.66602 15.9997 2.66602C14.5852 2.66602 13.2286 3.22792 12.2284 4.22811C11.2282 5.22831 10.6663 6.58486 10.6663 7.99935V9.33268H6.66634C6.31272 9.33268 5.97358 9.47316 5.72353 9.72321C5.47348 9.97325 5.33301 10.3124 5.33301 10.666L5.33301 25.3327C5.33301 26.3935 5.75444 27.411 6.50458 28.1611C7.25473 28.9113 8.27214 29.3327 9.33301 29.3327H22.6663C23.7272 29.3327 24.7446 28.9113 25.4948 28.1611C26.2449 27.411 26.6663 26.3935 26.6663 25.3327V10.666C26.6663 10.3124 26.5259 9.97325 26.2758 9.72321C26.0258 9.47316 25.6866 9.33268 25.333 9.33268ZM13.333 7.99935C13.333 7.2921 13.614 6.61383 14.1141 6.11373C14.6142 5.61363 15.2924 5.33268 15.9997 5.33268C16.7069 5.33268 17.3852 5.61363 17.8853 6.11373C18.3854 6.61383 18.6663 7.2921 18.6663 7.99935V9.33268H13.333V7.99935ZM23.9997 25.3327C23.9997 25.6863 23.8592 26.0254 23.6092 26.2755C23.3591 26.5255 23.02 26.666 22.6663 26.666H9.33301C8.97939 26.666 8.64025 26.5255 8.3902 26.2755C8.14015 26.0254 7.99967 25.6863 7.99967 25.3327L7.99967 11.9993H10.6663V13.3327C10.6663 13.6863 10.8068 14.0254 11.0569 14.2755C11.3069 14.5255 11.6461 14.666 11.9997 14.666C12.3533 14.666 12.6924 14.5255 12.9425 14.2755C13.1925 14.0254 13.333 13.6863 13.333 13.3327V11.9993H18.6663V13.3327C18.6663 13.6863 18.8068 14.0254 19.0569 14.2755C19.3069 14.5255 19.6461 14.666 19.9997 14.666C20.3533 14.666 20.6924 14.5255 20.9425 14.2755C21.1925 14.0254 21.333 13.6863 21.333 13.3327V11.9993H23.9997V25.3327Z" fill="#383838"/>
</svg>
