<svg width="56" height="56" viewBox="0 0 56 56" fill="none" xmlns="http://www.w3.org/2000/svg">
<path d="M47.25 17.5H42V12.25C42 11.7859 41.8156 11.3408 41.4874 11.0126C41.1592 10.6844 40.7141 10.5 40.25 10.5H36.75V8.75C36.75 8.28587 36.5656 7.84075 36.2374 7.51256C35.9092 7.18437 35.4641 7 35 7H21C20.5359 7 20.0908 7.18437 19.7626 7.51256C19.4344 7.84075 19.25 8.28587 19.25 8.75V10.5H15.75C15.2859 10.5 14.8408 10.6844 14.5126 11.0126C14.1844 11.3408 14 11.7859 14 12.25V17.5H8.75C8.28587 17.5 7.84075 17.6844 7.51256 18.0126C7.18437 18.3408 7 18.7859 7 19.25V36.75C7 37.2141 7.18437 37.6592 7.51256 37.9874C7.84075 38.3156 8.28587 38.5 8.75 38.5H15.435L14.0245 46.9612C13.9826 47.212 13.9957 47.4688 14.0631 47.7139C14.1305 47.959 14.2505 48.1865 14.4147 48.3806C14.5789 48.5746 14.7835 48.7305 15.0141 48.8375C15.2447 48.9445 15.4958 48.9999 15.75 49H40.25C40.5042 48.9999 40.7553 48.9445 40.9859 48.8375C41.2165 48.7305 41.4211 48.5746 41.5853 48.3806C41.7495 48.1865 41.8695 47.959 41.9369 47.7139C42.0043 47.4688 42.0174 47.212 41.9755 46.9612L40.565 38.5H47.25C47.7141 38.5 48.1592 38.3156 48.4874 37.9874C48.8156 37.6592 49 37.2141 49 36.75V19.25C49 18.7859 48.8156 18.3408 48.4874 18.0126C48.1592 17.6844 47.7141 17.5 47.25 17.5ZM38.5 14V17.5H36.75V14H38.5ZM22.75 10.5H33.25V17.5H22.75V10.5ZM17.5 14H19.25V17.5H17.5V14ZM17.8167 45.5L19.2273 37.0388C19.2273 36.9898 19.2185 36.9425 19.2273 36.8935C19.236 36.8445 19.25 36.8007 19.25 36.75V35H36.75V36.75C36.75 36.8007 36.7745 36.8428 36.778 36.8935C36.7815 36.9443 36.764 36.988 36.778 37.0388L38.1833 45.5H17.8167ZM45.5 35H40.25V33.25C40.25 32.7859 40.0656 32.3408 39.7374 32.0126C39.4092 31.6844 38.9641 31.5 38.5 31.5H17.5C17.0359 31.5 16.5908 31.6844 16.2626 32.0126C15.9344 32.3408 15.75 32.7859 15.75 33.25V35H10.5V21H45.5V35Z" fill="#383838"/>
<path d="M21 28H14C13.5359 28 13.0908 27.8156 12.7626 27.4874C12.4344 27.1592 12.25 26.7141 12.25 26.25C12.25 25.7859 12.4344 25.3408 12.7626 25.0126C13.0908 24.6844 13.5359 24.5 14 24.5H21C21.4641 24.5 21.9092 24.6844 22.2374 25.0126C22.5656 25.3408 22.75 25.7859 22.75 26.25C22.75 26.7141 22.5656 27.1592 22.2374 27.4874C21.9092 27.8156 21.4641 28 21 28Z" fill="#F46B5B"/>
</svg>
