<svg width="24" height="24" viewBox="0 0 24 24" fill="none" xmlns="http://www.w3.org/2000/svg">
<path d="M17.9992 7.125C17.9992 3.8175 15.3067 1.125 11.9992 1.125C8.69172 1.125 5.99922 3.8175 5.99922 7.125C5.99922 10.4325 8.69172 13.125 11.9992 13.125C15.3067 13.125 17.9992 10.4325 17.9992 7.125ZM8.24922 7.125C8.24922 5.055 9.92922 3.375 11.9992 3.375C14.0692 3.375 15.7492 5.055 15.7492 7.125C15.7492 9.195 14.0692 10.875 11.9992 10.875C9.92922 10.875 8.24922 9.195 8.24922 7.125ZM13.7992 14.625H10.1992C6.26922 14.625 3.07422 17.82 3.07422 21.75C3.07422 22.3725 3.57672 22.875 4.19922 22.875H19.7992C20.4217 22.875 20.9242 22.3725 20.9242 21.75C20.9242 17.82 17.7292 14.625 13.7992 14.625ZM5.45172 20.625C5.96172 18.48 7.89672 16.875 10.1992 16.875H13.7992C16.1017 16.875 18.0367 18.48 18.5467 20.625H5.45172Z" fill="#F46B5B"/>
</svg>
