<svg width="24" height="24" viewBox="0 0 24 24" fill="none" xmlns="http://www.w3.org/2000/svg">
<path d="M18.0002 7.125C18.0002 3.8175 15.3077 1.125 12.0002 1.125C8.69269 1.125 6.0002 3.8175 6.0002 7.125C6.0002 10.4325 8.69269 13.125 12.0002 13.125C15.3077 13.125 18.0002 10.4325 18.0002 7.125ZM8.25019 7.125C8.25019 5.055 9.93019 3.375 12.0002 3.375C14.0702 3.375 15.7502 5.055 15.7502 7.125C15.7502 9.195 14.0702 10.875 12.0002 10.875C9.93019 10.875 8.25019 9.195 8.25019 7.125ZM13.8002 14.625H10.2002C6.2702 14.625 3.0752 17.82 3.0752 21.75C3.0752 22.3725 3.5777 22.875 4.2002 22.875H19.8002C20.4227 22.875 20.9252 22.3725 20.9252 21.75C20.9252 17.82 17.7302 14.625 13.8002 14.625ZM5.4527 20.625C5.9627 18.48 7.89769 16.875 10.2002 16.875H13.8002C16.1027 16.875 18.0377 18.48 18.5477 20.625H5.4527Z" fill="#F46B5B"/>
</svg>
