<svg width="50" height="50" viewBox="0 0 50 50" fill="none" xmlns="http://www.w3.org/2000/svg">
<path d="M36.4559 20.6686C36.1559 19.2623 35.6684 18.0998 34.8059 17.1811C33.5872 15.8311 31.9934 15.1748 30.0997 15.1748H29.8559C27.8497 15.2311 26.1997 16.0373 25.0372 17.4998C24.6059 17.0123 24.0622 16.5248 23.4434 16.1498C22.2247 15.4186 20.8184 15.1186 19.2247 15.2311C17.4622 15.4186 16.0559 16.2061 15.0059 17.4998C13.8997 18.9623 13.3559 20.6123 13.4122 22.3186C13.4684 23.9123 13.9559 25.3748 14.8747 26.7811C15.9059 28.3748 17.1997 29.5936 18.3622 30.5686C20.0122 32.0311 21.9059 33.3248 24.2872 34.6561C24.5309 34.7873 24.7184 34.8436 24.9622 34.8436C25.2059 34.8436 25.3934 34.7873 25.6372 34.6561C27.7184 33.4936 29.5372 32.2748 31.1872 30.8686C32.8934 29.4623 34.1122 28.1123 35.0872 26.6498C36.3997 24.7561 36.8122 22.8061 36.4559 20.6686Z" fill="#D0D0D2"/>
</svg>
