<svg width="56" height="56" viewBox="0 0 56 56" fill="none" xmlns="http://www.w3.org/2000/svg">
<rect width="56" height="56" rx="16" fill="#F46B5B"/>
<path d="M39 17.5H17C15.07 17.5 13.5 19.07 13.5 21V24.66C13.5 25.49 14.17 26.16 15 26.16C16.02 26.16 16.84 26.99 16.84 28C16.84 29.01 16.02 29.84 15 29.84C14.17 29.84 13.5 30.51 13.5 31.34V35C13.5 36.93 15.07 38.5 17 38.5H39C40.93 38.5 42.5 36.93 42.5 35V31.34C42.5 30.51 41.83 29.84 41 29.84C39.98 29.84 39.16 29.01 39.16 28C39.16 26.99 39.99 26.16 41 26.16C41.83 26.16 42.5 25.49 42.5 24.66V21C42.5 19.07 40.93 17.5 39 17.5ZM39.5 23.39C37.56 24.02 36.16 25.85 36.16 28C36.16 30.15 37.56 31.97 39.5 32.61V35C39.5 35.28 39.28 35.5 39 35.5H33.5V31C33.5 30.17 32.83 29.5 32 29.5C31.17 29.5 30.5 30.17 30.5 31V35.5H17C16.72 35.5 16.5 35.28 16.5 35V32.61C18.44 31.98 19.84 30.15 19.84 28C19.84 25.85 18.44 24.03 16.5 23.39V21C16.5 20.72 16.72 20.5 17 20.5H30.5V25C30.5 25.83 31.17 26.5 32 26.5C32.83 26.5 33.5 25.83 33.5 25V20.5H39C39.28 20.5 39.5 20.72 39.5 21V23.39Z" fill="#FAFAFA"/>
</svg>
