<svg width="216" height="56" viewBox="0 0 216 56" fill="none" xmlns="http://www.w3.org/2000/svg">
<rect opacity="0.5" width="56" height="56" rx="8" fill="#F46B5B"/>
<path d="M36.9007 17.0997C36.5051 17.0997 36.1184 17.217 35.7895 17.4367C35.4606 17.6565 35.2043 17.9689 35.0529 18.3343C34.9015 18.6998 34.8619 19.1019 34.9391 19.4899C35.0163 19.8778 35.2067 20.2342 35.4864 20.5139C35.7661 20.7936 36.1225 20.9841 36.5105 21.0612C36.8984 21.1384 37.3006 21.0988 37.666 20.9474C38.0315 20.7961 38.3438 20.5397 38.5636 20.2108C38.7834 19.8819 38.9007 19.4952 38.9007 19.0997C38.9007 18.5692 38.6899 18.0605 38.3149 17.6855C37.9398 17.3104 37.4311 17.0997 36.9007 17.0997V17.0997ZM44.5673 21.133C44.5349 19.7502 44.2759 18.382 43.8007 17.083C43.3769 15.9716 42.7173 14.9651 41.8673 14.133C41.042 13.2787 40.0333 12.6233 38.9173 12.2163C37.6217 11.7266 36.2521 11.4617 34.8673 11.433C33.1007 11.333 32.534 11.333 28.0007 11.333C23.4673 11.333 22.9007 11.333 21.134 11.433C19.7492 11.4617 18.3796 11.7266 17.084 12.2163C15.9701 12.6274 14.9622 13.2823 14.134 14.133C13.2797 14.9583 12.6243 15.9671 12.2173 17.083C11.7276 18.3786 11.4627 19.7483 11.434 21.133C11.334 22.8997 11.334 23.4663 11.334 27.9997C11.334 32.533 11.334 33.0997 11.434 34.8663C11.4627 36.2511 11.7276 37.6208 12.2173 38.9163C12.6243 40.0323 13.2797 41.041 14.134 41.8663C14.9622 42.7171 15.9701 43.3719 17.084 43.783C18.3796 44.2727 19.7492 44.5377 21.134 44.5663C22.9007 44.6663 23.4673 44.6663 28.0007 44.6663C32.534 44.6663 33.1007 44.6663 34.8673 44.5663C36.2521 44.5377 37.6217 44.2727 38.9173 43.783C40.0333 43.376 41.042 42.7206 41.8673 41.8663C42.7211 41.0373 43.3812 40.03 43.8007 38.9163C44.2759 37.6173 44.5349 36.2492 44.5673 34.8663C44.5673 33.0997 44.6673 32.533 44.6673 27.9997C44.6673 23.4663 44.6673 22.8997 44.5673 21.133V21.133ZM41.5673 34.6663C41.5552 35.7243 41.3636 36.7725 41.0007 37.7663C40.7345 38.4917 40.3071 39.147 39.7507 39.683C39.2101 40.2339 38.556 40.6604 37.834 40.933C36.8402 41.2959 35.7919 41.4875 34.734 41.4997C33.0673 41.583 32.4507 41.5997 28.0673 41.5997C23.684 41.5997 23.0673 41.5997 21.4007 41.4997C20.3021 41.5202 19.2083 41.3511 18.1673 40.9997C17.477 40.7131 16.8529 40.2877 16.334 39.7497C15.7808 39.2143 15.3587 38.5583 15.1007 37.833C14.6937 36.8249 14.4681 35.7529 14.434 34.6663C14.434 32.9997 14.334 32.383 14.334 27.9997C14.334 23.6163 14.334 22.9997 14.434 21.333C14.4415 20.2514 14.6389 19.1796 15.0173 18.1663C15.3107 17.4629 15.7611 16.8358 16.334 16.333C16.8403 15.76 17.4661 15.3048 18.1673 14.9997C19.1832 14.6331 20.254 14.4415 21.334 14.433C23.0007 14.433 23.6173 14.333 28.0007 14.333C32.384 14.333 33.0007 14.333 34.6673 14.433C35.7253 14.4451 36.7735 14.6368 37.7673 14.9997C38.5247 15.2808 39.2045 15.7378 39.7507 16.333C40.2968 16.845 40.7236 17.4709 41.0007 18.1663C41.3711 19.1812 41.5628 20.2526 41.5673 21.333C41.6507 22.9997 41.6673 23.6163 41.6673 27.9997C41.6673 32.383 41.6507 32.9997 41.5673 34.6663ZM28.0007 19.4497C26.3103 19.453 24.6589 19.9572 23.2551 20.8987C21.8512 21.8402 20.7579 23.1767 20.1134 24.7393C19.4688 26.3019 19.3019 28.0205 19.6336 29.6779C19.9654 31.3353 20.781 32.8572 21.9774 34.0513C23.1738 35.2454 24.6973 36.058 26.3554 36.3866C28.0135 36.7151 29.7318 36.5449 31.2931 35.8972C32.8544 35.2496 34.1888 34.1537 35.1275 32.7481C36.0663 31.3424 36.5673 29.69 36.5673 27.9997C36.5695 26.8748 36.3493 25.7607 35.9194 24.7213C35.4894 23.6819 34.8582 22.7377 34.0621 21.9431C33.266 21.1485 32.3206 20.5191 31.2803 20.0912C30.2401 19.6633 29.1255 19.4453 28.0007 19.4497V19.4497ZM28.0007 33.5497C26.903 33.5497 25.8299 33.2242 24.9172 32.6143C24.0045 32.0045 23.2932 31.1377 22.8731 30.1236C22.4531 29.1094 22.3431 27.9935 22.5573 26.9169C22.7714 25.8403 23.3 24.8514 24.0762 24.0752C24.8524 23.2991 25.8413 22.7705 26.9179 22.5563C27.9945 22.3422 29.1104 22.4521 30.1245 22.8721C31.1387 23.2922 32.0055 24.0036 32.6153 24.9163C33.2252 25.829 33.5507 26.902 33.5507 27.9997C33.5507 28.7285 33.4071 29.4502 33.1282 30.1236C32.8493 30.7969 32.4405 31.4088 31.9251 31.9241C31.4097 32.4395 30.7979 32.8483 30.1245 33.1272C29.4512 33.4061 28.7295 33.5497 28.0007 33.5497V33.5497Z" fill="#FAFAFA"/>
<rect opacity="0.5" x="80" width="56" height="56" rx="8" fill="#F46B5B"/>
<path d="M102.184 41.3332H102.051C99.3646 41.3097 96.7173 40.6892 94.3006 39.5165C93.8561 39.3077 93.4901 38.9621 93.2561 38.5302C93.0222 38.0984 92.9327 37.603 93.0006 37.1165C93.0745 36.6268 93.3013 36.173 93.6485 35.8198C93.9957 35.4666 94.4456 35.2321 94.934 35.1499C96.4317 34.9501 97.8725 34.4452 99.1673 33.6665C96.9192 31.9089 95.1886 29.5758 94.1587 26.9145C93.1288 24.2533 92.8381 21.3629 93.3173 18.5499C93.3823 18.1043 93.5739 17.6868 93.8694 17.347C94.1649 17.0072 94.5517 16.7594 94.984 16.6332C95.4045 16.5011 95.8546 16.4955 96.2783 16.617C96.702 16.7385 97.0806 16.9817 97.3673 17.3165C98.3406 18.5928 99.5638 19.6575 100.962 20.4455C102.361 21.2335 103.905 21.7283 105.501 21.8999C105.577 19.9363 106.421 18.0811 107.851 16.7332C108.565 16.0495 109.408 15.5147 110.33 15.1601C111.253 14.8054 112.237 14.6379 113.225 14.6674C114.213 14.6968 115.186 14.9227 116.086 15.3317C116.986 15.7408 117.795 16.3248 118.467 17.0499C118.642 17.2047 118.86 17.3033 119.092 17.333C119.323 17.3627 119.559 17.3221 119.767 17.2165C120.165 17.0291 120.607 16.9586 121.043 17.0131C121.479 17.0677 121.891 17.2451 122.23 17.5246C122.569 17.8042 122.821 18.1743 122.958 18.592C123.094 19.0096 123.109 19.4574 123.001 19.8832C122.616 21.4667 121.888 22.9462 120.867 24.2165C120.642 28.9578 118.552 33.4178 115.052 36.6242C111.552 39.8306 106.927 41.5233 102.184 41.3332V41.3332ZM102.184 37.9999H102.317C104.255 38.0665 106.187 37.7478 108.001 37.0623C109.814 36.3768 111.474 35.3381 112.883 34.0063C114.292 32.6746 115.423 31.0764 116.21 29.3044C116.997 27.5323 117.424 25.6217 117.467 23.6832C117.495 23.152 117.714 22.6487 118.084 22.2665C118.49 21.7519 118.837 21.1928 119.117 20.5999C118.517 20.601 117.923 20.4754 117.374 20.2313C116.826 19.9872 116.335 19.63 115.934 19.1832C115.548 18.8008 115.09 18.4992 114.587 18.296C114.083 18.0928 113.544 17.9921 113.001 17.9999C112.452 17.9857 111.906 18.08 111.394 18.2773C110.882 18.4747 110.414 18.7712 110.017 19.1499C109.482 19.6582 109.089 20.2983 108.878 21.0061C108.668 21.714 108.647 22.4647 108.817 23.1832L109.251 25.0832L107.301 25.2165C105.302 25.3795 103.293 25.1061 101.411 24.4155C99.5286 23.7248 97.8191 22.6333 96.4006 21.2165C96.3398 23.4105 96.8886 25.5784 97.9861 27.4792C99.0836 29.3799 100.687 30.939 102.617 31.9832L104.201 32.8832L103.151 34.3832C102.015 35.8724 100.459 36.987 98.684 37.5832C99.8228 37.8686 100.993 38.0087 102.167 37.9999H102.184Z" fill="#FAFAFA"/>
<rect opacity="0.5" x="160" width="56" height="56" rx="8" fill="#F46B5B"/>
<path d="M202.834 11.333H173.167C172.681 11.333 172.215 11.5262 171.871 11.87C171.527 12.2138 171.334 12.6801 171.334 13.1663V42.833C171.334 43.0738 171.381 43.3122 171.474 43.5346C171.566 43.757 171.701 43.9591 171.871 44.1294C172.041 44.2996 172.243 44.4347 172.466 44.5268C172.688 44.6189 172.927 44.6663 173.167 44.6663H189.134V31.7497H184.801V26.7497H189.134V22.9997C189.044 22.1193 189.148 21.2299 189.439 20.3939C189.729 19.5579 190.199 18.7956 190.815 18.1604C191.431 17.5251 192.179 17.0324 193.005 16.7167C193.832 16.4011 194.718 16.2701 195.601 16.333C196.898 16.325 198.194 16.3918 199.484 16.533V21.033H196.834C194.734 21.033 194.334 22.033 194.334 23.483V26.6997H199.334L198.684 31.6997H194.334V44.6663H202.834C203.075 44.6663 203.313 44.6189 203.536 44.5268C203.758 44.4347 203.96 44.2996 204.13 44.1294C204.301 43.9591 204.436 43.757 204.528 43.5346C204.62 43.3122 204.667 43.0738 204.667 42.833V13.1663C204.667 12.9256 204.62 12.6872 204.528 12.4648C204.436 12.2423 204.301 12.0402 204.13 11.87C203.96 11.6997 203.758 11.5647 203.536 11.4726C203.313 11.3804 203.075 11.333 202.834 11.333V11.333Z" fill="#FAFAFA"/>
</svg>
