<svg width="56" height="56" viewBox="0 0 56 56" fill="none" xmlns="http://www.w3.org/2000/svg">
<path d="M42.5565 45.5H41.4435C38.5577 45.5 31.5 43.2408 31.5 39.0565V35H24.5V39.0565C24.5 43.2408 17.4422 45.5 14.5565 45.5H13.4435C11.7351 45.4981 10.0973 44.8187 8.8893 43.6107C7.68131 42.4027 7.00185 40.7649 7 39.0565V22.75C7 20.8935 7.7375 19.113 9.05025 17.8003C10.363 16.4875 12.1435 15.75 14 15.75H42C43.8565 15.75 45.637 16.4875 46.9497 17.8003C48.2625 19.113 49 20.8935 49 22.75V39.0565C48.9981 40.7649 48.3187 42.4027 47.1107 43.6107C45.9027 44.8187 44.2649 45.4981 42.5565 45.5V45.5ZM22.75 31.5H33.25C33.7141 31.5 34.1592 31.6844 34.4874 32.0126C34.8156 32.3408 35 32.7859 35 33.25V39.0565C35 39.9105 38.8815 42 41.4435 42H42.5565C43.3369 41.9991 44.085 41.6887 44.6368 41.1368C45.1887 40.585 45.4991 39.8369 45.5 39.0565V22.75C45.5 21.8217 45.1313 20.9315 44.4749 20.2751C43.8185 19.6187 42.9283 19.25 42 19.25H14C13.0717 19.25 12.1815 19.6187 11.5251 20.2751C10.8687 20.9315 10.5 21.8217 10.5 22.75V39.0565C10.5009 39.8369 10.8113 40.585 11.3632 41.1368C11.915 41.6887 12.6631 41.9991 13.4435 42H14.5565C17.1185 42 21 39.9105 21 39.0565V33.25C21 32.7859 21.1844 32.3408 21.5126 32.0126C21.8408 31.6844 22.2859 31.5 22.75 31.5V31.5Z" fill="#383838"/>
<path d="M36.75 21C36.2859 21 35.8408 21.1844 35.5126 21.5126C35.1844 21.8408 35 22.2859 35 22.75V28C35 28.4641 35.1844 28.9092 35.5126 29.2374C35.8408 29.5656 36.2859 29.75 36.75 29.75C37.2141 29.75 37.6592 29.5656 37.9874 29.2374C38.3156 28.9092 38.5 28.4641 38.5 28V22.75C38.5 22.2859 38.3156 21.8408 37.9874 21.5126C37.6592 21.1844 37.2141 21 36.75 21ZM42 22.75C41.5359 22.75 41.0908 22.9344 40.7626 23.2626C40.4344 23.5908 40.25 24.0359 40.25 24.5V29.75C40.25 30.2141 40.4344 30.6592 40.7626 30.9874C41.0908 31.3156 41.5359 31.5 42 31.5C42.4641 31.5 42.9092 31.3156 43.2374 30.9874C43.5656 30.6592 43.75 30.2141 43.75 29.75V24.5C43.75 24.0359 43.5656 23.5908 43.2374 23.2626C42.9092 22.9344 42.4641 22.75 42 22.75ZM21 24.5H19.25V22.75C19.25 22.2859 19.0656 21.8408 18.7374 21.5126C18.4092 21.1844 17.9641 21 17.5 21C17.0359 21 16.5908 21.1844 16.2626 21.5126C15.9344 21.8408 15.75 22.2859 15.75 22.75V24.5H14C13.5359 24.5 13.0908 24.6844 12.7626 25.0126C12.4344 25.3408 12.25 25.7859 12.25 26.25C12.25 26.7141 12.4344 27.1592 12.7626 27.4874C13.0908 27.8156 13.5359 28 14 28H15.75V29.75C15.75 30.2141 15.9344 30.6592 16.2626 30.9874C16.5908 31.3156 17.0359 31.5 17.5 31.5C17.9641 31.5 18.4092 31.3156 18.7374 30.9874C19.0656 30.6592 19.25 30.2141 19.25 29.75V28H21C21.4641 28 21.9092 27.8156 22.2374 27.4874C22.5656 27.1592 22.75 26.7141 22.75 26.25C22.75 25.7859 22.5656 25.3408 22.2374 25.0126C21.9092 24.6844 21.4641 24.5 21 24.5Z" fill="#F46B5B"/>
</svg>
