<svg width="32" height="32" viewBox="0 0 32 32" fill="none" xmlns="http://www.w3.org/2000/svg">
<path d="M25.333 9.33366H21.333V8.00033C21.333 6.58584 20.7711 5.22928 19.7709 4.22909C18.7707 3.2289 17.4142 2.66699 15.9997 2.66699C14.5852 2.66699 13.2286 3.2289 12.2284 4.22909C11.2282 5.22928 10.6663 6.58584 10.6663 8.00033V9.33366H6.66634C6.31272 9.33366 5.97358 9.47413 5.72353 9.72418C5.47348 9.97423 5.33301 10.3134 5.33301 10.667L5.33301 25.3337C5.33301 26.3945 5.75444 27.4119 6.50458 28.1621C7.25473 28.9122 8.27214 29.3337 9.33301 29.3337H22.6663C23.7272 29.3337 24.7446 28.9122 25.4948 28.1621C26.2449 27.4119 26.6663 26.3945 26.6663 25.3337V10.667C26.6663 10.3134 26.5259 9.97423 26.2758 9.72418C26.0258 9.47413 25.6866 9.33366 25.333 9.33366ZM13.333 8.00033C13.333 7.29308 13.614 6.6148 14.1141 6.11471C14.6142 5.61461 15.2924 5.33366 15.9997 5.33366C16.7069 5.33366 17.3852 5.61461 17.8853 6.11471C18.3854 6.6148 18.6663 7.29308 18.6663 8.00033V9.33366H13.333V8.00033ZM23.9997 25.3337C23.9997 25.6873 23.8592 26.0264 23.6092 26.2765C23.3591 26.5265 23.02 26.667 22.6663 26.667H9.33301C8.97939 26.667 8.64025 26.5265 8.3902 26.2765C8.14015 26.0264 7.99967 25.6873 7.99967 25.3337L7.99967 12.0003H10.6663V13.3337C10.6663 13.6873 10.8068 14.0264 11.0569 14.2765C11.3069 14.5265 11.6461 14.667 11.9997 14.667C12.3533 14.667 12.6924 14.5265 12.9425 14.2765C13.1925 14.0264 13.333 13.6873 13.333 13.3337V12.0003H18.6663V13.3337C18.6663 13.6873 18.8068 14.0264 19.0569 14.2765C19.3069 14.5265 19.6461 14.667 19.9997 14.667C20.3533 14.667 20.6924 14.5265 20.9425 14.2765C21.1925 14.0264 21.333 13.6873 21.333 13.3337V12.0003H23.9997V25.3337Z" fill="#383838"/>
</svg>
