<svg width="24" height="24" viewBox="0 0 24 24" fill="none" xmlns="http://www.w3.org/2000/svg">
<path d="M19.4406 12.9994C19.2206 12.9994 18.9906 12.9294 18.7706 12.8794C18.3251 12.7812 17.8873 12.6509 17.4606 12.4894C16.9967 12.3206 16.4867 12.3294 16.0289 12.514C15.5711 12.6986 15.1977 13.046 14.9806 13.4894L14.7606 13.9394C13.7866 13.3976 12.8916 12.7246 12.1006 11.9394C11.3154 11.1484 10.6424 10.2534 10.1006 9.27938L10.5206 8.99938C10.964 8.7823 11.3114 8.40891 11.496 7.95107C11.6806 7.49323 11.6894 6.98329 11.5206 6.51938C11.3618 6.0918 11.2315 5.65418 11.1306 5.20938C11.0806 4.98938 11.0406 4.75938 11.0106 4.52938C10.8892 3.825 10.5202 3.18712 9.97021 2.73062C9.42021 2.27412 8.72529 2.02899 8.01059 2.03938H5.01059C4.57962 2.03533 4.15284 2.12419 3.7593 2.29991C3.36576 2.47563 3.0147 2.73408 2.73002 3.05766C2.44534 3.38125 2.23372 3.76237 2.10958 4.17509C1.98543 4.58781 1.95167 5.02244 2.01059 5.44938C2.54333 9.63876 4.45662 13.5313 7.44824 16.512C10.4399 19.4928 14.3393 21.3919 18.5306 21.9094H18.9106C19.648 21.9105 20.36 21.6399 20.9106 21.1494C21.227 20.8664 21.4797 20.5196 21.6521 20.1317C21.8244 19.7438 21.9126 19.3238 21.9106 18.8994V15.8994C21.8983 15.2048 21.6454 14.5359 21.1949 14.007C20.7445 13.4782 20.1244 13.122 19.4406 12.9994V12.9994ZM19.9406 18.9994C19.9404 19.1414 19.91 19.2817 19.8514 19.411C19.7927 19.5403 19.7073 19.6557 19.6006 19.7494C19.4889 19.8459 19.3582 19.9179 19.217 19.961C19.0758 20.004 18.9271 20.0171 18.7806 19.9994C15.0355 19.5192 11.5568 17.8059 8.89331 15.1297C6.22979 12.4535 4.533 8.96672 4.07059 5.21938C4.05467 5.0729 4.06862 4.92471 4.11159 4.78377C4.15456 4.64283 4.22566 4.51207 4.32059 4.39938C4.4143 4.29271 4.52965 4.20722 4.65897 4.1486C4.78829 4.08997 4.9286 4.05956 5.07059 4.05938H8.07059C8.30314 4.05421 8.53021 4.13026 8.71273 4.27445C8.89525 4.41864 9.0218 4.62195 9.07059 4.84938C9.11059 5.12271 9.16059 5.39271 9.22059 5.65938C9.33611 6.18652 9.48985 6.70456 9.68059 7.20938L8.28059 7.85938C8.16089 7.9143 8.05321 7.99233 7.96375 8.08898C7.87428 8.18563 7.80479 8.29899 7.75926 8.42258C7.71373 8.54616 7.69306 8.67751 7.69844 8.8091C7.70381 8.94069 7.73513 9.06993 7.79059 9.18938C9.22979 12.2721 11.7078 14.7502 14.7906 16.1894C15.0341 16.2894 15.3071 16.2894 15.5506 16.1894C15.6753 16.1448 15.7899 16.0758 15.8878 15.9866C15.9856 15.8973 16.0648 15.7895 16.1206 15.6694L16.7406 14.2694C17.2576 14.4543 17.7852 14.6079 18.3206 14.7294C18.5873 14.7894 18.8573 14.8394 19.1306 14.8794C19.358 14.9282 19.5613 15.0547 19.7055 15.2372C19.8497 15.4198 19.9258 15.6468 19.9206 15.8794L19.9406 18.9994Z" fill="#F46B5B"/>
</svg>
