<svg width="10" height="7" viewBox="0 0 10 7" fill="none" xmlns="http://www.w3.org/2000/svg">
<path d="M5.03186 6.0374C4.89952 6.03817 4.76833 6.0128 4.64582 5.96276C4.52331 5.91272 4.41187 5.83899 4.31792 5.74579L0.295723 1.7236C0.106375 1.53425 0 1.27744 0 1.00966C0 0.741883 0.106375 0.485071 0.295723 0.295723C0.485072 0.106374 0.741883 0 1.00966 0C1.27744 0 1.53425 0.106374 1.7236 0.295723L5.03186 3.61403L8.34011 0.305779C8.53247 0.141043 8.77991 0.0549618 9.03298 0.0647369C9.28606 0.074512 9.52612 0.179424 9.7052 0.358506C9.88429 0.537589 9.9892 0.777652 9.99897 1.03072C10.0087 1.2838 9.92267 1.53124 9.75793 1.7236L5.73574 5.74579C5.54844 5.93156 5.29565 6.03629 5.03186 6.0374Z" fill="#383838"/>
</svg>
