<svg width="24" height="24" viewBox="0 0 24 24" fill="none" xmlns="http://www.w3.org/2000/svg">
<path d="M19.4397 12.9994C19.2197 12.9994 18.9897 12.9294 18.7697 12.8794C18.3242 12.7812 17.8864 12.6509 17.4597 12.4894C16.9958 12.3206 16.4859 12.3294 16.028 12.514C15.5702 12.6986 15.1968 13.046 14.9797 13.4894L14.7597 13.9394C13.7857 13.3976 12.8907 12.7246 12.0997 11.9394C11.3145 11.1484 10.6416 10.2534 10.0997 9.27938L10.5197 8.99938C10.9631 8.7823 11.3105 8.40891 11.4951 7.95107C11.6797 7.49323 11.6885 6.98329 11.5197 6.51938C11.361 6.0918 11.2307 5.65418 11.1297 5.20938C11.0797 4.98938 11.0397 4.75938 11.0097 4.52938C10.8883 3.825 10.5194 3.18712 9.96936 2.73062C9.41935 2.27412 8.72443 2.02899 8.00974 2.03938H5.00974C4.57877 2.03533 4.15198 2.12419 3.75844 2.29991C3.3649 2.47563 3.01384 2.73408 2.72917 3.05766C2.44449 3.38125 2.23287 3.76237 2.10872 4.17509C1.98458 4.58781 1.95081 5.02244 2.00973 5.44938C2.54247 9.63876 4.45576 13.5313 7.44739 16.512C10.439 19.4928 14.3384 21.3919 18.5297 21.9094H18.9097C19.6472 21.9105 20.3591 21.6399 20.9097 21.1494C21.2261 20.8664 21.4788 20.5196 21.6512 20.1317C21.8236 19.7438 21.9117 19.3238 21.9097 18.8994V15.8994C21.8975 15.2048 21.6445 14.5359 21.1941 14.007C20.7436 13.4782 20.1236 13.122 19.4397 12.9994V12.9994ZM19.9397 18.9994C19.9396 19.1414 19.9091 19.2817 19.8505 19.411C19.7919 19.5403 19.7064 19.6557 19.5997 19.7494C19.488 19.8459 19.3573 19.9179 19.2161 19.961C19.0749 20.004 18.9263 20.0171 18.7797 19.9994C15.0346 19.5192 11.556 17.8059 8.89245 15.1297C6.22893 12.4535 4.53215 8.96672 4.06974 5.21938C4.05382 5.0729 4.06777 4.92471 4.11074 4.78377C4.15371 4.64283 4.2248 4.51207 4.31974 4.39938C4.41345 4.29271 4.5288 4.20722 4.65811 4.1486C4.78743 4.08997 4.92775 4.05956 5.06974 4.05938H8.06973C8.30228 4.05421 8.52936 4.13026 8.71188 4.27445C8.8944 4.41864 9.02095 4.62195 9.06973 4.84938C9.10973 5.12271 9.15974 5.39271 9.21974 5.65938C9.33526 6.18652 9.48899 6.70456 9.67974 7.20938L8.27973 7.85938C8.16003 7.9143 8.05236 7.99233 7.96289 8.08898C7.87343 8.18563 7.80394 8.29899 7.75841 8.42258C7.71288 8.54616 7.69221 8.67751 7.69758 8.8091C7.70296 8.94069 7.73428 9.06993 7.78974 9.18938C9.22894 12.2721 11.707 14.7502 14.7897 16.1894C15.0332 16.2894 15.3063 16.2894 15.5497 16.1894C15.6744 16.1448 15.7891 16.0758 15.8869 15.9866C15.9848 15.8973 16.0639 15.7895 16.1197 15.6694L16.7397 14.2694C17.2567 14.4543 17.7843 14.6079 18.3197 14.7294C18.5864 14.7894 18.8564 14.8394 19.1297 14.8794C19.3572 14.9282 19.5605 15.0547 19.7047 15.2372C19.8489 15.4198 19.9249 15.6468 19.9197 15.8794L19.9397 18.9994Z" fill="#F46B5B"/>
</svg>
