<svg width="32" height="32" viewBox="0 0 32 32" fill="none" xmlns="http://www.w3.org/2000/svg">
<path d="M25.3334 5.33398H6.66675C5.60588 5.33398 4.58847 5.75541 3.83832 6.50556C3.08818 7.2557 2.66675 8.27312 2.66675 9.33398V22.6673C2.66675 23.7282 3.08818 24.7456 3.83832 25.4957C4.58847 26.2459 5.60588 26.6673 6.66675 26.6673H25.3334C26.3943 26.6673 27.4117 26.2459 28.1618 25.4957C28.912 24.7456 29.3334 23.7282 29.3334 22.6673V9.33398C29.3334 8.27312 28.912 7.2557 28.1618 6.50556C27.4117 5.75541 26.3943 5.33398 25.3334 5.33398V5.33398ZM24.5694 8.00065L16.8001 14.4007C16.578 14.5696 16.3084 14.6641 16.0295 14.6708C15.7506 14.6775 15.4766 14.596 15.2467 14.438L7.43075 8.00065H24.5694ZM25.3334 24.0006H6.66675C6.31313 24.0006 5.97399 23.8602 5.72394 23.6101C5.47389 23.3601 5.33341 23.0209 5.33341 22.6673V9.73398L13.6001 16.534C14.288 17.0491 15.1247 17.3266 15.9841 17.3247C16.8735 17.3233 17.7383 17.0327 18.4481 16.4967L26.6667 9.73398V22.6673C26.6667 23.0209 26.5263 23.3601 26.2762 23.6101C26.0262 23.8602 25.687 24.0006 25.3334 24.0006Z" fill="#383838"/>
</svg>
