<svg width="160" height="160" viewBox="0 0 160 160" fill="none" xmlns="http://www.w3.org/2000/svg">
<g filter="url(#filter0_d_889_637)">
<rect x="50" y="26" width="60" height="60" rx="8" fill="#FAFAFA"/>
<path d="M79 48V52C79 52.7956 78.6839 53.5587 78.1213 54.1213C77.5587 54.6839 76.7956 55 76 55H72C71.2044 55 70.4413 54.6839 69.8787 54.1213C69.3161 53.5587 69 52.7956 69 52V48C69 47.2044 69.3161 46.4413 69.8787 45.8787C70.4413 45.3161 71.2044 45 72 45H76C76.7956 45 77.5587 45.3161 78.1213 45.8787C78.6839 46.4413 79 47.2044 79 48ZM88 45H84C83.2044 45 82.4413 45.3161 81.8787 45.8787C81.3161 46.4413 81 47.2044 81 48V52C81 52.7956 81.3161 53.5587 81.8787 54.1213C82.4413 54.6839 83.2044 55 84 55H88C88.7956 55 89.5587 54.6839 90.1213 54.1213C90.6839 53.5587 91 52.7956 91 52V48C91 47.2044 90.6839 46.4413 90.1213 45.8787C89.5587 45.3161 88.7956 45 88 45V45ZM76 57H72C71.2044 57 70.4413 57.3161 69.8787 57.8787C69.3161 58.4413 69 59.2044 69 60V64C69 64.7956 69.3161 65.5587 69.8787 66.1213C70.4413 66.6839 71.2044 67 72 67H76C76.7956 67 77.5587 66.6839 78.1213 66.1213C78.6839 65.5587 79 64.7956 79 64V60C79 59.2044 78.6839 58.4413 78.1213 57.8787C77.5587 57.3161 76.7956 57 76 57ZM88 57H84C83.2044 57 82.4413 57.3161 81.8787 57.8787C81.3161 58.4413 81 59.2044 81 60V64C81 64.7956 81.3161 65.5587 81.8787 66.1213C82.4413 66.6839 83.2044 67 84 67H88C88.7956 67 89.5587 66.6839 90.1213 66.1213C90.6839 65.5587 91 64.7956 91 64V60C91 59.2044 90.6839 58.4413 90.1213 57.8787C89.5587 57.3161 88.7956 57 88 57Z" fill="#A7A7A7"/>
</g>
<defs>
<filter id="filter0_d_889_637" x="0" y="0" width="160" height="160" filterUnits="userSpaceOnUse" color-interpolation-filters="sRGB">
<feFlood flood-opacity="0" result="BackgroundImageFix"/>
<feColorMatrix in="SourceAlpha" type="matrix" values="0 0 0 0 0 0 0 0 0 0 0 0 0 0 0 0 0 0 127 0" result="hardAlpha"/>
<feOffset dy="24"/>
<feGaussianBlur stdDeviation="25"/>
<feComposite in2="hardAlpha" operator="out"/>
<feColorMatrix type="matrix" values="0 0 0 0 0 0 0 0 0 0 0 0 0 0 0 0 0 0 0.1 0"/>
<feBlend mode="normal" in2="BackgroundImageFix" result="effect1_dropShadow_889_637"/>
<feBlend mode="normal" in="SourceGraphic" in2="effect1_dropShadow_889_637" result="shape"/>
</filter>
</defs>
</svg>
