<svg width="32" height="32" viewBox="0 0 32 32" fill="none" xmlns="http://www.w3.org/2000/svg">
<path d="M15.9997 2.66602C13.1707 2.66602 10.4576 3.78982 8.4572 5.79021C6.45681 7.7906 5.33301 10.5037 5.33301 13.3327C5.33301 20.5327 14.733 28.666 15.133 29.0127C15.3745 29.2193 15.6819 29.3328 15.9997 29.3328C16.3175 29.3328 16.6248 29.2193 16.8663 29.0127C17.333 28.666 26.6663 20.5327 26.6663 13.3327C26.6663 10.5037 25.5425 7.7906 23.5421 5.79021C21.5418 3.78982 18.8286 2.66602 15.9997 2.66602V2.66602ZM15.9997 26.1993C13.1597 23.5327 7.99967 17.786 7.99967 13.3327C7.99967 11.211 8.84253 9.17612 10.3428 7.67583C11.8431 6.17554 13.8779 5.33268 15.9997 5.33268C18.1214 5.33268 20.1562 6.17554 21.6565 7.67583C23.1568 9.17612 23.9997 11.211 23.9997 13.3327C23.9997 17.786 18.8397 23.546 15.9997 26.1993ZM15.9997 7.99935C14.9448 7.99935 13.9137 8.31214 13.0366 8.89818C12.1596 9.48421 11.476 10.3172 11.0723 11.2917C10.6686 12.2662 10.563 13.3386 10.7688 14.3732C10.9746 15.4077 11.4826 16.358 12.2284 17.1039C12.9743 17.8498 13.9246 18.3578 14.9592 18.5635C15.9938 18.7693 17.0661 18.6637 18.0407 18.26C19.0152 17.8564 19.8481 17.1728 20.4342 16.2957C21.0202 15.4187 21.333 14.3875 21.333 13.3327C21.333 11.9182 20.7711 10.5616 19.7709 9.56145C18.7707 8.56125 17.4142 7.99935 15.9997 7.99935ZM15.9997 15.9993C15.4723 15.9993 14.9567 15.843 14.5182 15.5499C14.0796 15.2569 13.7378 14.8404 13.536 14.3532C13.3342 13.8659 13.2814 13.3297 13.3842 12.8124C13.4871 12.2952 13.7411 11.82 14.1141 11.4471C14.487 11.0741 14.9622 10.8201 15.4794 10.7173C15.9967 10.6144 16.5329 10.6672 17.0202 10.869C17.5074 11.0708 17.9239 11.4126 18.2169 11.8512C18.5099 12.2897 18.6663 12.8053 18.6663 13.3327C18.6663 14.0399 18.3854 14.7182 17.8853 15.2183C17.3852 15.7184 16.7069 15.9993 15.9997 15.9993Z" fill="#FAFAFA"/>
</svg>
