<svg width="80" height="80" viewBox="0 0 80 80" fill="none" xmlns="http://www.w3.org/2000/svg">
<path d="M48.75 47H47C46.5359 47 46.0908 47.1844 45.7626 47.5126C45.4344 47.8408 45.25 48.2859 45.25 48.75C45.25 49.2141 45.4344 49.6592 45.7626 49.9874C46.0908 50.3156 46.5359 50.5 47 50.5H48.75C49.2141 50.5 49.6592 50.3156 49.9874 49.9874C50.3156 49.6592 50.5 49.2141 50.5 48.75C50.5 48.2859 50.3156 47.8408 49.9874 47.5126C49.6592 47.1844 49.2141 47 48.75 47ZM48.75 52.25H47C46.5359 52.25 46.0908 52.4344 45.7626 52.7626C45.4344 53.0908 45.25 53.5359 45.25 54C45.25 54.4641 45.4344 54.9092 45.7626 55.2374C46.0908 55.5656 46.5359 55.75 47 55.75H48.75C49.2141 55.75 49.6592 55.5656 49.9874 55.2374C50.3156 54.9092 50.5 54.4641 50.5 54C50.5 53.5359 50.3156 53.0908 49.9874 52.7626C49.6592 52.4344 49.2141 52.25 48.75 52.25ZM48.75 41.75H47C46.5359 41.75 46.0908 41.9344 45.7626 42.2626C45.4344 42.5908 45.25 43.0359 45.25 43.5C45.25 43.9641 45.4344 44.4092 45.7626 44.7374C46.0908 45.0656 46.5359 45.25 47 45.25H48.75C49.2141 45.25 49.6592 45.0656 49.9874 44.7374C50.3156 44.4092 50.5 43.9641 50.5 43.5C50.5 43.0359 50.3156 42.5908 49.9874 42.2626C49.6592 41.9344 49.2141 41.75 48.75 41.75ZM55.75 47H54C53.5359 47 53.0908 47.1844 52.7626 47.5126C52.4344 47.8408 52.25 48.2859 52.25 48.75C52.25 49.2141 52.4344 49.6592 52.7626 49.9874C53.0908 50.3156 53.5359 50.5 54 50.5H55.75C56.2141 50.5 56.6592 50.3156 56.9874 49.9874C57.3156 49.6592 57.5 49.2141 57.5 48.75C57.5 48.2859 57.3156 47.8408 56.9874 47.5126C56.6592 47.1844 56.2141 47 55.75 47ZM55.75 52.25H54C53.5359 52.25 53.0908 52.4344 52.7626 52.7626C52.4344 53.0908 52.25 53.5359 52.25 54C52.25 54.4641 52.4344 54.9092 52.7626 55.2374C53.0908 55.5656 53.5359 55.75 54 55.75H55.75C56.2141 55.75 56.6592 55.5656 56.9874 55.2374C57.3156 54.9092 57.5 54.4641 57.5 54C57.5 53.5359 57.3156 53.0908 56.9874 52.7626C56.6592 52.4344 56.2141 52.25 55.75 52.25ZM52.25 43.5C52.25 43.9641 52.4344 44.4092 52.7626 44.7374C53.0908 45.0656 53.5359 45.25 54 45.25H55.75C56.2141 45.25 56.6592 45.0656 56.9874 44.7374C57.3156 44.4092 57.5 43.9641 57.5 43.5C57.5 43.0359 57.3156 42.5908 56.9874 42.2626C56.6592 41.9344 56.2141 41.75 55.75 41.75H54C53.5359 41.75 53.0908 41.9344 52.7626 42.2626C52.4344 42.5908 52.25 43.0359 52.25 43.5ZM40 48.75H33C32.5359 48.75 32.0908 48.9344 31.7626 49.2626C31.4344 49.5908 31.25 50.0359 31.25 50.5C31.25 50.9641 31.4344 51.4092 31.7626 51.7374C32.0908 52.0656 32.5359 52.25 33 52.25H40C40.4641 52.25 40.9092 52.0656 41.2374 51.7374C41.5656 51.4092 41.75 50.9641 41.75 50.5C41.75 50.0359 41.5656 49.5908 41.2374 49.2626C40.9092 48.9344 40.4641 48.75 40 48.75ZM27.75 48.75H26C25.5359 48.75 25.0908 48.9344 24.7626 49.2626C24.4344 49.5908 24.25 50.0359 24.25 50.5C24.25 50.9641 24.4344 51.4092 24.7626 51.7374C25.0908 52.0656 25.5359 52.25 26 52.25H27.75C28.2141 52.25 28.6592 52.0656 28.9874 51.7374C29.3156 51.4092 29.5 50.9641 29.5 50.5C29.5 50.0359 29.3156 49.5908 28.9874 49.2626C28.6592 48.9344 28.2141 48.75 27.75 48.75ZM54 40C54 39.5359 53.8156 39.0908 53.4874 38.7626C53.1592 38.4344 52.7141 38.25 52.25 38.25H50.5C50.0359 38.25 49.5908 38.4344 49.2626 38.7626C48.9344 39.0908 48.75 39.5359 48.75 40C48.75 40.4641 48.9344 40.9092 49.2626 41.2374C49.5908 41.5656 50.0359 41.75 50.5 41.75H52.25C52.7141 41.75 53.1592 41.5656 53.4874 41.2374C53.8156 40.9092 54 40.4641 54 40Z" fill="#F46B5B"/>
<path d="M59.25 19H20.75C20.2859 19 19.8408 19.1844 19.5126 19.5126C19.1844 19.8408 19 20.2859 19 20.75V57.5C19 57.9641 19.1844 58.4092 19.5126 58.7374C19.8408 59.0656 20.2859 59.25 20.75 59.25H59.25C59.7141 59.25 60.1592 59.0656 60.4874 58.7374C60.8156 58.4092 61 57.9641 61 57.5V20.75C61 20.2859 60.8156 19.8408 60.4874 19.5126C60.1592 19.1844 59.7141 19 59.25 19V19ZM22.5 22.5H57.5V33H45.25C44.7859 33 44.3408 33.1844 44.0126 33.5126C43.6844 33.8408 43.5 34.2859 43.5 34.75V43.5H22.5V22.5ZM22.5 47H43.5V55.75H22.5V47ZM57.5 55.75H47V36.5H57.5V55.75Z" fill="#383838"/>
<rect x="1" y="1" width="78" height="78" rx="11" stroke="#A7A7A7" stroke-width="2"/>
</svg>
