<svg width="216" height="56" viewBox="0 0 216 56" fill="none" xmlns="http://www.w3.org/2000/svg">
<rect opacity="0.5" width="56" height="56" rx="8" fill="#F46B5B"/>
<path d="M36.8997 17.0997C36.5041 17.0997 36.1174 17.217 35.7885 17.4367C35.4596 17.6565 35.2033 17.9689 35.0519 18.3343C34.9005 18.6998 34.8609 19.1019 34.9381 19.4899C35.0153 19.8778 35.2058 20.2342 35.4855 20.5139C35.7652 20.7936 36.1215 20.9841 36.5095 21.0612C36.8975 21.1384 37.2996 21.0988 37.665 20.9474C38.0305 20.7961 38.3429 20.5397 38.5626 20.2108C38.7824 19.8819 38.8997 19.4952 38.8997 19.0997C38.8997 18.5692 38.689 18.0605 38.3139 17.6855C37.9388 17.3104 37.4301 17.0997 36.8997 17.0997V17.0997ZM44.5663 21.133C44.5339 19.7502 44.2749 18.382 43.7997 17.083C43.3759 15.9716 42.7163 14.9651 41.8663 14.133C41.041 13.2787 40.0323 12.6233 38.9163 12.2163C37.6208 11.7266 36.2511 11.4617 34.8663 11.433C33.0997 11.333 32.533 11.333 27.9997 11.333C23.4663 11.333 22.8997 11.333 21.133 11.433C19.7483 11.4617 18.3786 11.7266 17.083 12.2163C15.9691 12.6274 14.9612 13.2823 14.133 14.133C13.2787 14.9583 12.6233 15.9671 12.2163 17.083C11.7266 18.3786 11.4617 19.7483 11.433 21.133C11.333 22.8997 11.333 23.4663 11.333 27.9997C11.333 32.533 11.333 33.0997 11.433 34.8663C11.4617 36.2511 11.7266 37.6208 12.2163 38.9163C12.6233 40.0323 13.2787 41.041 14.133 41.8663C14.9612 42.7171 15.9691 43.3719 17.083 43.783C18.3786 44.2727 19.7483 44.5377 21.133 44.5663C22.8997 44.6663 23.4663 44.6663 27.9997 44.6663C32.533 44.6663 33.0997 44.6663 34.8663 44.5663C36.2511 44.5377 37.6208 44.2727 38.9163 43.783C40.0323 43.376 41.041 42.7206 41.8663 41.8663C42.7201 41.0373 43.3802 40.03 43.7997 38.9163C44.2749 37.6173 44.5339 36.2492 44.5663 34.8663C44.5663 33.0997 44.6663 32.533 44.6663 27.9997C44.6663 23.4663 44.6663 22.8997 44.5663 21.133V21.133ZM41.5663 34.6663C41.5542 35.7243 41.3626 36.7725 40.9997 37.7663C40.7336 38.4917 40.3061 39.147 39.7497 39.683C39.2091 40.2339 38.5551 40.6604 37.833 40.933C36.8392 41.2959 35.791 41.4875 34.733 41.4997C33.0663 41.583 32.4497 41.5997 28.0663 41.5997C23.683 41.5997 23.0663 41.5997 21.3997 41.4997C20.3012 41.5202 19.2073 41.3511 18.1663 40.9997C17.476 40.7131 16.8519 40.2877 16.333 39.7497C15.7798 39.2143 15.3577 38.5583 15.0997 37.833C14.6928 36.8249 14.4671 35.7529 14.433 34.6663C14.433 32.9997 14.333 32.383 14.333 27.9997C14.333 23.6163 14.333 22.9997 14.433 21.333C14.4405 20.2514 14.6379 19.1796 15.0163 18.1663C15.3098 17.4629 15.7601 16.8358 16.333 16.333C16.8394 15.76 17.4652 15.3048 18.1663 14.9997C19.1823 14.6331 20.253 14.4415 21.333 14.433C22.9997 14.433 23.6163 14.333 27.9997 14.333C32.383 14.333 32.9997 14.333 34.6663 14.433C35.7243 14.4451 36.7725 14.6368 37.7663 14.9997C38.5237 15.2808 39.2035 15.7378 39.7497 16.333C40.2958 16.845 40.7226 17.4709 40.9997 18.1663C41.3701 19.1812 41.5618 20.2526 41.5663 21.333C41.6497 22.9997 41.6663 23.6163 41.6663 27.9997C41.6663 32.383 41.6497 32.9997 41.5663 34.6663ZM27.9997 19.4497C26.3094 19.453 24.6579 19.9572 23.2541 20.8987C21.8503 21.8402 20.757 23.1767 20.1124 24.7393C19.4678 26.3019 19.3009 28.0205 19.6327 29.6779C19.9644 31.3353 20.7801 32.8572 21.9765 34.0513C23.1729 35.2454 24.6964 36.058 26.3544 36.3866C28.0125 36.7151 29.7308 36.5449 31.2921 35.8972C32.8535 35.2496 34.1878 34.1537 35.1266 32.7481C36.0653 31.3424 36.5663 29.69 36.5663 27.9997C36.5685 26.8748 36.3483 25.7607 35.9184 24.7213C35.4885 23.6819 34.8573 22.7377 34.0611 21.9431C33.265 21.1485 32.3196 20.5191 31.2793 20.0912C30.2391 19.6633 29.1245 19.4453 27.9997 19.4497V19.4497ZM27.9997 33.5497C26.902 33.5497 25.829 33.2242 24.9163 32.6143C24.0036 32.0045 23.2922 31.1377 22.8721 30.1236C22.4521 29.1094 22.3422 27.9935 22.5563 26.9169C22.7705 25.8403 23.2991 24.8514 24.0752 24.0752C24.8514 23.2991 25.8403 22.7705 26.9169 22.5563C27.9935 22.3422 29.1094 22.4521 30.1236 22.8721C31.1377 23.2922 32.0045 24.0036 32.6143 24.9163C33.2242 25.829 33.5497 26.902 33.5497 27.9997C33.5497 28.7285 33.4061 29.4502 33.1272 30.1236C32.8483 30.7969 32.4395 31.4088 31.9241 31.9241C31.4088 32.4395 30.7969 32.8483 30.1236 33.1272C29.4502 33.4061 28.7285 33.5497 27.9997 33.5497V33.5497Z" fill="#FAFAFA"/>
<rect opacity="0.5" x="80" width="56" height="56" rx="8" fill="#F46B5B"/>
<path d="M102.183 41.3332H102.05C99.3636 41.3097 96.7164 40.6892 94.2997 39.5165C93.8551 39.3077 93.4891 38.9621 93.2552 38.5302C93.0212 38.0984 92.9317 37.603 92.9997 37.1165C93.0736 36.6268 93.3003 36.173 93.6475 35.8198C93.9947 35.4666 94.4446 35.2321 94.933 35.1499C96.4307 34.9501 97.8715 34.4452 99.1663 33.6665C96.9183 31.9089 95.1876 29.5758 94.1577 26.9145C93.1278 24.2533 92.8371 21.3629 93.3163 18.5499C93.3813 18.1043 93.5729 17.6868 93.8684 17.347C94.1639 17.0072 94.5508 16.7594 94.983 16.6332C95.4035 16.5011 95.8536 16.4955 96.2773 16.617C96.701 16.7385 97.0797 16.9817 97.3663 17.3165C98.3397 18.5928 99.5628 19.6575 100.961 20.4455C102.36 21.2335 103.904 21.7283 105.5 21.8999C105.576 19.9363 106.42 18.0811 107.85 16.7332C108.564 16.0495 109.407 15.5147 110.329 15.1601C111.252 14.8054 112.236 14.6379 113.224 14.6674C114.212 14.6968 115.185 14.9227 116.085 15.3317C116.985 15.7408 117.794 16.3248 118.466 17.0499C118.641 17.2047 118.859 17.3033 119.091 17.333C119.323 17.3627 119.558 17.3221 119.766 17.2165C120.164 17.0291 120.606 16.9586 121.042 17.0131C121.478 17.0677 121.89 17.2451 122.229 17.5246C122.568 17.8042 122.82 18.1743 122.957 18.592C123.093 19.0096 123.108 19.4574 123 19.8832C122.615 21.4667 121.887 22.9462 120.866 24.2165C120.641 28.9578 118.551 33.4178 115.051 36.6242C111.551 39.8306 106.926 41.5233 102.183 41.3332V41.3332ZM102.183 37.9999H102.316C104.254 38.0665 106.186 37.7478 108 37.0623C109.813 36.3768 111.473 35.3381 112.882 34.0063C114.291 32.6746 115.422 31.0764 116.209 29.3044C116.996 27.5323 117.423 25.6217 117.466 23.6832C117.494 23.152 117.713 22.6487 118.083 22.2665C118.49 21.7519 118.836 21.1928 119.116 20.5999C118.516 20.601 117.922 20.4754 117.373 20.2313C116.825 19.9872 116.334 19.63 115.933 19.1832C115.547 18.8008 115.089 18.4992 114.586 18.296C114.082 18.0928 113.543 17.9921 113 17.9999C112.451 17.9857 111.905 18.08 111.393 18.2773C110.881 18.4747 110.413 18.7712 110.016 19.1499C109.481 19.6582 109.088 20.2983 108.877 21.0061C108.667 21.714 108.646 22.4647 108.816 23.1832L109.25 25.0832L107.3 25.2165C105.301 25.3795 103.292 25.1061 101.41 24.4155C99.5276 23.7248 97.8181 22.6333 96.3997 21.2165C96.3388 23.4105 96.8877 25.5784 97.9852 27.4792C99.0826 29.3799 100.686 30.939 102.616 31.9832L104.2 32.8832L103.15 34.3832C102.014 35.8724 100.458 36.987 98.683 37.5832C99.8219 37.8686 100.992 38.0087 102.166 37.9999H102.183Z" fill="#FAFAFA"/>
<rect opacity="0.5" x="160" width="56" height="56" rx="8" fill="#F46B5B"/>
<path d="M202.834 11.333H173.167C172.681 11.333 172.215 11.5262 171.871 11.87C171.527 12.2138 171.334 12.6801 171.334 13.1663V42.833C171.334 43.0738 171.381 43.3122 171.474 43.5346C171.566 43.757 171.701 43.9591 171.871 44.1294C172.041 44.2996 172.243 44.4347 172.466 44.5268C172.688 44.6189 172.927 44.6663 173.167 44.6663H189.134V31.7497H184.801V26.7497H189.134V22.9997C189.044 22.1193 189.148 21.2299 189.439 20.3939C189.729 19.5579 190.199 18.7956 190.815 18.1604C191.431 17.5251 192.179 17.0324 193.005 16.7167C193.832 16.4011 194.718 16.2701 195.601 16.333C196.898 16.325 198.194 16.3918 199.484 16.533V21.033H196.834C194.734 21.033 194.334 22.033 194.334 23.483V26.6997H199.334L198.684 31.6997H194.334V44.6663H202.834C203.075 44.6663 203.313 44.6189 203.536 44.5268C203.758 44.4347 203.96 44.2996 204.13 44.1294C204.301 43.9591 204.436 43.757 204.528 43.5346C204.62 43.3122 204.667 43.0738 204.667 42.833V13.1663C204.667 12.9256 204.62 12.6872 204.528 12.4648C204.436 12.2423 204.301 12.0402 204.13 11.87C203.96 11.6997 203.758 11.5647 203.536 11.4726C203.313 11.3804 203.075 11.333 202.834 11.333V11.333Z" fill="#FAFAFA"/>
</svg>
