<svg width="148" height="148" viewBox="0 0 148 148" fill="none" xmlns="http://www.w3.org/2000/svg">
<g filter="url(#filter0_d_1004_87)">
<rect x="50" y="26" width="48" height="48" rx="8" fill="#FAFAFA"/>
<path d="M78.0001 49.9998C78.0011 50.1752 77.9675 50.3492 77.9011 50.5116C77.8348 50.6741 77.737 50.8218 77.6134 50.9464L72.2801 56.2798C72.029 56.5308 71.6885 56.6719 71.3334 56.6719C70.9783 56.6719 70.6378 56.5308 70.3868 56.2798C70.1357 56.0287 69.9946 55.6882 69.9946 55.3331C69.9946 54.978 70.1357 54.6375 70.3868 54.3864L74.7868 49.9998L70.4001 45.6131C70.1816 45.358 70.0675 45.0299 70.0805 44.6943C70.0934 44.3588 70.2325 44.0405 70.47 43.803C70.7075 43.5655 71.0258 43.4264 71.3613 43.4135C71.6969 43.4005 72.025 43.5147 72.2801 43.7331L77.6134 49.0664C77.8597 49.3148 77.9986 49.65 78.0001 49.9998Z" fill="#F46B5B"/>
</g>
<defs>
<filter id="filter0_d_1004_87" x="0" y="0" width="148" height="148" filterUnits="userSpaceOnUse" color-interpolation-filters="sRGB">
<feFlood flood-opacity="0" result="BackgroundImageFix"/>
<feColorMatrix in="SourceAlpha" type="matrix" values="0 0 0 0 0 0 0 0 0 0 0 0 0 0 0 0 0 0 127 0" result="hardAlpha"/>
<feOffset dy="24"/>
<feGaussianBlur stdDeviation="25"/>
<feComposite in2="hardAlpha" operator="out"/>
<feColorMatrix type="matrix" values="0 0 0 0 0 0 0 0 0 0 0 0 0 0 0 0 0 0 0.1 0"/>
<feBlend mode="normal" in2="BackgroundImageFix" result="effect1_dropShadow_1004_87"/>
<feBlend mode="normal" in="SourceGraphic" in2="effect1_dropShadow_1004_87" result="shape"/>
</filter>
</defs>
</svg>
