<svg width="24" height="24" viewBox="0 0 24 24" fill="none" xmlns="http://www.w3.org/2000/svg">
<path d="M18.714 19.409C20.2109 18.0529 21.262 16.2753 21.729 14.3102C22.196 12.3451 22.057 10.2847 21.3303 8.4001C20.6036 6.51554 19.3232 4.89522 17.6578 3.75246C15.9923 2.60969 14.0198 1.99805 12 1.99805C9.98018 1.99805 8.0077 2.60969 6.34224 3.75246C4.67678 4.89522 3.39641 6.51554 2.66969 8.4001C1.94297 10.2847 1.80396 12.3451 2.27097 14.3102C2.73799 16.2753 3.78912 18.0529 5.286 19.409C7.12787 21.0698 9.51993 21.989 12 21.989C14.4801 21.989 16.8721 21.0698 18.714 19.409V19.409ZM12 4C14.121 4.00238 16.1545 4.846 17.6542 6.34578C19.154 7.84555 19.9976 9.879 20 12C20.006 13.8438 19.3655 15.6315 18.19 17.052C17.8168 16.5616 17.386 16.1177 16.907 15.73C15.5154 14.6125 13.7847 14.0023 12 14C10.8032 13.9998 9.6226 14.2761 8.55024 14.8074C7.47788 15.3387 6.54281 16.1107 5.818 17.063C4.63746 15.6405 3.99402 13.8486 4 12C4.00238 9.879 4.846 7.84555 6.34578 6.34578C7.84555 4.846 9.879 4.00238 12 4V4ZM7.266 18.446C7.80132 17.6888 8.5108 17.0713 9.33467 16.6456C10.1585 16.2199 11.0727 15.9985 12 16C13.3283 16.002 14.6163 16.4562 15.652 17.288C16.066 17.6209 16.4319 18.0096 16.739 18.443C15.3656 19.4509 13.7066 19.9947 12.003 19.9952C10.2994 19.9957 8.64005 19.4531 7.266 18.446V18.446Z" fill="#F46B5B"/>
<path d="M12 13C12.7911 13 13.5645 12.7654 14.2223 12.3259C14.8801 11.8864 15.3928 11.2616 15.6955 10.5307C15.9983 9.79983 16.0775 8.99556 15.9231 8.21964C15.7688 7.44372 15.3878 6.73098 14.8284 6.17157C14.269 5.61216 13.5563 5.2312 12.7804 5.07686C12.0044 4.92252 11.2002 5.00173 10.4693 5.30448C9.73836 5.60723 9.11365 6.11992 8.67412 6.77772C8.2346 7.43552 8 8.20888 8 9C8 10.0609 8.42143 11.0783 9.17157 11.8284C9.92172 12.5786 10.9391 13 12 13ZM12 7C12.3956 7 12.7822 7.1173 13.1111 7.33706C13.44 7.55683 13.6964 7.86918 13.8478 8.23464C13.9991 8.60009 14.0387 9.00222 13.9616 9.39018C13.8844 9.77814 13.6939 10.1345 13.4142 10.4142C13.1345 10.6939 12.7781 10.8844 12.3902 10.9616C12.0022 11.0387 11.6001 10.9991 11.2346 10.8478C10.8692 10.6964 10.5568 10.44 10.3371 10.1111C10.1173 9.78224 10 9.39556 10 9C10 8.46957 10.2107 7.96086 10.5858 7.58579C10.9609 7.21072 11.4696 7 12 7Z" fill="#F46B5B"/>
</svg>
