<svg width="24" height="24" viewBox="0 0 24 24" fill="none" xmlns="http://www.w3.org/2000/svg">
<path d="M12.0002 14C12.198 14 12.3914 13.9414 12.5558 13.8315C12.7203 13.7216 12.8484 13.5654 12.9241 13.3827C12.9998 13.2 13.0196 12.9989 12.981 12.8049C12.9424 12.6109 12.8472 12.4327 12.7074 12.2929C12.5675 12.153 12.3893 12.0578 12.1953 12.0192C12.0014 11.9806 11.8003 12.0004 11.6176 12.0761C11.4348 12.1518 11.2787 12.28 11.1688 12.4444C11.0589 12.6089 11.0002 12.8022 11.0002 13C11.0002 13.2652 11.1056 13.5196 11.2931 13.7071C11.4807 13.8946 11.735 14 12.0002 14ZM17.0002 14C17.198 14 17.3914 13.9414 17.5558 13.8315C17.7203 13.7216 17.8484 13.5654 17.9241 13.3827C17.9998 13.2 18.0196 12.9989 17.981 12.8049C17.9424 12.6109 17.8472 12.4327 17.7074 12.2929C17.5675 12.153 17.3893 12.0578 17.1953 12.0192C17.0014 11.9806 16.8003 12.0004 16.6176 12.0761C16.4348 12.1518 16.2787 12.28 16.1688 12.4444C16.0589 12.6089 16.0002 12.8022 16.0002 13C16.0002 13.2652 16.1056 13.5196 16.2931 13.7071C16.4807 13.8946 16.735 14 17.0002 14ZM12.0002 18C12.198 18 12.3914 17.9414 12.5558 17.8315C12.7203 17.7216 12.8484 17.5654 12.9241 17.3827C12.9998 17.2 13.0196 16.9989 12.981 16.8049C12.9424 16.6109 12.8472 16.4327 12.7074 16.2929C12.5675 16.153 12.3893 16.0578 12.1953 16.0192C12.0014 15.9806 11.8003 16.0004 11.6176 16.0761C11.4348 16.1518 11.2787 16.28 11.1688 16.4444C11.0589 16.6089 11.0002 16.8022 11.0002 17C11.0002 17.2652 11.1056 17.5196 11.2931 17.7071C11.4807 17.8946 11.735 18 12.0002 18ZM17.0002 18C17.198 18 17.3914 17.9414 17.5558 17.8315C17.7203 17.7216 17.8484 17.5654 17.9241 17.3827C17.9998 17.2 18.0196 16.9989 17.981 16.8049C17.9424 16.6109 17.8472 16.4327 17.7074 16.2929C17.5675 16.153 17.3893 16.0578 17.1953 16.0192C17.0014 15.9806 16.8003 16.0004 16.6176 16.0761C16.4348 16.1518 16.2787 16.28 16.1688 16.4444C16.0589 16.6089 16.0002 16.8022 16.0002 17C16.0002 17.2652 16.1056 17.5196 16.2931 17.7071C16.4807 17.8946 16.735 18 17.0002 18ZM7.00024 14C7.19803 14 7.39137 13.9414 7.55581 13.8315C7.72026 13.7216 7.84844 13.5654 7.92412 13.3827C7.99981 13.2 8.01962 12.9989 7.98103 12.8049C7.94244 12.6109 7.8472 12.4327 7.70735 12.2929C7.5675 12.153 7.38932 12.0578 7.19534 12.0192C7.00135 11.9806 6.80029 12.0004 6.61756 12.0761C6.43484 12.1518 6.27866 12.28 6.16878 12.4444C6.05889 12.6089 6.00024 12.8022 6.00024 13C6.00024 13.2652 6.1056 13.5196 6.29314 13.7071C6.48067 13.8946 6.73503 14 7.00024 14ZM19.0002 4H18.0002V3C18.0002 2.73478 17.8949 2.48043 17.7074 2.29289C17.5198 2.10536 17.2655 2 17.0002 2C16.735 2 16.4807 2.10536 16.2931 2.29289C16.1056 2.48043 16.0002 2.73478 16.0002 3V4H8.00024V3C8.00024 2.73478 7.89489 2.48043 7.70735 2.29289C7.51982 2.10536 7.26546 2 7.00024 2C6.73503 2 6.48067 2.10536 6.29314 2.29289C6.1056 2.48043 6.00024 2.73478 6.00024 3V4H5.00024C4.20459 4 3.44153 4.31607 2.87892 4.87868C2.31631 5.44129 2.00024 6.20435 2.00024 7V19C2.00024 19.7957 2.31631 20.5587 2.87892 21.1213C3.44153 21.6839 4.20459 22 5.00024 22H19.0002C19.7959 22 20.559 21.6839 21.1216 21.1213C21.6842 20.5587 22.0002 19.7957 22.0002 19V7C22.0002 6.20435 21.6842 5.44129 21.1216 4.87868C20.559 4.31607 19.7959 4 19.0002 4V4ZM20.0002 19C20.0002 19.2652 19.8949 19.5196 19.7074 19.7071C19.5198 19.8946 19.2655 20 19.0002 20H5.00024C4.73503 20 4.48067 19.8946 4.29314 19.7071C4.1056 19.5196 4.00024 19.2652 4.00024 19V10H20.0002V19ZM20.0002 8H4.00024V7C4.00024 6.73478 4.1056 6.48043 4.29314 6.29289C4.48067 6.10536 4.73503 6 5.00024 6H19.0002C19.2655 6 19.5198 6.10536 19.7074 6.29289C19.8949 6.48043 20.0002 6.73478 20.0002 7V8ZM7.00024 18C7.19803 18 7.39137 17.9414 7.55581 17.8315C7.72026 17.7216 7.84844 17.5654 7.92412 17.3827C7.99981 17.2 8.01962 16.9989 7.98103 16.8049C7.94244 16.6109 7.8472 16.4327 7.70735 16.2929C7.5675 16.153 7.38932 16.0578 7.19534 16.0192C7.00135 15.9806 6.80029 16.0004 6.61756 16.0761C6.43484 16.1518 6.27866 16.28 6.16878 16.4444C6.05889 16.6089 6.00024 16.8022 6.00024 17C6.00024 17.2652 6.1056 17.5196 6.29314 17.7071C6.48067 17.8946 6.73503 18 7.00024 18Z" fill="#A7A7A7"/>
</svg>
