<svg width="32" height="32" viewBox="0 0 32 32" fill="none" xmlns="http://www.w3.org/2000/svg">
<path d="M25.3337 5.33301H6.66699C5.60613 5.33301 4.58871 5.75444 3.83857 6.50458C3.08842 7.25473 2.66699 8.27214 2.66699 9.33301V22.6663C2.66699 23.7272 3.08842 24.7446 3.83857 25.4948C4.58871 26.2449 5.60613 26.6663 6.66699 26.6663H25.3337C26.3945 26.6663 27.4119 26.2449 28.1621 25.4948C28.9122 24.7446 29.3337 23.7272 29.3337 22.6663V9.33301C29.3337 8.27214 28.9122 7.25473 28.1621 6.50458C27.4119 5.75444 26.3945 5.33301 25.3337 5.33301V5.33301ZM24.5697 7.99967L16.8003 14.3997C16.5783 14.5686 16.3086 14.6631 16.0297 14.6698C15.7508 14.6765 15.4769 14.5951 15.247 14.437L7.43099 7.99967H24.5697ZM25.3337 23.9997H6.66699C6.31337 23.9997 5.97423 23.8592 5.72418 23.6092C5.47413 23.3591 5.33366 23.02 5.33366 22.6663V9.73301L13.6003 16.533C14.2882 17.0481 15.1249 17.3256 15.9843 17.3237C16.8737 17.3223 17.7386 17.0317 18.4483 16.4957L26.667 9.73301V22.6663C26.667 23.02 26.5265 23.3591 26.2765 23.6092C26.0264 23.8592 25.6873 23.9997 25.3337 23.9997Z" fill="#383838"/>
</svg>
