<svg width="48" height="48" viewBox="0 0 48 48" fill="none" xmlns="http://www.w3.org/2000/svg">
<rect width="48" height="48" rx="8" fill="#D0D0D2" fill-opacity="0.25"/>
<path d="M23 16V20C23 20.7956 22.6839 21.5587 22.1213 22.1213C21.5587 22.6839 20.7956 23 20 23H16C15.2044 23 14.4413 22.6839 13.8787 22.1213C13.3161 21.5587 13 20.7956 13 20V16C13 15.2044 13.3161 14.4413 13.8787 13.8787C14.4413 13.3161 15.2044 13 16 13H20C20.7956 13 21.5587 13.3161 22.1213 13.8787C22.6839 14.4413 23 15.2044 23 16ZM32 13H28C27.2044 13 26.4413 13.3161 25.8787 13.8787C25.3161 14.4413 25 15.2044 25 16V20C25 20.7956 25.3161 21.5587 25.8787 22.1213C26.4413 22.6839 27.2044 23 28 23H32C32.7956 23 33.5587 22.6839 34.1213 22.1213C34.6839 21.5587 35 20.7956 35 20V16C35 15.2044 34.6839 14.4413 34.1213 13.8787C33.5587 13.3161 32.7956 13 32 13V13ZM20 25H16C15.2044 25 14.4413 25.3161 13.8787 25.8787C13.3161 26.4413 13 27.2044 13 28V32C13 32.7956 13.3161 33.5587 13.8787 34.1213C14.4413 34.6839 15.2044 35 16 35H20C20.7956 35 21.5587 34.6839 22.1213 34.1213C22.6839 33.5587 23 32.7956 23 32V28C23 27.2044 22.6839 26.4413 22.1213 25.8787C21.5587 25.3161 20.7956 25 20 25ZM32 25H28C27.2044 25 26.4413 25.3161 25.8787 25.8787C25.3161 26.4413 25 27.2044 25 28V32C25 32.7956 25.3161 33.5587 25.8787 34.1213C26.4413 34.6839 27.2044 35 28 35H32C32.7956 35 33.5587 34.6839 34.1213 34.1213C34.6839 33.5587 35 32.7956 35 32V28C35 27.2044 34.6839 26.4413 34.1213 25.8787C33.5587 25.3161 32.7956 25 32 25Z" fill="#A7A7A7"/>
</svg>
