<svg width="24" height="24" viewBox="0 0 24 24" fill="none" xmlns="http://www.w3.org/2000/svg">
<path d="M12.0002 15.0002C11.8686 15.0009 11.7381 14.9757 11.6163 14.926C11.4944 14.8762 11.3836 14.8029 11.2902 14.7102L7.29019 10.7102C7.10188 10.5219 6.99609 10.2665 6.99609 10.0002C6.99609 9.73388 7.10188 9.47849 7.29019 9.29018C7.47849 9.10188 7.73388 8.99609 8.00019 8.99609C8.26649 8.99609 8.52188 9.10188 8.71019 9.29018L12.0002 12.5902L15.2902 9.30019C15.4815 9.13636 15.7276 9.05075 15.9792 9.06047C16.2309 9.07019 16.4697 9.17453 16.6477 9.35262C16.8258 9.53072 16.9302 9.76946 16.9399 10.0211C16.9496 10.2728 16.864 10.5189 16.7002 10.7102L12.7002 14.7102C12.5139 14.8949 12.2625 14.9991 12.0002 15.0002Z" fill="#383838"/>
</svg>
