<svg width="32" height="32" viewBox="0 0 32 32" fill="none" xmlns="http://www.w3.org/2000/svg">
<path d="M24.318 26H23.682C22.033 26 18 24.709 18 22.318V20H14V22.318C14 24.709 9.967 26 8.318 26H7.682C6.7058 25.9989 5.76988 25.6107 5.0796 24.9204C4.38932 24.2301 4.00106 23.2942 4 22.318V13C4 11.9391 4.42143 10.9217 5.17157 10.1716C5.92172 9.42143 6.93913 9 8 9H24C25.0609 9 26.0783 9.42143 26.8284 10.1716C27.5786 10.9217 28 11.9391 28 13V22.318C27.9989 23.2942 27.6107 24.2301 26.9204 24.9204C26.2301 25.6107 25.2942 25.9989 24.318 26V26ZM13 18H19C19.2652 18 19.5196 18.1054 19.7071 18.2929C19.8946 18.4804 20 18.7348 20 19V22.318C20 22.806 22.218 24 23.682 24H24.318C24.7639 23.9995 25.1914 23.8221 25.5068 23.5068C25.8221 23.1914 25.9995 22.7639 26 22.318V13C26 12.4696 25.7893 11.9609 25.4142 11.5858C25.0391 11.2107 24.5304 11 24 11H8C7.46957 11 6.96086 11.2107 6.58579 11.5858C6.21071 11.9609 6 12.4696 6 13V22.318C6.00053 22.7639 6.17791 23.1914 6.49323 23.5068C6.80855 23.8221 7.23607 23.9995 7.682 24H8.318C9.782 24 12 22.806 12 22.318V19C12 18.7348 12.1054 18.4804 12.2929 18.2929C12.4804 18.1054 12.7348 18 13 18V18Z" fill="#383838"/>
<path d="M21 12C20.7348 12 20.4804 12.1054 20.2929 12.2929C20.1054 12.4804 20 12.7348 20 13V16C20 16.2652 20.1054 16.5196 20.2929 16.7071C20.4804 16.8946 20.7348 17 21 17C21.2652 17 21.5196 16.8946 21.7071 16.7071C21.8946 16.5196 22 16.2652 22 16V13C22 12.7348 21.8946 12.4804 21.7071 12.2929C21.5196 12.1054 21.2652 12 21 12ZM24 13C23.7348 13 23.4804 13.1054 23.2929 13.2929C23.1054 13.4804 23 13.7348 23 14V17C23 17.2652 23.1054 17.5196 23.2929 17.7071C23.4804 17.8946 23.7348 18 24 18C24.2652 18 24.5196 17.8946 24.7071 17.7071C24.8946 17.5196 25 17.2652 25 17V14C25 13.7348 24.8946 13.4804 24.7071 13.2929C24.5196 13.1054 24.2652 13 24 13ZM12 14H11V13C11 12.7348 10.8946 12.4804 10.7071 12.2929C10.5196 12.1054 10.2652 12 10 12C9.73478 12 9.48043 12.1054 9.29289 12.2929C9.10536 12.4804 9 12.7348 9 13V14H8C7.73478 14 7.48043 14.1054 7.29289 14.2929C7.10536 14.4804 7 14.7348 7 15C7 15.2652 7.10536 15.5196 7.29289 15.7071C7.48043 15.8946 7.73478 16 8 16H9V17C9 17.2652 9.10536 17.5196 9.29289 17.7071C9.48043 17.8946 9.73478 18 10 18C10.2652 18 10.5196 17.8946 10.7071 17.7071C10.8946 17.5196 11 17.2652 11 17V16H12C12.2652 16 12.5196 15.8946 12.7071 15.7071C12.8946 15.5196 13 15.2652 13 15C13 14.7348 12.8946 14.4804 12.7071 14.2929C12.5196 14.1054 12.2652 14 12 14Z" fill="#F46B5B"/>
</svg>
