<svg width="56" height="56" viewBox="0 0 56 56" fill="none" xmlns="http://www.w3.org/2000/svg">
<path d="M33.2501 12.25H29.7501C29.286 12.25 28.8408 12.4344 28.5126 12.7626C28.1845 13.0908 28.0001 13.5359 28.0001 14C28.0001 14.4641 28.1845 14.9092 28.5126 15.2374C28.8408 15.5656 29.286 15.75 29.7501 15.75H33.2501C33.7142 15.75 34.1593 15.5656 34.4875 15.2374C34.8157 14.9092 35.0001 14.4641 35.0001 14C35.0001 13.5359 34.8157 13.0908 34.4875 12.7626C34.1593 12.4344 33.7142 12.25 33.2501 12.25ZM29.6101 41.335C29.5717 41.2235 29.5187 41.1176 29.4526 41.02L29.2426 40.7575C29.0752 40.5994 28.8792 40.4747 28.6651 40.39C28.239 40.215 27.7611 40.215 27.3351 40.39C27.1231 40.4787 26.9277 40.603 26.7576 40.7575C26.4378 41.0929 26.2565 41.5367 26.2501 42C26.2528 42.1174 26.2645 42.2344 26.2851 42.35C26.3041 42.4597 26.3395 42.5658 26.3901 42.665C26.4248 42.7726 26.4781 42.8733 26.5476 42.9625C26.6176 43.0675 26.6876 43.155 26.7576 43.2425C26.9279 43.3968 27.1232 43.521 27.3351 43.61C27.5446 43.7024 27.7711 43.7501 28.0001 43.7501C28.2291 43.7501 28.4555 43.7024 28.6651 43.61C28.8769 43.521 29.0722 43.3967 29.2426 43.2425C29.3126 43.155 29.3826 43.0675 29.4526 42.9625C29.5221 42.8733 29.5754 42.7726 29.6101 42.665C29.6603 42.5657 29.6956 42.4596 29.7151 42.35C29.7352 42.2343 29.7469 42.1174 29.7501 42C29.746 41.8827 29.7343 41.7658 29.7151 41.65C29.6956 41.5404 29.6603 41.4343 29.6101 41.335V41.335ZM25.7426 12.7575C25.4965 12.5147 25.184 12.3502 24.8445 12.2848C24.505 12.2194 24.1538 12.256 23.8351 12.39C23.6208 12.4744 23.4248 12.5992 23.2576 12.7575C22.928 13.087 22.7429 13.534 22.7429 14C22.7429 14.466 22.928 14.913 23.2576 15.2425C23.5871 15.572 24.0341 15.7572 24.5001 15.7572C24.9661 15.7572 25.413 15.572 25.7426 15.2425C25.8126 15.155 25.8826 15.0675 25.9526 14.9625C26.0221 14.8733 26.0754 14.7726 26.1101 14.665C26.1603 14.5657 26.1956 14.4596 26.2151 14.35C26.2352 14.2343 26.2469 14.1174 26.2501 14C26.2433 13.5367 26.0621 13.0931 25.7426 12.7575V12.7575Z" fill="#F46B5B"/>
<path d="M38.5 7H17.5C17.0359 7 16.5908 7.18437 16.2626 7.51256C15.9344 7.84075 15.75 8.28587 15.75 8.75V47.25C15.75 47.7141 15.9344 48.1592 16.2626 48.4874C16.5908 48.8156 17.0359 49 17.5 49H38.5C38.9641 49 39.4092 48.8156 39.7374 48.4874C40.0656 48.1592 40.25 47.7141 40.25 47.25V8.75C40.25 8.28587 40.0656 7.84075 39.7374 7.51256C39.4092 7.18437 38.9641 7 38.5 7V7ZM19.25 10.5H36.75V35H19.25V10.5ZM19.25 45.5V38.5H36.75V45.5H19.25Z" fill="#383838"/>
</svg>
