<svg width="216" height="56" viewBox="0 0 216 56" fill="none" xmlns="http://www.w3.org/2000/svg">
<rect opacity="0.5" width="56" height="56" rx="8" fill="#F46B5B"/>
<path d="M36.9002 17.1007C36.5046 17.1007 36.1179 17.2179 35.789 17.4377C35.4601 17.6575 35.2038 17.9698 35.0524 18.3353C34.901 18.7007 34.8614 19.1029 34.9386 19.4908C35.0158 19.8788 35.2062 20.2352 35.486 20.5149C35.7657 20.7946 36.122 20.9851 36.51 21.0622C36.8979 21.1394 37.3001 21.0998 37.6655 20.9484C38.031 20.797 38.3433 20.5407 38.5631 20.2118C38.7829 19.8829 38.9002 19.4962 38.9002 19.1007C38.9002 18.5702 38.6895 18.0615 38.3144 17.6864C37.9393 17.3114 37.4306 17.1007 36.9002 17.1007V17.1007ZM44.5668 21.134C44.5344 19.7511 44.2754 18.383 43.8002 17.084C43.3764 15.9725 42.7168 14.9661 41.8668 14.134C41.0415 13.2797 40.0328 12.6243 38.9168 12.2173C37.6213 11.7276 36.2516 11.4627 34.8668 11.434C33.1002 11.334 32.5335 11.334 28.0002 11.334C23.4668 11.334 22.9002 11.334 21.1335 11.434C19.7488 11.4627 18.3791 11.7276 17.0835 12.2173C15.9696 12.6284 14.9617 13.2833 14.1335 14.134C13.2792 14.9593 12.6238 15.9681 12.2168 17.084C11.7271 18.3796 11.4622 19.7492 11.4335 21.134C11.3335 22.9007 11.3335 23.4673 11.3335 28.0007C11.3335 32.534 11.3335 33.1007 11.4335 34.8673C11.4622 36.2521 11.7271 37.6217 12.2168 38.9173C12.6238 40.0333 13.2792 41.042 14.1335 41.8673C14.9617 42.7181 15.9696 43.3729 17.0835 43.784C18.3791 44.2737 19.7488 44.5386 21.1335 44.5673C22.9002 44.6673 23.4668 44.6673 28.0002 44.6673C32.5335 44.6673 33.1002 44.6673 34.8668 44.5673C36.2516 44.5386 37.6213 44.2737 38.9168 43.784C40.0328 43.377 41.0415 42.7216 41.8668 41.8673C42.7206 41.0383 43.3807 40.031 43.8002 38.9173C44.2754 37.6183 44.5344 36.2502 44.5668 34.8673C44.5668 33.1007 44.6668 32.534 44.6668 28.0007C44.6668 23.4673 44.6668 22.9007 44.5668 21.134V21.134ZM41.5668 34.6673C41.5547 35.7253 41.3631 36.7735 41.0002 37.7673C40.7341 38.4926 40.3066 39.148 39.7502 39.684C39.2096 40.2348 38.5555 40.6614 37.8335 40.934C36.8397 41.2969 35.7915 41.4885 34.7335 41.5007C33.0668 41.584 32.4502 41.6007 28.0668 41.6007C23.6835 41.6007 23.0668 41.6007 21.4002 41.5007C20.3016 41.5212 19.2078 41.3521 18.1668 41.0007C17.4765 40.7141 16.8524 40.2886 16.3335 39.7507C15.7803 39.2152 15.3582 38.5593 15.1002 37.834C14.6933 36.8259 14.4676 35.7539 14.4335 34.6673C14.4335 33.0007 14.3335 32.384 14.3335 28.0007C14.3335 23.6173 14.3335 23.0007 14.4335 21.334C14.441 20.2524 14.6384 19.1806 15.0168 18.1673C15.3102 17.4638 15.7606 16.8367 16.3335 16.334C16.8399 15.7609 17.4656 15.3058 18.1668 15.0007C19.1827 14.6341 20.2535 14.4425 21.3335 14.434C23.0002 14.434 23.6168 14.334 28.0002 14.334C32.3835 14.334 33.0002 14.334 34.6668 14.434C35.7248 14.4461 36.773 14.6377 37.7668 15.0007C38.5242 15.2817 39.204 15.7387 39.7502 16.334C40.2963 16.8459 40.7231 17.4719 41.0002 18.1673C41.3706 19.1822 41.5623 20.2536 41.5668 21.334C41.6502 23.0007 41.6668 23.6173 41.6668 28.0007C41.6668 32.384 41.6502 33.0007 41.5668 34.6673ZM28.0002 19.4507C26.3098 19.4539 24.6584 19.9582 23.2546 20.8997C21.8507 21.8412 20.7575 23.1776 20.1129 24.7402C19.4683 26.3028 19.3014 28.0214 19.6332 29.6789C19.9649 31.3363 20.7806 32.8582 21.977 34.0523C23.1734 35.2464 24.6968 36.059 26.3549 36.3876C28.013 36.7161 29.7313 36.5458 31.2926 35.8982C32.8539 35.2506 34.1883 34.1547 35.127 32.749C36.0658 31.3434 36.5668 29.691 36.5668 28.0007C36.569 26.8758 36.3488 25.7617 35.9189 24.7222C35.489 23.6828 34.8578 22.7387 34.0616 21.9441C33.2655 21.1495 32.3201 20.5201 31.2798 20.0922C30.2396 19.6643 29.125 19.4463 28.0002 19.4507V19.4507ZM28.0002 33.5507C26.9025 33.5507 25.8294 33.2252 24.9167 32.6153C24.0041 32.0055 23.2927 31.1387 22.8726 30.1245C22.4526 29.1104 22.3427 27.9945 22.5568 26.9179C22.771 25.8413 23.2995 24.8524 24.0757 24.0762C24.8519 23.3 25.8408 22.7714 26.9174 22.5573C27.994 22.3431 29.1099 22.4531 30.1241 22.8731C31.1382 23.2932 32.005 24.0045 32.6148 24.9172C33.2247 25.8299 33.5502 26.903 33.5502 28.0007C33.5502 28.7295 33.4066 29.4512 33.1277 30.1245C32.8488 30.7979 32.44 31.4097 31.9246 31.9251C31.4092 32.4405 30.7974 32.8493 30.1241 33.1282C29.4507 33.4071 28.729 33.5507 28.0002 33.5507V33.5507Z" fill="#FAFAFA"/>
<rect opacity="0.5" x="80" width="56" height="56" rx="8" fill="#F46B5B"/>
<path d="M102.183 41.3332H102.05C99.3641 41.3097 96.7169 40.6892 94.3002 39.5165C93.8556 39.3077 93.4896 38.9621 93.2557 38.5302C93.0217 38.0984 92.9322 37.603 93.0002 37.1165C93.0741 36.6268 93.3008 36.173 93.648 35.8198C93.9952 35.4666 94.4451 35.2321 94.9335 35.1499C96.4312 34.9501 97.872 34.4452 99.1668 33.6665C96.9188 31.9089 95.1881 29.5758 94.1582 26.9145C93.1283 24.2533 92.8376 21.3629 93.3168 18.5499C93.3818 18.1043 93.5734 17.6868 93.8689 17.347C94.1644 17.0072 94.5512 16.7594 94.9835 16.6332C95.404 16.5011 95.8541 16.4955 96.2778 16.617C96.7015 16.7385 97.0802 16.9817 97.3668 17.3165C98.3402 18.5928 99.5633 19.6575 100.962 20.4455C102.36 21.2335 103.904 21.7283 105.5 21.8999C105.576 19.9363 106.42 18.0811 107.85 16.7332C108.564 16.0495 109.407 15.5147 110.33 15.1601C111.253 14.8054 112.237 14.6379 113.225 14.6674C114.213 14.6968 115.185 14.9227 116.085 15.3317C116.985 15.7408 117.795 16.3248 118.467 17.0499C118.642 17.2047 118.859 17.3033 119.091 17.333C119.323 17.3627 119.558 17.3221 119.767 17.2165C120.164 17.0291 120.607 16.9586 121.043 17.0131C121.479 17.0677 121.89 17.2451 122.229 17.5246C122.568 17.8042 122.82 18.1743 122.957 18.592C123.094 19.0096 123.109 19.4574 123 19.8832C122.616 21.4667 121.887 22.9462 120.867 24.2165C120.642 28.9578 118.552 33.4178 115.052 36.6242C111.552 39.8306 106.926 41.5233 102.183 41.3332V41.3332ZM102.183 37.9999H102.317C104.255 38.0665 106.186 37.7478 108 37.0623C109.814 36.3768 111.473 35.3381 112.883 34.0063C114.292 32.6746 115.423 31.0764 116.21 29.3044C116.997 27.5323 117.424 25.6217 117.467 23.6832C117.494 23.152 117.713 22.6487 118.083 22.2665C118.49 21.7519 118.837 21.1928 119.117 20.5999C118.516 20.601 117.923 20.4754 117.374 20.2313C116.825 19.9872 116.335 19.63 115.933 19.1832C115.548 18.8008 115.09 18.4992 114.586 18.296C114.082 18.0928 113.543 17.9921 113 17.9999C112.452 17.9857 111.906 18.08 111.394 18.2773C110.882 18.4747 110.414 18.7712 110.017 19.1499C109.481 19.6582 109.088 20.2983 108.878 21.0061C108.667 21.714 108.646 22.4647 108.817 23.1832L109.25 25.0832L107.3 25.2165C105.302 25.3795 103.292 25.1061 101.41 24.4155C99.5281 23.7248 97.8186 22.6333 96.4002 21.2165C96.3393 23.4105 96.8882 25.5784 97.9856 27.4792C99.0831 29.3799 100.686 30.939 102.617 31.9832L104.2 32.8832L103.15 34.3832C102.015 35.8724 100.459 36.987 98.6835 37.5832C99.8223 37.8686 100.993 38.0087 102.167 37.9999H102.183Z" fill="#FAFAFA"/>
<rect opacity="0.5" x="160" width="56" height="56" rx="8" fill="#F46B5B"/>
<path d="M202.833 11.334H173.167C172.681 11.334 172.214 11.5271 171.87 11.871C171.527 12.2148 171.333 12.6811 171.333 13.1673V42.834C171.333 43.0747 171.381 43.3131 171.473 43.5356C171.565 43.758 171.7 43.9601 171.87 44.1303C172.041 44.3006 172.243 44.4356 172.465 44.5278C172.688 44.6199 172.926 44.6673 173.167 44.6673H189.133V31.7507H184.8V26.7507H189.133V23.0007C189.044 22.1202 189.148 21.2309 189.438 20.3949C189.728 19.5589 190.198 18.7966 190.814 18.1613C191.43 17.5261 192.178 17.0334 193.005 16.7177C193.832 16.402 194.717 16.2711 195.6 16.334C196.897 16.326 198.194 16.3928 199.483 16.534V21.034H196.833C194.733 21.034 194.333 22.034 194.333 23.484V26.7007H199.333L198.683 31.7007H194.333V44.6673H202.833C203.074 44.6673 203.313 44.6199 203.535 44.5278C203.758 44.4356 203.96 44.3006 204.13 44.1303C204.3 43.9601 204.435 43.758 204.527 43.5356C204.619 43.3131 204.667 43.0747 204.667 42.834V13.1673C204.667 12.9266 204.619 12.6882 204.527 12.4657C204.435 12.2433 204.3 12.0412 204.13 11.871C203.96 11.7007 203.758 11.5657 203.535 11.4735C203.313 11.3814 203.074 11.334 202.833 11.334V11.334Z" fill="#FAFAFA"/>
</svg>
