<svg width="120" height="24" viewBox="0 0 120 24" fill="none" xmlns="http://www.w3.org/2000/svg">
<g clip-path="url(#clip0_831_554)">
<path fill-rule="evenodd" clip-rule="evenodd" d="M12.8195 24H1.32547C0.974145 23.9999 0.637255 23.8602 0.388878 23.6117C0.1405 23.3633 0.000976632 23.0263 0.000976657 22.675V1.325C0.000910952 1.15098 0.0351357 0.97865 0.1017 0.817864C0.168264 0.657078 0.265858 0.51099 0.388908 0.38794C0.511959 0.264889 0.658054 0.167288 0.81884 0.100723C0.979626 0.0341592 1.15195 -6.56107e-05 1.32597 9.44265e-08H22.6765C22.8505 8.203e-08 23.0227 0.0342747 23.1835 0.100868C23.3442 0.167462 23.4902 0.265071 23.6132 0.388115C23.7362 0.511159 23.8338 0.657232 23.9003 0.817986C23.9668 0.978739 24.001 1.15102 24.001 1.325V22.675C24.001 23.0263 23.8614 23.3633 23.6131 23.6117C23.3647 23.8602 23.0278 23.9999 22.6765 24H16.5605V14.706H19.6805L20.1475 11.084H16.5605V8.7715C16.5605 7.7225 16.852 7.008 18.3555 7.008L20.2735 7.007V3.7675C19.942 3.7235 18.8035 3.625 17.4785 3.625C14.7135 3.625 12.82 5.313 12.82 8.4125V11.084H9.69247V14.706H12.82V24H12.8195Z" fill="#383838"/>
</g>
<path d="M71.0627 5.13281C70.2471 5.49375 69.3752 5.7375 68.4564 5.85C69.3939 5.2875 70.1158 4.39687 70.4533 3.3375C69.5768 3.85781 68.6064 4.2375 67.5705 4.43906C66.7408 3.55312 65.5596 3 64.2564 3C61.7486 3 59.7189 5.03437 59.7189 7.54219C59.7189 7.89844 59.7564 8.24531 59.8361 8.57812C56.0627 8.39062 52.7158 6.58125 50.4799 3.82969C50.0908 4.5 49.8658 5.28281 49.8658 6.1125C49.8658 7.6875 50.6721 9.07969 51.8908 9.89531C51.1408 9.87656 50.4377 9.67031 49.8283 9.32812V9.38437C49.8283 11.5875 51.3939 13.4203 53.4705 13.8375C53.0908 13.9406 52.6877 13.9969 52.2752 13.9969C51.9846 13.9969 51.6986 13.9687 51.4221 13.9125C51.9986 15.7172 53.6768 17.0297 55.6643 17.0672C54.1127 18.2859 52.1533 19.0125 50.0252 19.0125C49.6596 19.0125 49.2986 18.9891 48.9424 18.9469C50.9439 20.25 53.3299 21 55.8893 21C64.2471 21 68.8127 14.0766 68.8127 8.07187C68.8127 7.875 68.808 7.67812 68.7986 7.48594C69.6846 6.84375 70.4533 6.04688 71.0627 5.13281Z" fill="#383838"/>
<path d="M101.5 15C102.41 15 103.233 14.642 103.857 14.07L110.117 17.647C110.043 17.9254 110.004 18.2119 110 18.5C110 20.43 111.57 22 113.5 22C115.43 22 117 20.43 117 18.5C117 16.57 115.43 15 113.5 15C112.59 15 111.767 15.358 111.143 15.93L104.883 12.353C104.946 12.106 104.986 11.851 104.991 11.585L111.142 8.07C111.767 8.642 112.59 9 113.5 9C115.43 9 117 7.43 117 5.5C117 3.57 115.43 2 113.5 2C111.57 2 110 3.57 110 5.5C110 5.796 110.048 6.078 110.117 6.353L104.433 9.602C104.117 9.11133 103.683 8.70766 103.17 8.42783C102.658 8.148 102.084 8.00092 101.5 8C99.57 8 98 9.57 98 11.5C98 13.43 99.57 15 101.5 15ZM113.5 17C114.327 17 115 17.673 115 18.5C115 19.327 114.327 20 113.5 20C112.673 20 112 19.327 112 18.5C112 17.673 112.673 17 113.5 17ZM113.5 4C114.327 4 115 4.673 115 5.5C115 6.327 114.327 7 113.5 7C112.673 7 112 6.327 112 5.5C112 4.673 112.673 4 113.5 4ZM101.5 10C102.327 10 103 10.673 103 11.5C103 12.327 102.327 13 101.5 13C100.673 13 100 12.327 100 11.5C100 10.673 100.673 10 101.5 10Z" fill="#383838"/>
<defs>
<clipPath id="clip0_831_554">
<rect width="24" height="24" fill="white"/>
</clipPath>
</defs>
</svg>
