<svg width="50" height="50" viewBox="0 0 50 50" fill="none" xmlns="http://www.w3.org/2000/svg">
<path d="M36.4564 20.6686C36.1564 19.2623 35.6689 18.0998 34.8064 17.1811C33.5877 15.8311 31.9939 15.1748 30.1001 15.1748H29.8564C27.8502 15.2311 26.2001 16.0373 25.0376 17.4998C24.6064 17.0123 24.0627 16.5248 23.4439 16.1498C22.2252 15.4186 20.8189 15.1186 19.2252 15.2311C17.4627 15.4186 16.0564 16.2061 15.0064 17.4998C13.9002 18.9623 13.3564 20.6123 13.4127 22.3186C13.4689 23.9123 13.9564 25.3748 14.8752 26.7811C15.9064 28.3748 17.2002 29.5936 18.3627 30.5686C20.0127 32.0311 21.9064 33.3248 24.2877 34.6561C24.5314 34.7873 24.7189 34.8436 24.9627 34.8436C25.2064 34.8436 25.3939 34.7873 25.6377 34.6561C27.7189 33.4936 29.5377 32.2748 31.1877 30.8686C32.8939 29.4623 34.1127 28.1123 35.0877 26.6498C36.4002 24.7561 36.8126 22.8061 36.4564 20.6686Z" fill="#D0D0D2"/>
</svg>
