<svg width="24" height="24" viewBox="0 0 24 24" fill="none" xmlns="http://www.w3.org/2000/svg">
<path d="M16 9H8C7.73478 9 7.48043 8.89464 7.29289 8.70711C7.10536 8.51957 7 8.26522 7 8C7 7.73478 7.10536 7.48043 7.29289 7.29289C7.48043 7.10536 7.73478 7 8 7H16C16.2652 7 16.5196 7.10536 16.7071 7.29289C16.8946 7.48043 17 7.73478 17 8C17 8.26522 16.8946 8.51957 16.7071 8.70711C16.5196 8.89464 16.2652 9 16 9ZM16 13H8C7.73478 13 7.48043 12.8946 7.29289 12.7071C7.10536 12.5196 7 12.2652 7 12C7 11.7348 7.10536 11.4804 7.29289 11.2929C7.48043 11.1054 7.73478 11 8 11H16C16.2652 11 16.5196 11.1054 16.7071 11.2929C16.8946 11.4804 17 11.7348 17 12C17 12.2652 16.8946 12.5196 16.7071 12.7071C16.5196 12.8946 16.2652 13 16 13Z" fill="#A7A7A7"/>
<path d="M4 22C3.46957 22 2.96086 21.7893 2.58579 21.4142C2.21071 21.0391 2 20.5304 2 20V7C2.00159 5.6744 2.52888 4.40356 3.46622 3.46622C4.40356 2.52888 5.6744 2.00159 7 2H17C18.3256 2.00159 19.5964 2.52888 20.5338 3.46622C21.4711 4.40356 21.9984 5.6744 22 7V13C21.9984 14.3256 21.4711 15.5964 20.5338 16.5338C19.5964 17.4711 18.3256 17.9984 17 18H7.828C7.60395 18.0007 7.38653 18.076 7.21 18.214L5.584 21.186C5.5385 21.2691 5.48124 21.3452 5.414 21.412C5.22869 21.5984 5.00836 21.7462 4.7657 21.8472C4.52303 21.9481 4.26281 22 4 22V22ZM7 4C6.20435 4 5.44129 4.31607 4.87868 4.87868C4.31607 5.44129 4 6.20435 4 7V19.914L5.537 17.105C5.5825 17.0219 5.63976 16.9458 5.707 16.879C5.98492 16.5996 6.31546 16.3781 6.67951 16.2272C7.04357 16.0763 7.43392 15.9991 7.828 16H17C17.7956 16 18.5587 15.6839 19.1213 15.1213C19.6839 14.5587 20 13.7956 20 13V7C20 6.20435 19.6839 5.44129 19.1213 4.87868C18.5587 4.31607 17.7956 4 17 4H7Z" fill="#A7A7A7"/>
</svg>
