<svg width="32" height="32" viewBox="0 0 32 32" fill="none" xmlns="http://www.w3.org/2000/svg">
<path d="M25.3334 9.33268H21.3334V7.99935C21.3334 6.58486 20.7715 5.22831 19.7713 4.22811C18.7711 3.22792 17.4145 2.66602 16 2.66602C14.5856 2.66602 13.229 3.22792 12.2288 4.22811C11.2286 5.22831 10.6667 6.58486 10.6667 7.99935V9.33268H6.66671C6.31309 9.33268 5.97395 9.47316 5.7239 9.72321C5.47385 9.97325 5.33337 10.3124 5.33337 10.666L5.33337 25.3327C5.33337 26.3935 5.7548 27.411 6.50495 28.1611C7.25509 28.9113 8.27251 29.3327 9.33337 29.3327H22.6667C23.7276 29.3327 24.745 28.9113 25.4951 28.1611C26.2453 27.411 26.6667 26.3935 26.6667 25.3327V10.666C26.6667 10.3124 26.5262 9.97325 26.2762 9.72321C26.0261 9.47316 25.687 9.33268 25.3334 9.33268ZM13.3334 7.99935C13.3334 7.2921 13.6143 6.61383 14.1144 6.11373C14.6145 5.61363 15.2928 5.33268 16 5.33268C16.7073 5.33268 17.3856 5.61363 17.8857 6.11373C18.3858 6.61383 18.6667 7.2921 18.6667 7.99935V9.33268H13.3334V7.99935ZM24 25.3327C24 25.6863 23.8596 26.0254 23.6095 26.2755C23.3595 26.5255 23.0203 26.666 22.6667 26.666H9.33337C8.97975 26.666 8.64061 26.5255 8.39057 26.2755C8.14052 26.0254 8.00004 25.6863 8.00004 25.3327L8.00004 11.9993H10.6667V13.3327C10.6667 13.6863 10.8072 14.0254 11.0572 14.2755C11.3073 14.5255 11.6464 14.666 12 14.666C12.3537 14.666 12.6928 14.5255 12.9428 14.2755C13.1929 14.0254 13.3334 13.6863 13.3334 13.3327V11.9993H18.6667V13.3327C18.6667 13.6863 18.8072 14.0254 19.0572 14.2755C19.3073 14.5255 19.6464 14.666 20 14.666C20.3537 14.666 20.6928 14.5255 20.9428 14.2755C21.1929 14.0254 21.3334 13.6863 21.3334 13.3327V11.9993H24V25.3327Z" fill="#383838"/>
</svg>
